<?xml version="1.0" encoding="UTF-8"?><svg xmlns="http://www.w3.org/2000/svg" xmlns:xlink="http://www.w3.org/1999/xlink" fill-opacity="1" color-rendering="auto" color-interpolation="auto" text-rendering="auto" stroke="black" stroke-linecap="square" width="1815" stroke-miterlimit="10" shape-rendering="auto" stroke-opacity="1" fill="black" stroke-dasharray="none" font-weight="normal" stroke-width="1" height="970" font-family="'Dialog'" font-style="normal" stroke-linejoin="miter" font-size="12px" stroke-dashoffset="0" image-rendering="auto">
  <!--Generated by ySVG 2.6-->
  <defs id="genericDefs"/>
  <g>
    <defs id="defs1">
      <clipPath clipPathUnits="userSpaceOnUse" id="clipPath1">
        <path d="M0 0 L1815 0 L1815 970 L0 970 L0 0 Z"/>
      </clipPath>
    </defs>
    <g fill="white" text-rendering="geometricPrecision" shape-rendering="geometricPrecision" stroke="white">
      <rect x="0" width="1815" height="970" y="0" clip-path="url(#clipPath1)" stroke="none"/>
    </g>
    <g fill="rgb(187,68,34)" text-rendering="geometricPrecision" shape-rendering="geometricPrecision" stroke="rgb(187,68,34)">
      <rect x="0" y="0" clip-path="url(#clipPath1)" width="175" rx="4" ry="4" height="970" stroke="none"/>
    </g>
    <g stroke-linecap="butt" fill="white" text-rendering="geometricPrecision" font-family="'DejaVu Sans'" shape-rendering="geometricPrecision" stroke="white" font-weight="bold" stroke-miterlimit="1.45">
      <text x="35.5273" xml:space="preserve" y="489.1543" clip-path="url(#clipPath1)" stroke="none">ExperimentRun</text>
    </g>
    <g fill="rgb(187,68,34)" text-rendering="geometricPrecision" shape-rendering="geometricPrecision" stroke="rgb(187,68,34)">
      <rect x="410" y="0" clip-path="url(#clipPath1)" width="175" rx="4" ry="4" height="30" stroke="none"/>
    </g>
    <g stroke-linecap="butt" fill="white" text-rendering="geometricPrecision" font-family="'DejaVu Sans'" shape-rendering="geometricPrecision" stroke="white" font-weight="bold" stroke-miterlimit="1.45">
      <text x="421.4043" xml:space="preserve" y="19.1543" clip-path="url(#clipPath1)" stroke="none">StudyDesignExecution</text>
    </g>
    <g fill="rgb(34,68,153)" text-rendering="geometricPrecision" shape-rendering="geometricPrecision" stroke="rgb(34,68,153)">
      <rect x="410" y="60" clip-path="url(#clipPath1)" width="175" rx="4" ry="4" height="910" stroke="none"/>
    </g>
    <g stroke-linecap="butt" fill="white" text-rendering="geometricPrecision" font-family="'DejaVu Sans'" shape-rendering="geometricPrecision" stroke="white" font-weight="bold" stroke-miterlimit="1.45">
      <text x="430.4307" xml:space="preserve" y="519.1543" clip-path="url(#clipPath1)" stroke="none">hasExperimentType</text>
    </g>
    <g fill="rgb(34,68,153)" text-rendering="geometricPrecision" shape-rendering="geometricPrecision" stroke="rgb(34,68,153)">
      <rect x="205" y="0" clip-path="url(#clipPath1)" width="175" rx="4" ry="4" height="30" stroke="none"/>
    </g>
    <g stroke-linecap="butt" fill="white" text-rendering="geometricPrecision" font-family="'DejaVu Sans'" shape-rendering="geometricPrecision" stroke="white" font-weight="bold" stroke-miterlimit="1.45">
      <text x="255" xml:space="preserve" y="19.1543" clip-path="url(#clipPath1)" stroke="none">subClassOf</text>
    </g>
    <g fill="rgb(34,68,153)" text-rendering="geometricPrecision" shape-rendering="geometricPrecision" stroke="rgb(34,68,153)">
      <rect x="205" y="727.5" clip-path="url(#clipPath1)" width="175" rx="4" ry="4" height="30" stroke="none"/>
    </g>
    <g stroke-linecap="butt" fill="white" text-rendering="geometricPrecision" font-family="'DejaVu Sans'" shape-rendering="geometricPrecision" stroke="white" font-weight="bold" stroke-miterlimit="1.45">
      <text x="267.4541" xml:space="preserve" y="746.6543" clip-path="url(#clipPath1)" stroke="none">domain</text>
    </g>
    <g text-rendering="geometricPrecision" stroke-miterlimit="1.45" shape-rendering="geometricPrecision" stroke-linecap="butt">
      <rect x="205" y="272.5" clip-path="url(#clipPath1)" fill="none" width="175" rx="4" ry="4" height="30"/>
      <text x="250.1074" y="291.6543" clip-path="url(#clipPath1)" font-family="'DejaVu Sans'" stroke="none" font-weight="bold" xml:space="preserve">cardinality 1</text>
    </g>
    <g fill="rgb(187,68,34)" text-rendering="geometricPrecision" shape-rendering="geometricPrecision" stroke="rgb(187,68,34)">
      <rect x="820" y="180" clip-path="url(#clipPath1)" width="175" rx="4" ry="4" height="790" stroke="none"/>
    </g>
    <g stroke-linecap="butt" fill="white" text-rendering="geometricPrecision" font-family="'DejaVu Sans'" shape-rendering="geometricPrecision" stroke="white" font-weight="bold" stroke-miterlimit="1.45">
      <text x="852.3223" xml:space="preserve" y="579.1543" clip-path="url(#clipPath1)" stroke="none">ExperimentType</text>
    </g>
    <g fill="rgb(34,68,153)" text-rendering="geometricPrecision" shape-rendering="geometricPrecision" stroke="rgb(34,68,153)">
      <rect x="615" y="60" clip-path="url(#clipPath1)" width="175" rx="4" ry="4" height="30" stroke="none"/>
    </g>
    <g stroke-linecap="butt" fill="white" text-rendering="geometricPrecision" font-family="'DejaVu Sans'" shape-rendering="geometricPrecision" stroke="white" font-weight="bold" stroke-miterlimit="1.45">
      <text x="653.0703" xml:space="preserve" y="79.1543" clip-path="url(#clipPath1)" stroke="none">subPropertyOf</text>
    </g>
    <g fill="rgb(34,68,153)" text-rendering="geometricPrecision" shape-rendering="geometricPrecision" stroke="rgb(34,68,153)">
      <rect x="820" y="60" clip-path="url(#clipPath1)" width="175" rx="4" ry="4" height="30" stroke="none"/>
    </g>
    <g stroke-linecap="butt" fill="white" text-rendering="geometricPrecision" font-family="'DejaVu Sans'" shape-rendering="geometricPrecision" stroke="white" font-weight="bold" stroke-miterlimit="1.45">
      <text x="881.1768" xml:space="preserve" y="79.1543" clip-path="url(#clipPath1)" stroke="none">realizes</text>
    </g>
    <g fill="rgb(34,68,153)" text-rendering="geometricPrecision" shape-rendering="geometricPrecision" stroke="rgb(34,68,153)">
      <rect x="615" y="120" clip-path="url(#clipPath1)" width="175" rx="4" ry="4" height="30" stroke="none"/>
    </g>
    <g stroke-linecap="butt" fill="white" text-rendering="geometricPrecision" font-family="'DejaVu Sans'" shape-rendering="geometricPrecision" stroke="white" font-weight="bold" stroke-miterlimit="1.45">
      <text x="669.8809" xml:space="preserve" y="139.1543" clip-path="url(#clipPath1)" stroke="none">inverseOf</text>
    </g>
    <g fill="rgb(34,68,153)" text-rendering="geometricPrecision" shape-rendering="geometricPrecision" stroke="rgb(34,68,153)">
      <rect x="820" y="120" clip-path="url(#clipPath1)" width="175" rx="4" ry="4" height="30" stroke="none"/>
    </g>
    <g stroke-linecap="butt" fill="white" text-rendering="geometricPrecision" font-family="'DejaVu Sans'" shape-rendering="geometricPrecision" stroke="white" font-weight="bold" stroke-miterlimit="1.45">
      <text x="843.6357" xml:space="preserve" y="139.1543" clip-path="url(#clipPath1)" stroke="none">hasExperimentRun</text>
    </g>
    <g fill="rgb(34,68,153)" text-rendering="geometricPrecision" shape-rendering="geometricPrecision" stroke="rgb(34,68,153)">
      <rect x="615" y="560" clip-path="url(#clipPath1)" width="175" rx="4" ry="4" height="30" stroke="none"/>
    </g>
    <g stroke-linecap="butt" fill="white" text-rendering="geometricPrecision" font-family="'DejaVu Sans'" shape-rendering="geometricPrecision" stroke="white" font-weight="bold" stroke-miterlimit="1.45">
      <text x="682.8564" xml:space="preserve" y="579.1543" clip-path="url(#clipPath1)" stroke="none">range</text>
    </g>
    <g fill="rgb(187,68,34)" text-rendering="geometricPrecision" shape-rendering="geometricPrecision" stroke="rgb(187,68,34)">
      <rect x="1230" y="180" clip-path="url(#clipPath1)" width="175" rx="4" ry="4" height="30" stroke="none"/>
    </g>
    <g stroke-linecap="butt" fill="white" text-rendering="geometricPrecision" font-family="'DejaVu Sans'" shape-rendering="geometricPrecision" stroke="white" font-weight="bold" stroke-miterlimit="1.45">
      <text x="1274.5889" xml:space="preserve" y="199.1543" clip-path="url(#clipPath1)" stroke="none">StudyDesign</text>
    </g>
    <g fill="rgb(34,68,153)" text-rendering="geometricPrecision" shape-rendering="geometricPrecision" stroke="rgb(34,68,153)">
      <rect x="1025" y="180" clip-path="url(#clipPath1)" width="175" rx="4" ry="4" height="30" stroke="none"/>
    </g>
    <g stroke-linecap="butt" fill="white" text-rendering="geometricPrecision" font-family="'DejaVu Sans'" shape-rendering="geometricPrecision" stroke="white" font-weight="bold" stroke-miterlimit="1.45">
      <text x="1075" xml:space="preserve" y="199.1543" clip-path="url(#clipPath1)" stroke="none">subClassOf</text>
    </g>
    <g fill="rgb(34,68,153)" text-rendering="geometricPrecision" shape-rendering="geometricPrecision" stroke="rgb(34,68,153)">
      <rect x="1230" y="240" clip-path="url(#clipPath1)" width="175" rx="4" ry="4" height="390" stroke="none"/>
    </g>
    <g stroke-linecap="butt" fill="white" text-rendering="geometricPrecision" font-family="'DejaVu Sans'" shape-rendering="geometricPrecision" stroke="white" font-weight="bold" stroke-miterlimit="1.45">
      <text x="1249.0801" xml:space="preserve" y="439.1543" clip-path="url(#clipPath1)" stroke="none">hasParameterUsage</text>
    </g>
    <g fill="rgb(34,68,153)" text-rendering="geometricPrecision" shape-rendering="geometricPrecision" stroke="rgb(34,68,153)">
      <rect x="1025" y="517.5" clip-path="url(#clipPath1)" width="175" rx="4" ry="4" height="30" stroke="none"/>
    </g>
    <g stroke-linecap="butt" fill="white" text-rendering="geometricPrecision" font-family="'DejaVu Sans'" shape-rendering="geometricPrecision" stroke="white" font-weight="bold" stroke-miterlimit="1.45">
      <text x="1087.4541" xml:space="preserve" y="536.6543" clip-path="url(#clipPath1)" stroke="none">domain</text>
    </g>
    <g text-rendering="geometricPrecision" stroke-miterlimit="1.45" shape-rendering="geometricPrecision" stroke-linecap="butt">
      <rect x="1025" y="322.5" clip-path="url(#clipPath1)" fill="none" width="175" rx="4" ry="4" height="30"/>
      <text x="1056.6807" y="341.6543" clip-path="url(#clipPath1)" font-family="'DejaVu Sans'" stroke="none" font-weight="bold" xml:space="preserve">minCardinality 1</text>
    </g>
    <g fill="rgb(34,68,153)" text-rendering="geometricPrecision" shape-rendering="geometricPrecision" stroke="rgb(34,68,153)">
      <rect x="1435" y="240" clip-path="url(#clipPath1)" width="175" rx="4" ry="4" height="30" stroke="none"/>
    </g>
    <g stroke-linecap="butt" fill="white" text-rendering="geometricPrecision" font-family="'DejaVu Sans'" shape-rendering="geometricPrecision" stroke="white" font-weight="bold" stroke-miterlimit="1.45">
      <text x="1473.0703" xml:space="preserve" y="259.1543" clip-path="url(#clipPath1)" stroke="none">subPropertyOf</text>
    </g>
    <g fill="rgb(34,68,153)" text-rendering="geometricPrecision" shape-rendering="geometricPrecision" stroke="rgb(34,68,153)">
      <rect x="1640" y="240" clip-path="url(#clipPath1)" width="175" rx="4" ry="4" height="30" stroke="none"/>
    </g>
    <g stroke-linecap="butt" fill="white" text-rendering="geometricPrecision" font-family="'DejaVu Sans'" shape-rendering="geometricPrecision" stroke="white" font-weight="bold" stroke-miterlimit="1.45">
      <text x="1701.335" xml:space="preserve" y="259.1543" clip-path="url(#clipPath1)" stroke="none">hasPart</text>
    </g>
    <g fill="rgb(34,68,153)" text-rendering="geometricPrecision" shape-rendering="geometricPrecision" stroke="rgb(34,68,153)">
      <rect x="1435" y="450" clip-path="url(#clipPath1)" width="175" rx="4" ry="4" height="30" stroke="none"/>
    </g>
    <g stroke-linecap="butt" fill="white" text-rendering="geometricPrecision" font-family="'DejaVu Sans'" shape-rendering="geometricPrecision" stroke="white" font-weight="bold" stroke-miterlimit="1.45">
      <text x="1502.8564" xml:space="preserve" y="469.1543" clip-path="url(#clipPath1)" stroke="none">range</text>
    </g>
    <g fill="rgb(187,68,34)" text-rendering="geometricPrecision" shape-rendering="geometricPrecision" stroke="rgb(187,68,34)">
      <rect x="1640" y="300" clip-path="url(#clipPath1)" width="175" rx="4" ry="4" height="330" stroke="none"/>
    </g>
    <g stroke-linecap="butt" fill="white" text-rendering="geometricPrecision" font-family="'DejaVu Sans'" shape-rendering="geometricPrecision" stroke="white" font-weight="bold" stroke-miterlimit="1.45">
      <text x="1670.9717" xml:space="preserve" y="469.1543" clip-path="url(#clipPath1)" stroke="none">ParameterUsage</text>
    </g>
    <g fill="rgb(34,68,153)" text-rendering="geometricPrecision" shape-rendering="geometricPrecision" stroke="rgb(34,68,153)">
      <rect x="1230" y="660" clip-path="url(#clipPath1)" width="175" rx="4" ry="4" height="310" stroke="none"/>
    </g>
    <g stroke-linecap="butt" fill="white" text-rendering="geometricPrecision" font-family="'DejaVu Sans'" shape-rendering="geometricPrecision" stroke="white" font-weight="bold" stroke-miterlimit="1.45">
      <text x="1245.2627" xml:space="preserve" y="819.1543" clip-path="url(#clipPath1)" stroke="none">hasMethodologySpec</text>
    </g>
    <g fill="rgb(34,68,153)" text-rendering="geometricPrecision" shape-rendering="geometricPrecision" stroke="rgb(34,68,153)">
      <rect x="1025" y="877.5" clip-path="url(#clipPath1)" width="175" rx="4" ry="4" height="30" stroke="none"/>
    </g>
    <g stroke-linecap="butt" fill="white" text-rendering="geometricPrecision" font-family="'DejaVu Sans'" shape-rendering="geometricPrecision" stroke="white" font-weight="bold" stroke-miterlimit="1.45">
      <text x="1087.4541" xml:space="preserve" y="896.6543" clip-path="url(#clipPath1)" stroke="none">domain</text>
    </g>
    <g text-rendering="geometricPrecision" stroke-miterlimit="1.45" shape-rendering="geometricPrecision" stroke-linecap="butt">
      <rect x="1025" y="722.5" clip-path="url(#clipPath1)" fill="none" width="175" rx="4" ry="4" height="30"/>
      <text x="1055.0898" y="741.6543" clip-path="url(#clipPath1)" font-family="'DejaVu Sans'" stroke="none" font-weight="bold" xml:space="preserve">maxCardinality 1</text>
    </g>
    <g fill="rgb(34,68,153)" text-rendering="geometricPrecision" shape-rendering="geometricPrecision" stroke="rgb(34,68,153)">
      <rect x="1435" y="660" clip-path="url(#clipPath1)" width="175" rx="4" ry="4" height="30" stroke="none"/>
    </g>
    <g stroke-linecap="butt" fill="white" text-rendering="geometricPrecision" font-family="'DejaVu Sans'" shape-rendering="geometricPrecision" stroke="white" font-weight="bold" stroke-miterlimit="1.45">
      <text x="1473.0703" xml:space="preserve" y="679.1543" clip-path="url(#clipPath1)" stroke="none">subPropertyOf</text>
    </g>
    <g fill="rgb(34,68,153)" text-rendering="geometricPrecision" shape-rendering="geometricPrecision" stroke="rgb(34,68,153)">
      <rect x="1640" y="660" clip-path="url(#clipPath1)" width="175" rx="4" ry="4" height="30" stroke="none"/>
    </g>
    <g stroke-linecap="butt" fill="white" text-rendering="geometricPrecision" font-family="'DejaVu Sans'" shape-rendering="geometricPrecision" stroke="white" font-weight="bold" stroke-miterlimit="1.45">
      <text x="1701.335" xml:space="preserve" y="679.1543" clip-path="url(#clipPath1)" stroke="none">hasPart</text>
    </g>
    <g fill="rgb(34,68,153)" text-rendering="geometricPrecision" shape-rendering="geometricPrecision" stroke="rgb(34,68,153)">
      <rect x="1435" y="830" clip-path="url(#clipPath1)" width="175" rx="4" ry="4" height="30" stroke="none"/>
    </g>
    <g stroke-linecap="butt" fill="white" text-rendering="geometricPrecision" font-family="'DejaVu Sans'" shape-rendering="geometricPrecision" stroke="white" font-weight="bold" stroke-miterlimit="1.45">
      <text x="1502.8564" xml:space="preserve" y="849.1543" clip-path="url(#clipPath1)" stroke="none">range</text>
    </g>
    <g fill="rgb(187,68,34)" text-rendering="geometricPrecision" shape-rendering="geometricPrecision" stroke="rgb(187,68,34)">
      <rect x="1640" y="720" clip-path="url(#clipPath1)" width="175" rx="4" ry="4" height="250" stroke="none"/>
    </g>
    <g stroke-linecap="butt" fill="white" text-rendering="geometricPrecision" font-family="'DejaVu Sans'" shape-rendering="geometricPrecision" stroke="white" font-weight="bold" stroke-miterlimit="1.45">
      <text x="1667.1543" xml:space="preserve" y="849.1543" clip-path="url(#clipPath1)" stroke="none">MethodologySpec</text>
    </g>
    <g stroke-linecap="butt" fill="rgb(34,68,153)" text-rendering="geometricPrecision" shape-rendering="geometricPrecision" stroke="rgb(34,68,153)" stroke-width="3" stroke-miterlimit="1.45">
      <path fill="none" d="M180.0181 15 L204.9909 15" clip-path="url(#clipPath1)"/>
      <path d="M170.0181 15 C170.0181 12.2386 172.2566 10 175.0181 10 C177.7795 10 180.0181 12.2386 180.0181 15 C180.0181 17.7614 177.7795 20 175.0181 20 C172.2566 20 170.0181 17.7614 170.0181 15 Z" clip-path="url(#clipPath1)" stroke="none"/>
      <path fill="none" d="M380.0104 15 L396.2351 15" clip-path="url(#clipPath1)"/>
      <path d="M409.9851 15 L394.9851 7.5 L394.9851 22.5 Z" clip-path="url(#clipPath1)" stroke="none"/>
      <path fill="none" d="M404.9822 742.5 L380.0093 742.5" clip-path="url(#clipPath1)"/>
      <path d="M414.9822 742.5 C414.9822 745.2614 412.7436 747.5 409.9822 747.5 C407.2208 747.5 404.9822 745.2614 404.9822 742.5 C404.9822 739.7386 407.2208 737.5 409.9822 737.5 C412.7436 737.5 414.9822 739.7386 414.9822 742.5 Z" clip-path="url(#clipPath1)" stroke="none"/>
      <path fill="none" d="M205.0126 742.5 L188.7495 742.5" clip-path="url(#clipPath1)"/>
      <path d="M174.9995 742.5 L189.9995 750 L189.9995 735 Z" clip-path="url(#clipPath1)" stroke="none"/>
      <path fill="none" d="M180.0095 287.5 L204.9845 287.5" clip-path="url(#clipPath1)"/>
      <path d="M170.0095 287.5 C170.0095 284.7386 172.248 282.5 175.0095 282.5 C177.7709 282.5 180.0095 284.7386 180.0095 287.5 C180.0095 290.2614 177.7709 292.5 175.0095 292.5 C172.248 292.5 170.0095 290.2614 170.0095 287.5 Z" clip-path="url(#clipPath1)" stroke="none"/>
      <path fill="none" d="M380.0212 287.5 L396.2481 287.5" clip-path="url(#clipPath1)"/>
      <path d="M409.9981 287.5 L394.9981 280 L394.9981 295 Z" clip-path="url(#clipPath1)" stroke="none"/>
      <path fill="none" d="M590.0265 75 L614.9971 75" clip-path="url(#clipPath1)"/>
      <path d="M580.0265 75 C580.0265 72.2386 582.2651 70 585.0265 70 C587.7879 70 590.0265 72.2386 590.0265 75 C590.0265 77.7614 587.7879 80 585.0265 80 C582.2651 80 580.0265 77.7614 580.0265 75 Z" clip-path="url(#clipPath1)" stroke="none"/>
      <path fill="none" d="M790.0104 75 L806.2352 75" clip-path="url(#clipPath1)"/>
      <path d="M819.9852 75 L804.9852 67.5 L804.9852 82.5 Z" clip-path="url(#clipPath1)" stroke="none"/>
      <path fill="none" d="M590.0166 135 L614.9897 135" clip-path="url(#clipPath1)"/>
      <path d="M580.0166 135 C580.0166 132.2386 582.2552 130 585.0166 130 C587.778 130 590.0166 132.2386 590.0166 135 C590.0166 137.7614 587.778 140 585.0166 140 C582.2552 140 580.0166 137.7614 580.0166 135 Z" clip-path="url(#clipPath1)" stroke="none"/>
      <path fill="none" d="M790.0104 135 L806.2352 135" clip-path="url(#clipPath1)"/>
      <path d="M819.9852 135 L804.9852 127.5 L804.9852 142.5 Z" clip-path="url(#clipPath1)" stroke="none"/>
      <path fill="none" d="M590.0127 575 L614.9869 575" clip-path="url(#clipPath1)"/>
      <path d="M580.0127 575 C580.0127 572.2386 582.2513 570 585.0127 570 C587.7741 570 590.0127 572.2386 590.0127 575 C590.0127 577.7614 587.7741 580 585.0127 580 C582.2513 580 580.0127 577.7614 580.0127 575 Z" clip-path="url(#clipPath1)" stroke="none"/>
      <path fill="none" d="M790.0104 575 L806.2352 575" clip-path="url(#clipPath1)"/>
      <path d="M819.9852 575 L804.9852 567.5 L804.9852 582.5 Z" clip-path="url(#clipPath1)" stroke="none"/>
      <path fill="none" d="M1000.0071 195 L1024.9827 195" clip-path="url(#clipPath1)"/>
      <path d="M990.0071 195 C990.0071 192.2386 992.2457 190 995.0071 190 C997.7685 190 1000.0071 192.2386 1000.0071 195 C1000.0071 197.7614 997.7685 200 995.0071 200 C992.2457 200 990.0071 197.7614 990.0071 195 Z" clip-path="url(#clipPath1)" stroke="none"/>
      <path fill="none" d="M1200.0104 195 L1216.2351 195" clip-path="url(#clipPath1)"/>
      <path d="M1229.9851 195 L1214.9851 187.5 L1214.9851 202.5 Z" clip-path="url(#clipPath1)" stroke="none"/>
      <path fill="none" d="M1224.9727 532.5 L1200.0022 532.5" clip-path="url(#clipPath1)"/>
      <path d="M1234.9727 532.5 C1234.9727 535.2614 1232.7341 537.5 1229.9727 537.5 C1227.2112 537.5 1224.9727 535.2614 1224.9727 532.5 C1224.9727 529.7386 1227.2112 527.5 1229.9727 527.5 C1232.7341 527.5 1234.9727 529.7386 1234.9727 532.5 Z" clip-path="url(#clipPath1)" stroke="none"/>
      <path fill="none" d="M1024.9946 532.5 L1008.7731 532.5" clip-path="url(#clipPath1)"/>
      <path d="M995.0231 532.5 L1010.0231 540 L1010.0231 525 Z" clip-path="url(#clipPath1)" stroke="none"/>
      <path fill="none" d="M1000.0157 337.5 L1024.9891 337.5" clip-path="url(#clipPath1)"/>
      <path d="M990.0157 337.5 C990.0157 334.7386 992.2543 332.5 995.0157 332.5 C997.7771 332.5 1000.0157 334.7386 1000.0157 337.5 C1000.0157 340.2614 997.7771 342.5 995.0157 342.5 C992.2543 342.5 990.0157 340.2614 990.0157 337.5 Z" clip-path="url(#clipPath1)" stroke="none"/>
      <path fill="none" d="M1199.9775 337.5 L1216.2372 337.5" clip-path="url(#clipPath1)"/>
      <path d="M1229.9872 337.5 L1214.9872 330 L1214.9872 345 Z" clip-path="url(#clipPath1)" stroke="none"/>
      <path fill="none" d="M1410.0046 255 L1434.9808 255" clip-path="url(#clipPath1)"/>
      <path d="M1400.0046 255 C1400.0046 252.2386 1402.2432 250 1405.0046 250 C1407.7661 250 1410.0046 252.2386 1410.0046 255 C1410.0046 257.7614 1407.7661 260 1405.0046 260 C1402.2432 260 1400.0046 257.7614 1400.0046 255 Z" clip-path="url(#clipPath1)" stroke="none"/>
      <path fill="none" d="M1610.0104 255 L1626.2351 255" clip-path="url(#clipPath1)"/>
      <path d="M1639.9851 255 L1624.9851 247.5 L1624.9851 262.5 Z" clip-path="url(#clipPath1)" stroke="none"/>
      <path fill="none" d="M1410.0046 465 L1434.9808 465" clip-path="url(#clipPath1)"/>
      <path d="M1400.0046 465 C1400.0046 462.2386 1402.2432 460 1405.0046 460 C1407.7661 460 1410.0046 462.2386 1410.0046 465 C1410.0046 467.7614 1407.7661 470 1405.0046 470 C1402.2432 470 1400.0046 467.7614 1400.0046 465 Z" clip-path="url(#clipPath1)" stroke="none"/>
      <path fill="none" d="M1610.0104 465 L1626.2351 465" clip-path="url(#clipPath1)"/>
      <path d="M1639.9851 465 L1624.9851 457.5 L1624.9851 472.5 Z" clip-path="url(#clipPath1)" stroke="none"/>
      <path fill="none" d="M1224.9727 892.5 L1200.0022 892.5" clip-path="url(#clipPath1)"/>
      <path d="M1234.9727 892.5 C1234.9727 895.2614 1232.7341 897.5 1229.9727 897.5 C1227.2112 897.5 1224.9727 895.2614 1224.9727 892.5 C1224.9727 889.7386 1227.2112 887.5 1229.9727 887.5 C1232.7341 887.5 1234.9727 889.7386 1234.9727 892.5 Z" clip-path="url(#clipPath1)" stroke="none"/>
      <path fill="none" d="M1025.0214 892.5 L1008.7612 892.5" clip-path="url(#clipPath1)"/>
      <path d="M995.0112 892.5 L1010.0112 900 L1010.0112 885 Z" clip-path="url(#clipPath1)" stroke="none"/>
      <path fill="none" d="M1000.0172 737.5 L1024.9902 737.5" clip-path="url(#clipPath1)"/>
      <path d="M990.0172 737.5 C990.0172 734.7386 992.2557 732.5 995.0172 732.5 C997.7786 732.5 1000.0172 734.7386 1000.0172 737.5 C1000.0172 740.2614 997.7786 742.5 995.0172 742.5 C992.2557 742.5 990.0172 740.2614 990.0172 737.5 Z" clip-path="url(#clipPath1)" stroke="none"/>
      <path fill="none" d="M1199.9812 737.5 L1216.2422 737.5" clip-path="url(#clipPath1)"/>
      <path d="M1229.9922 737.5 L1214.9922 730 L1214.9922 745 Z" clip-path="url(#clipPath1)" stroke="none"/>
      <path fill="none" d="M1410.0245 675 L1434.9957 675" clip-path="url(#clipPath1)"/>
      <path d="M1400.0245 675 C1400.0245 672.2386 1402.2631 670 1405.0245 670 C1407.786 670 1410.0245 672.2386 1410.0245 675 C1410.0245 677.7614 1407.786 680 1405.0245 680 C1402.2631 680 1400.0245 677.7614 1400.0245 675 Z" clip-path="url(#clipPath1)" stroke="none"/>
      <path fill="none" d="M1610.0104 675 L1626.2351 675" clip-path="url(#clipPath1)"/>
      <path d="M1639.9851 675 L1624.9851 667.5 L1624.9851 682.5 Z" clip-path="url(#clipPath1)" stroke="none"/>
      <path fill="none" d="M1410.0114 845 L1434.9858 845" clip-path="url(#clipPath1)"/>
      <path d="M1400.0114 845 C1400.0114 842.2386 1402.2499 840 1405.0114 840 C1407.7728 840 1410.0114 842.2386 1410.0114 845 C1410.0114 847.7614 1407.7728 850 1405.0114 850 C1402.2499 850 1400.0114 847.7614 1400.0114 845 Z" clip-path="url(#clipPath1)" stroke="none"/>
      <path fill="none" d="M1610.0104 845 L1626.2351 845" clip-path="url(#clipPath1)"/>
      <path d="M1639.9851 845 L1624.9851 837.5 L1624.9851 852.5 Z" clip-path="url(#clipPath1)" stroke="none"/>
    </g>
  </g>
</svg>
