<?xml version="1.0" encoding="UTF-8"?><svg xmlns="http://www.w3.org/2000/svg" xmlns:xlink="http://www.w3.org/1999/xlink" fill-opacity="1" color-rendering="auto" color-interpolation="auto" text-rendering="auto" stroke="black" stroke-linecap="square" width="1815" stroke-miterlimit="10" shape-rendering="auto" stroke-opacity="1" fill="black" stroke-dasharray="none" font-weight="normal" stroke-width="1" height="670" font-family="'Dialog'" font-style="normal" stroke-linejoin="miter" font-size="12px" stroke-dashoffset="0" image-rendering="auto">
  <!--Generated by ySVG 2.6-->
  <defs id="genericDefs"/>
  <g>
    <defs id="defs1">
      <clipPath clipPathUnits="userSpaceOnUse" id="clipPath1">
        <path d="M0 0 L1815 0 L1815 670 L0 670 L0 0 Z"/>
      </clipPath>
      <clipPath clipPathUnits="userSpaceOnUse" id="clipPath2">
        <path d="M1640 300 L3455 300 L3455 970 L1640 970 L1640 300 Z"/>
      </clipPath>
    </defs>
    <g fill="white" text-rendering="geometricPrecision" shape-rendering="geometricPrecision" transform="translate(-1640,-300)" stroke="white">
      <rect x="1640" width="1815" height="670" y="300" clip-path="url(#clipPath2)" stroke="none"/>
    </g>
    <g fill="silver" text-rendering="geometricPrecision" shape-rendering="geometricPrecision" transform="matrix(1,0,0,1,-1640,-300)" stroke="silver">
      <rect x="2460" y="900" clip-path="url(#clipPath2)" width="175" rx="4" ry="4" height="70" stroke="none"/>
      <rect stroke-linecap="butt" x="2460" y="900" clip-path="url(#clipPath2)" fill="none" width="175" rx="4" ry="4" height="70" stroke-width="5" stroke-miterlimit="1.45"/>
      <rect x="1640" y="300" clip-path="url(#clipPath2)" fill="rgb(187,68,34)" width="175" rx="4" ry="4" height="330" stroke="none"/>
    </g>
    <g stroke-linecap="butt" transform="matrix(1,0,0,1,-1640,-300)" fill="white" text-rendering="geometricPrecision" font-family="'DejaVu Sans'" shape-rendering="geometricPrecision" stroke="white" font-weight="bold" stroke-miterlimit="1.45">
      <text x="1670.9717" xml:space="preserve" y="469.1543" clip-path="url(#clipPath2)" stroke="none">ParameterUsage</text>
    </g>
    <g fill="rgb(34,68,153)" text-rendering="geometricPrecision" shape-rendering="geometricPrecision" transform="matrix(1,0,0,1,-1640,-300)" stroke="rgb(34,68,153)">
      <rect x="2050" y="300" clip-path="url(#clipPath2)" width="175" rx="4" ry="4" height="330" stroke="none"/>
    </g>
    <g stroke-linecap="butt" transform="matrix(1,0,0,1,-1640,-300)" fill="white" text-rendering="geometricPrecision" font-family="'DejaVu Sans'" shape-rendering="geometricPrecision" stroke="white" font-weight="bold" stroke-miterlimit="1.45">
      <text x="2086.3447" xml:space="preserve" y="469.1543" clip-path="url(#clipPath2)" stroke="none">usesParameter</text>
    </g>
    <g fill="rgb(34,68,153)" text-rendering="geometricPrecision" shape-rendering="geometricPrecision" transform="matrix(1,0,0,1,-1640,-300)" stroke="rgb(34,68,153)">
      <rect x="1845" y="532.5" clip-path="url(#clipPath2)" width="175" rx="4" ry="4" height="30" stroke="none"/>
    </g>
    <g stroke-linecap="butt" transform="matrix(1,0,0,1,-1640,-300)" fill="white" text-rendering="geometricPrecision" font-family="'DejaVu Sans'" shape-rendering="geometricPrecision" stroke="white" font-weight="bold" stroke-miterlimit="1.45">
      <text x="1907.4541" xml:space="preserve" y="551.6543" clip-path="url(#clipPath2)" stroke="none">domain</text>
    </g>
    <g text-rendering="geometricPrecision" stroke-miterlimit="1.45" shape-rendering="geometricPrecision" transform="matrix(1,0,0,1,-1640,-300)" stroke-linecap="butt">
      <rect x="1845" y="367.5" clip-path="url(#clipPath2)" fill="none" width="175" rx="4" ry="4" height="30"/>
      <text x="1890.1074" y="386.6543" clip-path="url(#clipPath2)" font-family="'DejaVu Sans'" stroke="none" font-weight="bold" xml:space="preserve">cardinality 1</text>
    </g>
    <g fill="rgb(34,68,153)" text-rendering="geometricPrecision" shape-rendering="geometricPrecision" transform="matrix(1,0,0,1,-1640,-300)" stroke="rgb(34,68,153)">
      <rect x="2255" y="480" clip-path="url(#clipPath2)" width="175" rx="4" ry="4" height="30" stroke="none"/>
    </g>
    <g stroke-linecap="butt" transform="matrix(1,0,0,1,-1640,-300)" fill="white" text-rendering="geometricPrecision" font-family="'DejaVu Sans'" shape-rendering="geometricPrecision" stroke="white" font-weight="bold" stroke-miterlimit="1.45">
      <text x="2322.8564" xml:space="preserve" y="499.1543" clip-path="url(#clipPath2)" stroke="none">range</text>
    </g>
    <g fill="rgb(34,68,153)" text-rendering="geometricPrecision" shape-rendering="geometricPrecision" transform="matrix(1,0,0,1,-1640,-300)" stroke="rgb(34,68,153)">
      <rect x="2255" y="300" clip-path="url(#clipPath2)" width="175" rx="4" ry="4" height="30" stroke="none"/>
    </g>
    <g stroke-linecap="butt" transform="matrix(1,0,0,1,-1640,-300)" fill="white" text-rendering="geometricPrecision" font-family="'DejaVu Sans'" shape-rendering="geometricPrecision" stroke="white" font-weight="bold" stroke-miterlimit="1.45">
      <text x="2293.0703" xml:space="preserve" y="319.1543" clip-path="url(#clipPath2)" stroke="none">subPropertyOf</text>
    </g>
    <g fill="rgb(34,68,153)" text-rendering="geometricPrecision" shape-rendering="geometricPrecision" transform="matrix(1,0,0,1,-1640,-300)" stroke="rgb(34,68,153)">
      <rect x="2460" y="300" clip-path="url(#clipPath2)" width="175" rx="4" ry="4" height="30" stroke="none"/>
    </g>
    <g stroke-linecap="butt" transform="matrix(1,0,0,1,-1640,-300)" fill="white" text-rendering="geometricPrecision" font-family="'DejaVu Sans'" shape-rendering="geometricPrecision" stroke="white" font-weight="bold" stroke-miterlimit="1.45">
      <text x="2521.335" xml:space="preserve" y="319.1543" clip-path="url(#clipPath2)" stroke="none">hasPart</text>
    </g>
    <g fill="rgb(187,68,34)" text-rendering="geometricPrecision" shape-rendering="geometricPrecision" transform="matrix(1,0,0,1,-1640,-300)" stroke="rgb(187,68,34)">
      <rect x="2460" y="360" clip-path="url(#clipPath2)" width="175" rx="4" ry="4" height="270" stroke="none"/>
    </g>
    <g stroke-linecap="butt" transform="matrix(1,0,0,1,-1640,-300)" fill="white" text-rendering="geometricPrecision" font-family="'DejaVu Sans'" shape-rendering="geometricPrecision" stroke="white" font-weight="bold" stroke-miterlimit="1.45">
      <text x="2473.0186" xml:space="preserve" y="499.1543" clip-path="url(#clipPath2)" stroke="none">ExperimentParameter</text>
    </g>
    <g fill="rgb(187,68,34)" text-rendering="geometricPrecision" shape-rendering="geometricPrecision" transform="matrix(1,0,0,1,-1640,-300)" stroke="rgb(187,68,34)">
      <rect x="2870" y="420" clip-path="url(#clipPath2)" width="175" rx="4" ry="4" height="30" stroke="none"/>
    </g>
    <g stroke-linecap="butt" transform="matrix(1,0,0,1,-1640,-300)" fill="white" text-rendering="geometricPrecision" font-family="'DejaVu Sans'" shape-rendering="geometricPrecision" stroke="white" font-weight="bold" stroke-miterlimit="1.45">
      <text x="2933.1865" xml:space="preserve" y="439.1543" clip-path="url(#clipPath2)" stroke="none">Quality</text>
    </g>
    <g fill="rgb(34,68,153)" text-rendering="geometricPrecision" shape-rendering="geometricPrecision" transform="matrix(1,0,0,1,-1640,-300)" stroke="rgb(34,68,153)">
      <rect x="2665" y="420" clip-path="url(#clipPath2)" width="175" rx="4" ry="4" height="30" stroke="none"/>
    </g>
    <g stroke-linecap="butt" transform="matrix(1,0,0,1,-1640,-300)" fill="white" text-rendering="geometricPrecision" font-family="'DejaVu Sans'" shape-rendering="geometricPrecision" stroke="white" font-weight="bold" stroke-miterlimit="1.45">
      <text x="2715" xml:space="preserve" y="439.1543" clip-path="url(#clipPath2)" stroke="none">subClassOf</text>
    </g>
    <g fill="rgb(187,68,34)" text-rendering="geometricPrecision" shape-rendering="geometricPrecision" transform="matrix(1,0,0,1,-1640,-300)" stroke="rgb(187,68,34)">
      <rect x="2870" y="360" clip-path="url(#clipPath2)" width="175" rx="4" ry="4" height="30" stroke="none"/>
    </g>
    <g stroke-linecap="butt" transform="matrix(1,0,0,1,-1640,-300)" fill="white" text-rendering="geometricPrecision" font-family="'DejaVu Sans'" shape-rendering="geometricPrecision" stroke="white" font-weight="bold" stroke-miterlimit="1.45">
      <text x="2889.543" xml:space="preserve" y="379.1543" clip-path="url(#clipPath2)" stroke="none">ObservableProperty</text>
    </g>
    <g fill="rgb(34,68,153)" text-rendering="geometricPrecision" shape-rendering="geometricPrecision" transform="matrix(1,0,0,1,-1640,-300)" stroke="rgb(34,68,153)">
      <rect x="2665" y="360" clip-path="url(#clipPath2)" width="175" rx="4" ry="4" height="30" stroke="none"/>
    </g>
    <g stroke-linecap="butt" transform="matrix(1,0,0,1,-1640,-300)" fill="white" text-rendering="geometricPrecision" font-family="'DejaVu Sans'" shape-rendering="geometricPrecision" stroke="white" font-weight="bold" stroke-miterlimit="1.45">
      <text x="2715" xml:space="preserve" y="379.1543" clip-path="url(#clipPath2)" stroke="none">subClassOf</text>
    </g>
    <g text-rendering="geometricPrecision" stroke-miterlimit="1.45" shape-rendering="geometricPrecision" transform="matrix(1,0,0,1,-1640,-300)" stroke-linecap="butt">
      <rect x="2870" y="480" clip-path="url(#clipPath2)" fill="none" width="175" rx="4" ry="4" height="150"/>
    </g>
    <g fill="rgb(34,68,153)" text-rendering="geometricPrecision" shape-rendering="geometricPrecision" transform="matrix(1,0,0,1,-1640,-300)" stroke="rgb(34,68,153)">
      <rect x="2665" y="540" clip-path="url(#clipPath2)" width="175" rx="4" ry="4" height="30" stroke="none"/>
    </g>
    <g stroke-linecap="butt" transform="matrix(1,0,0,1,-1640,-300)" fill="white" text-rendering="geometricPrecision" font-family="'DejaVu Sans'" shape-rendering="geometricPrecision" stroke="white" font-weight="bold" stroke-miterlimit="1.45">
      <text x="2715" xml:space="preserve" y="559.1543" clip-path="url(#clipPath2)" stroke="none">subClassOf</text>
    </g>
    <g fill="rgb(34,68,153)" text-rendering="geometricPrecision" shape-rendering="geometricPrecision" transform="matrix(1,0,0,1,-1640,-300)" stroke="rgb(34,68,153)">
      <rect x="3075" y="600" clip-path="url(#clipPath2)" width="175" rx="4" ry="4" height="30" stroke="none"/>
    </g>
    <g stroke-linecap="butt" transform="matrix(1,0,0,1,-1640,-300)" fill="white" text-rendering="geometricPrecision" font-family="'DejaVu Sans'" shape-rendering="geometricPrecision" stroke="white" font-weight="bold" stroke-miterlimit="1.45">
      <text x="3131.5186" xml:space="preserve" y="619.1543" clip-path="url(#clipPath2)" stroke="none">hasValue</text>
    </g>
    <g fill="rgb(34,68,153)" text-rendering="geometricPrecision" shape-rendering="geometricPrecision" transform="matrix(1,0,0,1,-1640,-300)" stroke="rgb(34,68,153)">
      <rect x="3075" y="540" clip-path="url(#clipPath2)" width="175" rx="4" ry="4" height="30" stroke="none"/>
    </g>
    <g stroke-linecap="butt" transform="matrix(1,0,0,1,-1640,-300)" fill="white" text-rendering="geometricPrecision" font-family="'DejaVu Sans'" shape-rendering="geometricPrecision" stroke="white" font-weight="bold" stroke-miterlimit="1.45">
      <text x="3124.5254" xml:space="preserve" y="559.1543" clip-path="url(#clipPath2)" stroke="none">onProperty</text>
    </g>
    <g fill="rgb(34,68,153)" text-rendering="geometricPrecision" shape-rendering="geometricPrecision" transform="matrix(1,0,0,1,-1640,-300)" stroke="rgb(34,68,153)">
      <rect x="3280" y="540" clip-path="url(#clipPath2)" width="175" rx="4" ry="4" height="30" stroke="none"/>
    </g>
    <g stroke-linecap="butt" transform="matrix(1,0,0,1,-1640,-300)" fill="white" text-rendering="geometricPrecision" font-family="'DejaVu Sans'" shape-rendering="geometricPrecision" stroke="white" font-weight="bold" stroke-miterlimit="1.45">
      <text x="3342.4541" xml:space="preserve" y="559.1543" clip-path="url(#clipPath2)" stroke="none">domain</text>
    </g>
    <g fill="rgb(187,68,34)" text-rendering="geometricPrecision" shape-rendering="geometricPrecision" transform="matrix(1,0,0,1,-1640,-300)" stroke="rgb(187,68,34)">
      <rect x="3280" y="600" clip-path="url(#clipPath2)" width="175" rx="4" ry="4" height="30" stroke="none"/>
    </g>
    <g stroke-linecap="butt" transform="matrix(1,0,0,1,-1640,-300)" fill="white" text-rendering="geometricPrecision" font-family="'DejaVu Sans'" shape-rendering="geometricPrecision" stroke="white" font-weight="bold" stroke-miterlimit="1.45">
      <text x="3315.5273" xml:space="preserve" y="619.1543" clip-path="url(#clipPath2)" stroke="none">ExperimentRun</text>
    </g>
    <g fill="rgb(34,68,153)" text-rendering="geometricPrecision" shape-rendering="geometricPrecision" transform="matrix(1,0,0,1,-1640,-300)" stroke="rgb(34,68,153)">
      <rect x="3075" y="480" clip-path="url(#clipPath2)" width="175" rx="4" ry="4" height="30" stroke="none"/>
    </g>
    <g stroke-linecap="butt" transform="matrix(1,0,0,1,-1640,-300)" fill="white" text-rendering="geometricPrecision" font-family="'DejaVu Sans'" shape-rendering="geometricPrecision" stroke="white" font-weight="bold" stroke-miterlimit="1.45">
      <text x="3147.3564" xml:space="preserve" y="499.1543" clip-path="url(#clipPath2)" stroke="none">type</text>
    </g>
    <g fill="rgb(187,68,34)" text-rendering="geometricPrecision" shape-rendering="geometricPrecision" transform="matrix(1,0,0,1,-1640,-300)" stroke="rgb(187,68,34)">
      <rect x="3280" y="480" clip-path="url(#clipPath2)" width="175" rx="4" ry="4" height="30" stroke="none"/>
    </g>
    <g stroke-linecap="butt" transform="matrix(1,0,0,1,-1640,-300)" fill="white" text-rendering="geometricPrecision" font-family="'DejaVu Sans'" shape-rendering="geometricPrecision" stroke="white" font-weight="bold" stroke-miterlimit="1.45">
      <text x="3330.4805" xml:space="preserve" y="499.1543" clip-path="url(#clipPath2)" stroke="none">Restriction</text>
    </g>
    <g fill="rgb(187,68,34)" text-rendering="geometricPrecision" shape-rendering="geometricPrecision" transform="matrix(1,0,0,1,-1640,-300)" stroke="rgb(187,68,34)">
      <rect x="1640" y="720" clip-path="url(#clipPath2)" width="175" rx="4" ry="4" height="250" stroke="none"/>
    </g>
    <g stroke-linecap="butt" transform="matrix(1,0,0,1,-1640,-300)" fill="white" text-rendering="geometricPrecision" font-family="'DejaVu Sans'" shape-rendering="geometricPrecision" stroke="white" font-weight="bold" stroke-miterlimit="1.45">
      <text x="1667.1543" xml:space="preserve" y="849.1543" clip-path="url(#clipPath2)" stroke="none">MethodologySpec</text>
    </g>
    <g fill="rgb(187,68,34)" text-rendering="geometricPrecision" shape-rendering="geometricPrecision" transform="matrix(1,0,0,1,-1640,-300)" stroke="rgb(187,68,34)">
      <rect x="2050" y="720" clip-path="url(#clipPath2)" width="175" rx="4" ry="4" height="30" stroke="none"/>
    </g>
    <g stroke-linecap="butt" transform="matrix(1,0,0,1,-1640,-300)" fill="white" text-rendering="geometricPrecision" font-family="'DejaVu Sans'" shape-rendering="geometricPrecision" stroke="white" font-weight="bold" stroke-miterlimit="1.45">
      <text x="2078.8359" xml:space="preserve" y="739.1543" clip-path="url(#clipPath2)" stroke="none">PlanSpecification</text>
    </g>
    <g fill="rgb(34,68,153)" text-rendering="geometricPrecision" shape-rendering="geometricPrecision" transform="matrix(1,0,0,1,-1640,-300)" stroke="rgb(34,68,153)">
      <rect x="1845" y="720" clip-path="url(#clipPath2)" width="175" rx="4" ry="4" height="30" stroke="none"/>
    </g>
    <g stroke-linecap="butt" transform="matrix(1,0,0,1,-1640,-300)" fill="white" text-rendering="geometricPrecision" font-family="'DejaVu Sans'" shape-rendering="geometricPrecision" stroke="white" font-weight="bold" stroke-miterlimit="1.45">
      <text x="1895" xml:space="preserve" y="739.1543" clip-path="url(#clipPath2)" stroke="none">subClassOf</text>
    </g>
    <g fill="rgb(34,68,153)" text-rendering="geometricPrecision" shape-rendering="geometricPrecision" transform="matrix(1,0,0,1,-1640,-300)" stroke="rgb(34,68,153)">
      <rect x="1845" y="860" clip-path="url(#clipPath2)" width="175" rx="4" ry="4" height="30" stroke="none"/>
    </g>
    <g stroke-linecap="butt" transform="matrix(1,0,0,1,-1640,-300)" fill="white" text-rendering="geometricPrecision" font-family="'DejaVu Sans'" shape-rendering="geometricPrecision" stroke="white" font-weight="bold" stroke-miterlimit="1.45">
      <text x="1895" xml:space="preserve" y="879.1543" clip-path="url(#clipPath2)" stroke="none">subClassOf</text>
    </g>
    <g text-rendering="geometricPrecision" stroke-miterlimit="1.45" shape-rendering="geometricPrecision" transform="matrix(1,0,0,1,-1640,-300)" stroke-linecap="butt">
      <rect x="2050" y="780" clip-path="url(#clipPath2)" fill="none" width="175" rx="4" ry="4" height="190"/>
    </g>
    <g fill="rgb(34,68,153)" text-rendering="geometricPrecision" shape-rendering="geometricPrecision" transform="matrix(1,0,0,1,-1640,-300)" stroke="rgb(34,68,153)">
      <rect x="2255" y="920" clip-path="url(#clipPath2)" width="175" rx="4" ry="4" height="30" stroke="none"/>
    </g>
    <g stroke-linecap="butt" transform="matrix(1,0,0,1,-1640,-300)" fill="white" text-rendering="geometricPrecision" font-family="'DejaVu Sans'" shape-rendering="geometricPrecision" stroke="white" font-weight="bold" stroke-miterlimit="1.45">
      <text x="2284.3926" xml:space="preserve" y="939.1543" clip-path="url(#clipPath2)" stroke="none">someValuesFrom</text>
    </g>
    <g fill="rgb(34,68,153)" text-rendering="geometricPrecision" shape-rendering="geometricPrecision" transform="matrix(1,0,0,1,-1640,-300)" stroke="rgb(34,68,153)">
      <rect x="2255" y="840" clip-path="url(#clipPath2)" width="175" rx="4" ry="4" height="30" stroke="none"/>
    </g>
    <g stroke-linecap="butt" transform="matrix(1,0,0,1,-1640,-300)" fill="white" text-rendering="geometricPrecision" font-family="'DejaVu Sans'" shape-rendering="geometricPrecision" stroke="white" font-weight="bold" stroke-miterlimit="1.45">
      <text x="2304.5254" xml:space="preserve" y="859.1543" clip-path="url(#clipPath2)" stroke="none">onProperty</text>
    </g>
    <g fill="rgb(34,68,153)" text-rendering="geometricPrecision" shape-rendering="geometricPrecision" transform="matrix(1,0,0,1,-1640,-300)" stroke="rgb(34,68,153)">
      <rect x="2460" y="840" clip-path="url(#clipPath2)" width="175" rx="4" ry="4" height="30" stroke="none"/>
    </g>
    <g stroke-linecap="butt" transform="matrix(1,0,0,1,-1640,-300)" fill="white" text-rendering="geometricPrecision" font-family="'DejaVu Sans'" shape-rendering="geometricPrecision" stroke="white" font-weight="bold" stroke-miterlimit="1.45">
      <text x="2521.335" xml:space="preserve" y="859.1543" clip-path="url(#clipPath2)" stroke="none">hasPart</text>
    </g>
    <g fill="rgb(187,68,34)" text-rendering="geometricPrecision" shape-rendering="geometricPrecision" transform="matrix(1,0,0,1,-1640,-300)" stroke="rgb(187,68,34)">
      <rect x="2460" y="900" clip-path="url(#clipPath2)" width="175" rx="4" ry="4" height="30" stroke="none"/>
    </g>
    <g stroke-linecap="butt" transform="matrix(1,0,0,1,-1640,-300)" fill="white" text-rendering="geometricPrecision" font-family="'DejaVu Sans'" shape-rendering="geometricPrecision" stroke="white" font-weight="bold" stroke-miterlimit="1.45">
      <text x="2471.627" xml:space="preserve" y="919.1543" clip-path="url(#clipPath2)" stroke="none">ObjectiveSpecification</text>
    </g>
    <g fill="rgb(34,68,153)" text-rendering="geometricPrecision" shape-rendering="geometricPrecision" transform="matrix(1,0,0,1,-1640,-300)" stroke="rgb(34,68,153)">
      <rect x="2255" y="780" clip-path="url(#clipPath2)" width="175" rx="4" ry="4" height="30" stroke="none"/>
    </g>
    <g stroke-linecap="butt" transform="matrix(1,0,0,1,-1640,-300)" fill="white" text-rendering="geometricPrecision" font-family="'DejaVu Sans'" shape-rendering="geometricPrecision" stroke="white" font-weight="bold" stroke-miterlimit="1.45">
      <text x="2327.3564" xml:space="preserve" y="799.1543" clip-path="url(#clipPath2)" stroke="none">type</text>
    </g>
    <g fill="rgb(187,68,34)" text-rendering="geometricPrecision" shape-rendering="geometricPrecision" transform="matrix(1,0,0,1,-1640,-300)" stroke="rgb(187,68,34)">
      <rect x="2460" y="780" clip-path="url(#clipPath2)" width="175" rx="4" ry="4" height="30" stroke="none"/>
    </g>
    <g stroke-linecap="butt" transform="matrix(1,0,0,1,-1640,-300)" fill="white" text-rendering="geometricPrecision" font-family="'DejaVu Sans'" shape-rendering="geometricPrecision" stroke="white" font-weight="bold" stroke-miterlimit="1.45">
      <text x="2510.4805" xml:space="preserve" y="799.1543" clip-path="url(#clipPath2)" stroke="none">Restriction</text>
    </g>
    <g fill="rgb(187,68,34)" text-rendering="geometricPrecision" shape-rendering="geometricPrecision" transform="matrix(1,0,0,1,-1640,-300)" stroke="rgb(187,68,34)">
      <rect x="2460" y="940" clip-path="url(#clipPath2)" width="175" rx="4" ry="4" height="30" stroke="none"/>
    </g>
    <g stroke-linecap="butt" transform="matrix(1,0,0,1,-1640,-300)" fill="white" text-rendering="geometricPrecision" font-family="'DejaVu Sans'" shape-rendering="geometricPrecision" stroke="white" font-weight="bold" stroke-miterlimit="1.45">
      <text x="2519.2959" xml:space="preserve" y="959.1543" clip-path="url(#clipPath2)" stroke="none">Protocol</text>
    </g>
    <g stroke-linecap="butt" transform="matrix(1,0,0,1,-1640,-300)" fill="rgb(34,68,153)" text-rendering="geometricPrecision" shape-rendering="geometricPrecision" stroke="rgb(34,68,153)" stroke-width="3" stroke-miterlimit="1.45">
      <path fill="none" d="M2044.9795 547.5 L2020.0073 547.5" clip-path="url(#clipPath2)"/>
      <path d="M2054.9795 547.5 C2054.9795 550.2614 2052.741 552.5 2049.9795 552.5 C2047.218 552.5 2044.9795 550.2614 2044.9795 547.5 C2044.9795 544.7386 2047.218 542.5 2049.9795 542.5 C2052.741 542.5 2054.9795 544.7386 2054.9795 547.5 Z" clip-path="url(#clipPath2)" stroke="none"/>
      <path fill="none" d="M1845.0231 547.5 L1828.7637 547.5" clip-path="url(#clipPath2)"/>
      <path d="M1815.0137 547.5 L1830.0137 555 L1830.0137 540 Z" clip-path="url(#clipPath2)" stroke="none"/>
      <path fill="none" d="M1820.0211 382.5 L1844.9932 382.5" clip-path="url(#clipPath2)"/>
      <path d="M1810.0211 382.5 C1810.0211 379.7386 1812.2596 377.5 1815.0211 377.5 C1817.7826 377.5 1820.0211 379.7386 1820.0211 382.5 C1820.0211 385.2614 1817.7826 387.5 1815.0211 387.5 C1812.2596 387.5 1810.0211 385.2614 1810.0211 382.5 Z" clip-path="url(#clipPath2)" stroke="none"/>
      <path fill="none" d="M2020.0189 382.5 L2036.245 382.5" clip-path="url(#clipPath2)"/>
      <path d="M2049.9951 382.5 L2034.9951 375 L2034.9951 390 Z" clip-path="url(#clipPath2)" stroke="none"/>
      <path fill="none" d="M2230.0073 495 L2254.9829 495" clip-path="url(#clipPath2)"/>
      <path d="M2220.0073 495 C2220.0073 492.2386 2222.2458 490 2225.0073 490 C2227.7688 490 2230.0073 492.2386 2230.0073 495 C2230.0073 497.7614 2227.7688 500 2225.0073 500 C2222.2458 500 2220.0073 497.7614 2220.0073 495 Z" clip-path="url(#clipPath2)" stroke="none"/>
      <path fill="none" d="M2230.0073 315 L2254.9829 315" clip-path="url(#clipPath2)"/>
      <path d="M2220.0073 315 C2220.0073 312.2386 2222.2458 310 2225.0073 310 C2227.7688 310 2230.0073 312.2386 2230.0073 315 C2230.0073 317.7614 2227.7688 320 2225.0073 320 C2222.2458 320 2220.0073 317.7614 2220.0073 315 Z" clip-path="url(#clipPath2)" stroke="none"/>
      <path fill="none" d="M2430.0103 315 L2446.2351 315" clip-path="url(#clipPath2)"/>
      <path d="M2459.9851 315 L2444.9851 307.5 L2444.9851 322.5 Z" clip-path="url(#clipPath2)" stroke="none"/>
      <path fill="none" d="M2430.0103 495 L2446.2351 495" clip-path="url(#clipPath2)"/>
      <path d="M2459.9851 495 L2444.9851 487.5 L2444.9851 502.5 Z" clip-path="url(#clipPath2)" stroke="none"/>
      <path fill="none" d="M2640.0132 435 L2664.9873 435" clip-path="url(#clipPath2)"/>
      <path d="M2630.0132 435 C2630.0132 432.2386 2632.2517 430 2635.0132 430 C2637.7747 430 2640.0132 432.2386 2640.0132 435 C2640.0132 437.7614 2637.7747 440 2635.0132 440 C2632.2517 440 2630.0132 437.7614 2630.0132 435 Z" clip-path="url(#clipPath2)" stroke="none"/>
      <path fill="none" d="M2840.0103 435 L2856.2351 435" clip-path="url(#clipPath2)"/>
      <path d="M2869.9851 435 L2854.9851 427.5 L2854.9851 442.5 Z" clip-path="url(#clipPath2)" stroke="none"/>
      <path fill="none" d="M2640.0032 375 L2664.9797 375" clip-path="url(#clipPath2)"/>
      <path d="M2630.0032 375 C2630.0032 372.2386 2632.2417 370 2635.0032 370 C2637.7646 370 2640.0032 372.2386 2640.0032 375 C2640.0032 377.7614 2637.7646 380 2635.0032 380 C2632.2417 380 2630.0032 377.7614 2630.0032 375 Z" clip-path="url(#clipPath2)" stroke="none"/>
      <path fill="none" d="M2840.0103 375 L2856.2351 375" clip-path="url(#clipPath2)"/>
      <path d="M2869.9851 375 L2854.9851 367.5 L2854.9851 382.5 Z" clip-path="url(#clipPath2)" stroke="none"/>
      <path fill="none" d="M2640.0132 555 L2664.9873 555" clip-path="url(#clipPath2)"/>
      <path d="M2630.0132 555 C2630.0132 552.2386 2632.2517 550 2635.0132 550 C2637.7747 550 2640.0132 552.2386 2640.0132 555 C2640.0132 557.7614 2637.7747 560 2635.0132 560 C2632.2517 560 2630.0132 557.7614 2630.0132 555 Z" clip-path="url(#clipPath2)" stroke="none"/>
      <path fill="none" d="M2840.0103 555 L2856.2351 555" clip-path="url(#clipPath2)"/>
      <path d="M2869.9851 555 L2854.9851 547.5 L2854.9851 562.5 Z" clip-path="url(#clipPath2)" stroke="none"/>
      <path fill="none" d="M3050.0212 615 L3074.9932 615" clip-path="url(#clipPath2)"/>
      <path d="M3040.0212 615 C3040.0212 612.2386 3042.2598 610 3045.0212 610 C3047.7827 610 3050.0212 612.2386 3050.0212 615 C3050.0212 617.7614 3047.7827 620 3045.0212 620 C3042.2598 620 3040.0212 617.7614 3040.0212 615 Z" clip-path="url(#clipPath2)" stroke="none"/>
      <path fill="none" d="M3049.9836 555 L3075.0225 555" clip-path="url(#clipPath2)"/>
      <path d="M3039.9836 555 C3039.9836 552.2386 3042.2222 550 3044.9836 550 C3047.7451 550 3049.9836 552.2386 3049.9836 555 C3049.9836 557.7614 3047.7451 560 3044.9836 560 C3042.2222 560 3039.9836 557.7614 3039.9836 555 Z" clip-path="url(#clipPath2)" stroke="none"/>
      <path fill="none" d="M3250.0103 555 L3266.2351 555" clip-path="url(#clipPath2)"/>
      <path d="M3279.9851 555 L3264.9851 547.5 L3264.9851 562.5 Z" clip-path="url(#clipPath2)" stroke="none"/>
      <path fill="none" d="M3250.0103 615 L3266.2351 615" clip-path="url(#clipPath2)"/>
      <path d="M3279.9851 615 L3264.9851 607.5 L3264.9851 622.5 Z" clip-path="url(#clipPath2)" stroke="none"/>
      <path fill="none" d="M3050.0212 495 L3074.9932 495" clip-path="url(#clipPath2)"/>
      <path d="M3040.0212 495 C3040.0212 492.2386 3042.2598 490 3045.0212 490 C3047.7827 490 3050.0212 492.2386 3050.0212 495 C3050.0212 497.7614 3047.7827 500 3045.0212 500 C3042.2598 500 3040.0212 497.7614 3040.0212 495 Z" clip-path="url(#clipPath2)" stroke="none"/>
      <path fill="none" d="M3250.0103 495 L3266.2351 495" clip-path="url(#clipPath2)"/>
      <path d="M3279.9851 495 L3264.9851 487.5 L3264.9851 502.5 Z" clip-path="url(#clipPath2)" stroke="none"/>
      <path fill="none" d="M1819.9958 735 L1844.9744 735" clip-path="url(#clipPath2)"/>
      <path d="M1809.9958 735 C1809.9958 732.2386 1812.2344 730 1814.9958 730 C1817.7573 730 1819.9958 732.2386 1819.9958 735 C1819.9958 737.7614 1817.7573 740 1814.9958 740 C1812.2344 740 1809.9958 737.7614 1809.9958 735 Z" clip-path="url(#clipPath2)" stroke="none"/>
      <path fill="none" d="M2020.0104 735 L2036.2351 735" clip-path="url(#clipPath2)"/>
      <path d="M2049.9851 735 L2034.9851 727.5 L2034.9851 742.5 Z" clip-path="url(#clipPath2)" stroke="none"/>
      <path fill="none" d="M1820.0331 875 L1845.0021 875" clip-path="url(#clipPath2)"/>
      <path d="M1810.0331 875 C1810.0331 872.2386 1812.2716 870 1815.0331 870 C1817.7946 870 1820.0331 872.2386 1820.0331 875 C1820.0331 877.7614 1817.7946 880 1815.0331 880 C1812.2716 880 1810.0331 877.7614 1810.0331 875 Z" clip-path="url(#clipPath2)" stroke="none"/>
      <path fill="none" d="M2020.0104 875 L2036.2351 875" clip-path="url(#clipPath2)"/>
      <path d="M2049.9851 875 L2034.9851 867.5 L2034.9851 882.5 Z" clip-path="url(#clipPath2)" stroke="none"/>
      <path fill="none" d="M2230.0251 935 L2254.9961 935" clip-path="url(#clipPath2)"/>
      <path d="M2220.0251 935 C2220.0251 932.2386 2222.2637 930 2225.0251 930 C2227.7866 930 2230.0251 932.2386 2230.0251 935 C2230.0251 937.7614 2227.7866 940 2225.0251 940 C2222.2637 940 2220.0251 937.7614 2220.0251 935 Z" clip-path="url(#clipPath2)" stroke="none"/>
      <path fill="none" d="M2430.0103 935 L2446.2351 935" clip-path="url(#clipPath2)"/>
      <path d="M2459.9851 935 L2444.9851 927.5 L2444.9851 942.5 Z" clip-path="url(#clipPath2)" stroke="none"/>
      <path fill="none" d="M2230.0066 855 L2254.9824 855" clip-path="url(#clipPath2)"/>
      <path d="M2220.0066 855 C2220.0066 852.2386 2222.2451 850 2225.0066 850 C2227.7681 850 2230.0066 852.2386 2230.0066 855 C2230.0066 857.7614 2227.7681 860 2225.0066 860 C2222.2451 860 2220.0066 857.7614 2220.0066 855 Z" clip-path="url(#clipPath2)" stroke="none"/>
      <path fill="none" d="M2430.0103 855 L2446.2351 855" clip-path="url(#clipPath2)"/>
      <path d="M2459.9851 855 L2444.9851 847.5 L2444.9851 862.5 Z" clip-path="url(#clipPath2)" stroke="none"/>
      <path fill="none" d="M2230.0251 795 L2254.9961 795" clip-path="url(#clipPath2)"/>
      <path d="M2220.0251 795 C2220.0251 792.2386 2222.2637 790 2225.0251 790 C2227.7866 790 2230.0251 792.2386 2230.0251 795 C2230.0251 797.7614 2227.7866 800 2225.0251 800 C2222.2637 800 2220.0251 797.7614 2220.0251 795 Z" clip-path="url(#clipPath2)" stroke="none"/>
      <path fill="none" d="M2430.0103 795 L2446.2351 795" clip-path="url(#clipPath2)"/>
      <path d="M2459.9851 795 L2444.9851 787.5 L2444.9851 802.5 Z" clip-path="url(#clipPath2)" stroke="none"/>
    </g>
  </g>
</svg>
