<?xml version="1.0" encoding="UTF-8"?><svg xmlns="http://www.w3.org/2000/svg" xmlns:xlink="http://www.w3.org/1999/xlink" fill-opacity="1" color-rendering="auto" color-interpolation="auto" text-rendering="auto" stroke="black" stroke-linecap="square" width="1405" stroke-miterlimit="10" shape-rendering="auto" stroke-opacity="1" fill="black" stroke-dasharray="none" font-weight="normal" stroke-width="1" height="570" font-family="'Dialog'" font-style="normal" stroke-linejoin="miter" font-size="12px" stroke-dashoffset="0" image-rendering="auto">
  <!--Generated by ySVG 2.6-->
  <defs id="genericDefs"/>
  <g>
    <defs id="defs1">
      <clipPath clipPathUnits="userSpaceOnUse" id="clipPath1">
        <path d="M0 0 L1405 0 L1405 570 L0 570 L0 0 Z"/>
      </clipPath>
    </defs>
    <g fill="white" text-rendering="geometricPrecision" shape-rendering="geometricPrecision" stroke="white">
      <rect x="0" width="1405" height="570" y="0" clip-path="url(#clipPath1)" stroke="none"/>
    </g>
    <g fill="silver" text-rendering="geometricPrecision" shape-rendering="geometricPrecision" stroke="silver">
      <rect x="820" y="120" clip-path="url(#clipPath1)" width="175" rx="4" ry="4" height="270" stroke="none"/>
      <rect stroke-linecap="butt" x="820" y="120" clip-path="url(#clipPath1)" fill="none" width="175" rx="4" ry="4" height="270" stroke-width="5" stroke-miterlimit="1.45"/>
      <rect x="0" y="0" clip-path="url(#clipPath1)" fill="rgb(34,68,153)" width="175" rx="4" ry="4" height="570" stroke="none"/>
    </g>
    <g stroke-linecap="butt" fill="white" text-rendering="geometricPrecision" font-family="'DejaVu Sans'" shape-rendering="geometricPrecision" stroke="white" font-weight="bold" stroke-miterlimit="1.45">
      <text x="36.1807" xml:space="preserve" y="289.1543" clip-path="url(#clipPath1)" stroke="none">observedRobot</text>
    </g>
    <g fill="rgb(187,68,34)" text-rendering="geometricPrecision" shape-rendering="geometricPrecision" stroke="rgb(187,68,34)">
      <rect x="410" y="0" clip-path="url(#clipPath1)" width="175" rx="4" ry="4" height="30" stroke="none"/>
    </g>
    <g stroke-linecap="butt" fill="white" text-rendering="geometricPrecision" font-family="'DejaVu Sans'" shape-rendering="geometricPrecision" stroke="white" font-weight="bold" stroke-miterlimit="1.45">
      <text x="423.0186" xml:space="preserve" y="19.1543" clip-path="url(#clipPath1)" stroke="none">ExperimentParameter</text>
    </g>
    <g fill="rgb(187,68,34)" text-rendering="geometricPrecision" shape-rendering="geometricPrecision" stroke="rgb(187,68,34)">
      <rect x="410" y="60" clip-path="url(#clipPath1)" width="175" rx="4" ry="4" height="30" stroke="none"/>
    </g>
    <g stroke-linecap="butt" fill="white" text-rendering="geometricPrecision" font-family="'DejaVu Sans'" shape-rendering="geometricPrecision" stroke="white" font-weight="bold" stroke-miterlimit="1.45">
      <text x="445.9727" xml:space="preserve" y="79.1543" clip-path="url(#clipPath1)" stroke="none">ObjectProperty</text>
    </g>
    <g fill="rgb(187,68,34)" text-rendering="geometricPrecision" shape-rendering="geometricPrecision" stroke="rgb(187,68,34)">
      <rect x="410" y="120" clip-path="url(#clipPath1)" width="175" rx="4" ry="4" height="450" stroke="none"/>
    </g>
    <g stroke-linecap="butt" fill="white" text-rendering="geometricPrecision" font-family="'DejaVu Sans'" shape-rendering="geometricPrecision" stroke="white" font-weight="bold" stroke-miterlimit="1.45">
      <text x="446.2861" xml:space="preserve" y="349.1543" clip-path="url(#clipPath1)" stroke="none">AvailableRobot</text>
    </g>
    <g fill="rgb(187,68,34)" text-rendering="geometricPrecision" shape-rendering="geometricPrecision" stroke="rgb(187,68,34)">
      <rect x="820" y="120" clip-path="url(#clipPath1)" width="175" rx="4" ry="4" height="150" stroke="none"/>
    </g>
    <g stroke-linecap="butt" fill="white" text-rendering="geometricPrecision" font-family="'DejaVu Sans'" shape-rendering="geometricPrecision" stroke="white" font-weight="bold" stroke-miterlimit="1.45">
      <text x="881.0801" xml:space="preserve" y="199.1543" clip-path="url(#clipPath1)" stroke="none">Artemis</text>
    </g>
    <g fill="rgb(187,68,34)" text-rendering="geometricPrecision" shape-rendering="geometricPrecision" stroke="rgb(187,68,34)">
      <rect x="820" y="280" clip-path="url(#clipPath1)" width="175" rx="4" ry="4" height="30" stroke="none"/>
    </g>
    <g stroke-linecap="butt" fill="white" text-rendering="geometricPrecision" font-family="'DejaVu Sans'" shape-rendering="geometricPrecision" stroke="white" font-weight="bold" stroke-miterlimit="1.45">
      <text x="881.1006" xml:space="preserve" y="299.1543" clip-path="url(#clipPath1)" stroke="none">Bonirob</text>
    </g>
    <g fill="rgb(187,68,34)" text-rendering="geometricPrecision" shape-rendering="geometricPrecision" stroke="rgb(187,68,34)">
      <rect x="820" y="320" clip-path="url(#clipPath1)" width="175" rx="4" ry="4" height="30" stroke="none"/>
    </g>
    <g stroke-linecap="butt" fill="white" text-rendering="geometricPrecision" font-family="'DejaVu Sans'" shape-rendering="geometricPrecision" stroke="white" font-weight="bold" stroke-miterlimit="1.45">
      <text x="883.6582" xml:space="preserve" y="339.1543" clip-path="url(#clipPath1)" stroke="none">NaioOz</text>
    </g>
    <g fill="rgb(187,68,34)" text-rendering="geometricPrecision" shape-rendering="geometricPrecision" stroke="rgb(187,68,34)">
      <rect x="820" y="360" clip-path="url(#clipPath1)" width="175" rx="4" ry="4" height="30" stroke="none"/>
    </g>
    <g stroke-linecap="butt" fill="white" text-rendering="geometricPrecision" font-family="'DejaVu Sans'" shape-rendering="geometricPrecision" stroke="white" font-weight="bold" stroke-miterlimit="1.45">
      <text x="877.7988" xml:space="preserve" y="379.1543" clip-path="url(#clipPath1)" stroke="none">Sherpatt</text>
    </g>
    <g fill="rgb(187,68,34)" text-rendering="geometricPrecision" shape-rendering="geometricPrecision" stroke="rgb(187,68,34)">
      <rect x="820" y="420" clip-path="url(#clipPath1)" width="175" rx="4" ry="4" height="30" stroke="none"/>
    </g>
    <g stroke-linecap="butt" fill="white" text-rendering="geometricPrecision" font-family="'DejaVu Sans'" shape-rendering="geometricPrecision" stroke="white" font-weight="bold" stroke-miterlimit="1.45">
      <text x="846.4951" xml:space="preserve" y="439.1543" clip-path="url(#clipPath1)" stroke="none">FeatureOfInterest</text>
    </g>
    <g fill="rgb(187,68,34)" text-rendering="geometricPrecision" shape-rendering="geometricPrecision" stroke="rgb(187,68,34)">
      <rect x="820" y="480" clip-path="url(#clipPath1)" width="175" rx="4" ry="4" height="30" stroke="none"/>
    </g>
    <g stroke-linecap="butt" fill="white" text-rendering="geometricPrecision" font-family="'DejaVu Sans'" shape-rendering="geometricPrecision" stroke="white" font-weight="bold" stroke-miterlimit="1.45">
      <text x="878.1855" xml:space="preserve" y="499.1543" clip-path="url(#clipPath1)" stroke="none">Platform</text>
    </g>
    <g fill="rgb(187,68,34)" text-rendering="geometricPrecision" shape-rendering="geometricPrecision" stroke="rgb(187,68,34)">
      <rect x="820" y="540" clip-path="url(#clipPath1)" width="175" rx="4" ry="4" height="30" stroke="none"/>
    </g>
    <g stroke-linecap="butt" fill="white" text-rendering="geometricPrecision" font-family="'DejaVu Sans'" shape-rendering="geometricPrecision" stroke="white" font-weight="bold" stroke-miterlimit="1.45">
      <text x="882.5068" xml:space="preserve" y="559.1543" clip-path="url(#clipPath1)" stroke="none">System</text>
    </g>
    <g fill="rgb(187,68,34)" text-rendering="geometricPrecision" shape-rendering="geometricPrecision" stroke="rgb(187,68,34)">
      <rect x="1230" y="120" clip-path="url(#clipPath1)" width="175" rx="4" ry="4" height="30" stroke="none"/>
    </g>
    <g stroke-linecap="butt" fill="white" text-rendering="geometricPrecision" font-family="'DejaVu Sans'" shape-rendering="geometricPrecision" stroke="white" font-weight="bold" stroke-miterlimit="1.45">
      <text x="1260.3184" xml:space="preserve" y="139.1543" clip-path="url(#clipPath1)" stroke="none">NamedIndividual</text>
    </g>
    <g fill="rgb(0,102,34)" text-rendering="geometricPrecision" shape-rendering="geometricPrecision" stroke="rgb(0,102,34)">
      <rect x="1230" y="180" clip-path="url(#clipPath1)" width="175" rx="4" ry="4" height="30" stroke="none"/>
    </g>
    <g stroke-linecap="butt" fill="white" text-rendering="geometricPrecision" font-family="'DejaVu Sans'" shape-rendering="geometricPrecision" stroke="white" font-weight="bold" stroke-miterlimit="1.45">
      <text x="1281.2686" xml:space="preserve" y="199.1543" clip-path="url(#clipPath1)" stroke="none">"ARTEMIS"</text>
    </g>
    <g fill="rgb(187,68,34)" text-rendering="geometricPrecision" shape-rendering="geometricPrecision" stroke="rgb(187,68,34)">
      <rect x="1230" y="240" clip-path="url(#clipPath1)" width="175" rx="4" ry="4" height="30" stroke="none"/>
    </g>
    <g stroke-linecap="butt" fill="white" text-rendering="geometricPrecision" font-family="'DejaVu Sans'" shape-rendering="geometricPrecision" stroke="white" font-weight="bold" stroke-miterlimit="1.45">
      <text x="1274.9023" xml:space="preserve" y="259.1543" clip-path="url(#clipPath1)" stroke="none">MobileRobot</text>
    </g>
    <g fill="rgb(34,68,153)" text-rendering="geometricPrecision" shape-rendering="geometricPrecision" stroke="rgb(34,68,153)">
      <rect x="205" y="0" clip-path="url(#clipPath1)" width="175" rx="4" ry="4" height="30" stroke="none"/>
    </g>
    <g stroke-linecap="butt" fill="white" text-rendering="geometricPrecision" font-family="'DejaVu Sans'" shape-rendering="geometricPrecision" stroke="white" font-weight="bold" stroke-miterlimit="1.45">
      <text x="277.3564" xml:space="preserve" y="19.1543" clip-path="url(#clipPath1)" stroke="none">type</text>
    </g>
    <g fill="rgb(34,68,153)" text-rendering="geometricPrecision" shape-rendering="geometricPrecision" stroke="rgb(34,68,153)">
      <rect x="205" y="60" clip-path="url(#clipPath1)" width="175" rx="4" ry="4" height="30" stroke="none"/>
    </g>
    <g stroke-linecap="butt" fill="white" text-rendering="geometricPrecision" font-family="'DejaVu Sans'" shape-rendering="geometricPrecision" stroke="white" font-weight="bold" stroke-miterlimit="1.45">
      <text x="277.3564" xml:space="preserve" y="79.1543" clip-path="url(#clipPath1)" stroke="none">type</text>
    </g>
    <g fill="rgb(34,68,153)" text-rendering="geometricPrecision" shape-rendering="geometricPrecision" stroke="rgb(34,68,153)">
      <rect x="205" y="330" clip-path="url(#clipPath1)" width="175" rx="4" ry="4" height="30" stroke="none"/>
    </g>
    <g stroke-linecap="butt" fill="white" text-rendering="geometricPrecision" font-family="'DejaVu Sans'" shape-rendering="geometricPrecision" stroke="white" font-weight="bold" stroke-miterlimit="1.45">
      <text x="272.8564" xml:space="preserve" y="349.1543" clip-path="url(#clipPath1)" stroke="none">range</text>
    </g>
    <g fill="rgb(34,68,153)" text-rendering="geometricPrecision" shape-rendering="geometricPrecision" stroke="rgb(34,68,153)">
      <rect x="615" y="240" clip-path="url(#clipPath1)" width="175" rx="4" ry="4" height="30" stroke="none"/>
    </g>
    <g stroke-linecap="butt" fill="white" text-rendering="geometricPrecision" font-family="'DejaVu Sans'" shape-rendering="geometricPrecision" stroke="white" font-weight="bold" stroke-miterlimit="1.45">
      <text x="648.9307" xml:space="preserve" y="259.1543" clip-path="url(#clipPath1)" stroke="none">equivalentClass</text>
    </g>
    <g fill="rgb(34,68,153)" text-rendering="geometricPrecision" shape-rendering="geometricPrecision" stroke="rgb(34,68,153)">
      <rect x="615" y="420" clip-path="url(#clipPath1)" width="175" rx="4" ry="4" height="30" stroke="none"/>
    </g>
    <g stroke-linecap="butt" fill="white" text-rendering="geometricPrecision" font-family="'DejaVu Sans'" shape-rendering="geometricPrecision" stroke="white" font-weight="bold" stroke-miterlimit="1.45">
      <text x="665" xml:space="preserve" y="439.1543" clip-path="url(#clipPath1)" stroke="none">subClassOf</text>
    </g>
    <g fill="rgb(34,68,153)" text-rendering="geometricPrecision" shape-rendering="geometricPrecision" stroke="rgb(34,68,153)">
      <rect x="615" y="480" clip-path="url(#clipPath1)" width="175" rx="4" ry="4" height="30" stroke="none"/>
    </g>
    <g stroke-linecap="butt" fill="white" text-rendering="geometricPrecision" font-family="'DejaVu Sans'" shape-rendering="geometricPrecision" stroke="white" font-weight="bold" stroke-miterlimit="1.45">
      <text x="665" xml:space="preserve" y="499.1543" clip-path="url(#clipPath1)" stroke="none">subClassOf</text>
    </g>
    <g fill="rgb(34,68,153)" text-rendering="geometricPrecision" shape-rendering="geometricPrecision" stroke="rgb(34,68,153)">
      <rect x="615" y="540" clip-path="url(#clipPath1)" width="175" rx="4" ry="4" height="30" stroke="none"/>
    </g>
    <g stroke-linecap="butt" fill="white" text-rendering="geometricPrecision" font-family="'DejaVu Sans'" shape-rendering="geometricPrecision" stroke="white" font-weight="bold" stroke-miterlimit="1.45">
      <text x="665" xml:space="preserve" y="559.1543" clip-path="url(#clipPath1)" stroke="none">subClassOf</text>
    </g>
    <g fill="rgb(34,68,153)" text-rendering="geometricPrecision" shape-rendering="geometricPrecision" stroke="rgb(34,68,153)">
      <rect x="1025" y="120" clip-path="url(#clipPath1)" width="175" rx="4" ry="4" height="30" stroke="none"/>
    </g>
    <g stroke-linecap="butt" fill="white" text-rendering="geometricPrecision" font-family="'DejaVu Sans'" shape-rendering="geometricPrecision" stroke="white" font-weight="bold" stroke-miterlimit="1.45">
      <text x="1097.3564" xml:space="preserve" y="139.1543" clip-path="url(#clipPath1)" stroke="none">type</text>
    </g>
    <g fill="rgb(34,68,153)" text-rendering="geometricPrecision" shape-rendering="geometricPrecision" stroke="rgb(34,68,153)">
      <rect x="1025" y="180" clip-path="url(#clipPath1)" width="175" rx="4" ry="4" height="30" stroke="none"/>
    </g>
    <g stroke-linecap="butt" fill="white" text-rendering="geometricPrecision" font-family="'DejaVu Sans'" shape-rendering="geometricPrecision" stroke="white" font-weight="bold" stroke-miterlimit="1.45">
      <text x="1095.9736" xml:space="preserve" y="199.1543" clip-path="url(#clipPath1)" stroke="none">label</text>
    </g>
    <g fill="rgb(34,68,153)" text-rendering="geometricPrecision" shape-rendering="geometricPrecision" stroke="rgb(34,68,153)">
      <rect x="1025" y="240" clip-path="url(#clipPath1)" width="175" rx="4" ry="4" height="30" stroke="none"/>
    </g>
    <g stroke-linecap="butt" fill="white" text-rendering="geometricPrecision" font-family="'DejaVu Sans'" shape-rendering="geometricPrecision" stroke="white" font-weight="bold" stroke-miterlimit="1.45">
      <text x="1097.3564" xml:space="preserve" y="259.1543" clip-path="url(#clipPath1)" stroke="none">type</text>
    </g>
    <g stroke-linecap="butt" fill="rgb(34,68,153)" text-rendering="geometricPrecision" shape-rendering="geometricPrecision" stroke="rgb(34,68,153)" stroke-width="3" stroke-miterlimit="1.45">
      <path fill="none" d="M180.0115 15 L205.0158 15" clip-path="url(#clipPath1)"/>
      <path d="M170.0115 15 C170.0115 12.2386 172.25 10 175.0115 10 C177.7729 10 180.0115 12.2386 180.0115 15 C180.0115 17.7614 177.7729 20 175.0115 20 C172.25 20 170.0115 17.7614 170.0115 15 Z" clip-path="url(#clipPath1)" stroke="none"/>
      <path fill="none" d="M380.0104 15 L396.2351 15" clip-path="url(#clipPath1)"/>
      <path d="M409.9851 15 L394.9851 7.5 L394.9851 22.5 Z" clip-path="url(#clipPath1)" stroke="none"/>
      <path fill="none" d="M180.0239 75 L205.0159 75" clip-path="url(#clipPath1)"/>
      <path d="M170.0239 75 C170.0239 72.2386 172.2625 70 175.0239 70 C177.7854 70 180.0239 72.2386 180.0239 75 C180.0239 77.7614 177.7854 80 175.0239 80 C172.2625 80 170.0239 77.7614 170.0239 75 Z" clip-path="url(#clipPath1)" stroke="none"/>
      <path fill="none" d="M380.0104 75 L396.2351 75" clip-path="url(#clipPath1)"/>
      <path d="M409.9851 75 L394.9851 67.5 L394.9851 82.5 Z" clip-path="url(#clipPath1)" stroke="none"/>
      <path fill="none" d="M180.0115 345 L205.0158 345" clip-path="url(#clipPath1)"/>
      <path d="M170.0115 345 C170.0115 342.2386 172.25 340 175.0115 340 C177.7729 340 180.0115 342.2386 180.0115 345 C180.0115 347.7614 177.7729 350 175.0115 350 C172.25 350 170.0115 347.7614 170.0115 345 Z" clip-path="url(#clipPath1)" stroke="none"/>
      <path fill="none" d="M380.0104 345 L396.2351 345" clip-path="url(#clipPath1)"/>
      <path d="M409.9851 345 L394.9851 337.5 L394.9851 352.5 Z" clip-path="url(#clipPath1)" stroke="none"/>
      <path fill="none" d="M590.0128 255 L614.987 255" clip-path="url(#clipPath1)"/>
      <path d="M580.0128 255 C580.0128 252.2386 582.2514 250 585.0128 250 C587.7742 250 590.0128 252.2386 590.0128 255 C590.0128 257.7614 587.7742 260 585.0128 260 C582.2514 260 580.0128 257.7614 580.0128 255 Z" clip-path="url(#clipPath1)" stroke="none"/>
      <path fill="none" d="M789.9814 255 L803.7817 255" clip-path="url(#clipPath1)"/>
      <path d="M817.5317 255 L802.5317 247.5 L802.5317 262.5 Z" clip-path="url(#clipPath1)" stroke="none"/>
      <path fill="none" d="M590.0055 435 L614.9815 435" clip-path="url(#clipPath1)"/>
      <path d="M580.0055 435 C580.0055 432.2386 582.2441 430 585.0055 430 C587.7669 430 590.0055 432.2386 590.0055 435 C590.0055 437.7614 587.7669 440 585.0055 440 C582.2441 440 580.0055 437.7614 580.0055 435 Z" clip-path="url(#clipPath1)" stroke="none"/>
      <path fill="none" d="M790.0104 435 L806.2352 435" clip-path="url(#clipPath1)"/>
      <path d="M819.9852 435 L804.9852 427.5 L804.9852 442.5 Z" clip-path="url(#clipPath1)" stroke="none"/>
      <path fill="none" d="M590.0077 495 L614.9832 495" clip-path="url(#clipPath1)"/>
      <path d="M580.0077 495 C580.0077 492.2386 582.2463 490 585.0077 490 C587.7691 490 590.0077 492.2386 590.0077 495 C590.0077 497.7614 587.7691 500 585.0077 500 C582.2463 500 580.0077 497.7614 580.0077 495 Z" clip-path="url(#clipPath1)" stroke="none"/>
      <path fill="none" d="M790.0104 495 L806.2352 495" clip-path="url(#clipPath1)"/>
      <path d="M819.9852 495 L804.9852 487.5 L804.9852 502.5 Z" clip-path="url(#clipPath1)" stroke="none"/>
      <path fill="none" d="M590.0077 555 L614.9832 555" clip-path="url(#clipPath1)"/>
      <path d="M580.0077 555 C580.0077 552.2386 582.2463 550 585.0077 550 C587.7691 550 590.0077 552.2386 590.0077 555 C590.0077 557.7614 587.7691 560 585.0077 560 C582.2463 560 580.0077 557.7614 580.0077 555 Z" clip-path="url(#clipPath1)" stroke="none"/>
      <path fill="none" d="M790.0104 555 L806.2352 555" clip-path="url(#clipPath1)"/>
      <path d="M819.9852 555 L804.9852 547.5 L804.9852 562.5 Z" clip-path="url(#clipPath1)" stroke="none"/>
      <path fill="none" d="M1000.0206 135 L1024.9928 135" clip-path="url(#clipPath1)"/>
      <path d="M990.0206 135 C990.0206 132.2386 992.2592 130 995.0206 130 C997.782 130 1000.0206 132.2386 1000.0206 135 C1000.0206 137.7614 997.782 140 995.0206 140 C992.2592 140 990.0206 137.7614 990.0206 135 Z" clip-path="url(#clipPath1)" stroke="none"/>
      <path fill="none" d="M1200.0104 135 L1216.2351 135" clip-path="url(#clipPath1)"/>
      <path d="M1229.9851 135 L1214.9851 127.5 L1214.9851 142.5 Z" clip-path="url(#clipPath1)" stroke="none"/>
      <path fill="none" d="M999.9835 195 L1025.0226 195" clip-path="url(#clipPath1)"/>
      <path d="M989.9835 195 C989.9835 192.2386 992.2221 190 994.9835 190 C997.7449 190 999.9835 192.2386 999.9835 195 C999.9835 197.7614 997.7449 200 994.9835 200 C992.2221 200 989.9835 197.7614 989.9835 195 Z" clip-path="url(#clipPath1)" stroke="none"/>
      <path fill="none" d="M1200.0104 195 L1216.2351 195" clip-path="url(#clipPath1)"/>
      <path d="M1229.9851 195 L1214.9851 187.5 L1214.9851 202.5 Z" clip-path="url(#clipPath1)" stroke="none"/>
      <path fill="none" d="M1000.0206 255 L1024.9928 255" clip-path="url(#clipPath1)"/>
      <path d="M990.0206 255 C990.0206 252.2386 992.2592 250 995.0206 250 C997.782 250 1000.0206 252.2386 1000.0206 255 C1000.0206 257.7614 997.782 260 995.0206 260 C992.2592 260 990.0206 257.7614 990.0206 255 Z" clip-path="url(#clipPath1)" stroke="none"/>
      <path fill="none" d="M1200.0104 255 L1216.2351 255" clip-path="url(#clipPath1)"/>
      <path d="M1229.9851 255 L1214.9851 247.5 L1214.9851 262.5 Z" clip-path="url(#clipPath1)" stroke="none"/>
    </g>
  </g>
</svg>
