<?xml version="1.0" encoding="UTF-8"?><svg xmlns="http://www.w3.org/2000/svg" xmlns:xlink="http://www.w3.org/1999/xlink" fill-opacity="1" color-rendering="auto" color-interpolation="auto" text-rendering="auto" stroke="black" stroke-linecap="square" width="995" stroke-miterlimit="10" shape-rendering="auto" stroke-opacity="1" fill="black" stroke-dasharray="none" font-weight="normal" stroke-width="1" height="450" font-family="'Dialog'" font-style="normal" stroke-linejoin="miter" font-size="12px" stroke-dashoffset="0" image-rendering="auto">
  <!--Generated by ySVG 2.6-->
  <defs id="genericDefs"/>
  <g>
    <defs id="defs1">
      <clipPath clipPathUnits="userSpaceOnUse" id="clipPath1">
        <path d="M0 0 L995 0 L995 450 L0 450 L0 0 Z"/>
      </clipPath>
    </defs>
    <g fill="white" text-rendering="geometricPrecision" shape-rendering="geometricPrecision" stroke="white">
      <rect x="0" width="995" height="450" y="0" clip-path="url(#clipPath1)" stroke="none"/>
    </g>
    <g fill="silver" text-rendering="geometricPrecision" shape-rendering="geometricPrecision" stroke="silver">
      <rect x="820" y="120" clip-path="url(#clipPath1)" width="175" rx="4" ry="4" height="150" stroke="none"/>
      <rect stroke-linecap="butt" x="820" y="120" clip-path="url(#clipPath1)" fill="none" width="175" rx="4" ry="4" height="150" stroke-width="5" stroke-miterlimit="1.45"/>
      <rect x="0" y="0" clip-path="url(#clipPath1)" fill="rgb(34,68,153)" width="175" rx="4" ry="4" height="450" stroke="none"/>
    </g>
    <g stroke-linecap="butt" fill="white" text-rendering="geometricPrecision" font-family="'DejaVu Sans'" shape-rendering="geometricPrecision" stroke="white" font-weight="bold" stroke-miterlimit="1.45">
      <text x="36.1807" xml:space="preserve" y="229.1543" clip-path="url(#clipPath1)" stroke="none">observedRobot</text>
    </g>
    <g fill="rgb(187,68,34)" text-rendering="geometricPrecision" shape-rendering="geometricPrecision" stroke="rgb(187,68,34)">
      <rect x="410" y="0" clip-path="url(#clipPath1)" width="175" rx="4" ry="4" height="30" stroke="none"/>
    </g>
    <g stroke-linecap="butt" fill="white" text-rendering="geometricPrecision" font-family="'DejaVu Sans'" shape-rendering="geometricPrecision" stroke="white" font-weight="bold" stroke-miterlimit="1.45">
      <text x="423.0186" xml:space="preserve" y="19.1543" clip-path="url(#clipPath1)" stroke="none">ExperimentParameter</text>
    </g>
    <g fill="rgb(187,68,34)" text-rendering="geometricPrecision" shape-rendering="geometricPrecision" stroke="rgb(187,68,34)">
      <rect x="410" y="60" clip-path="url(#clipPath1)" width="175" rx="4" ry="4" height="30" stroke="none"/>
    </g>
    <g stroke-linecap="butt" fill="white" text-rendering="geometricPrecision" font-family="'DejaVu Sans'" shape-rendering="geometricPrecision" stroke="white" font-weight="bold" stroke-miterlimit="1.45">
      <text x="445.9727" xml:space="preserve" y="79.1543" clip-path="url(#clipPath1)" stroke="none">ObjectProperty</text>
    </g>
    <g fill="rgb(187,68,34)" text-rendering="geometricPrecision" shape-rendering="geometricPrecision" stroke="rgb(187,68,34)">
      <rect x="410" y="120" clip-path="url(#clipPath1)" width="175" rx="4" ry="4" height="330" stroke="none"/>
    </g>
    <g stroke-linecap="butt" fill="white" text-rendering="geometricPrecision" font-family="'DejaVu Sans'" shape-rendering="geometricPrecision" stroke="white" font-weight="bold" stroke-miterlimit="1.45">
      <text x="446.2861" xml:space="preserve" y="289.1543" clip-path="url(#clipPath1)" stroke="none">AvailableRobot</text>
    </g>
    <g fill="rgb(187,68,34)" text-rendering="geometricPrecision" shape-rendering="geometricPrecision" stroke="rgb(187,68,34)">
      <rect x="820" y="120" clip-path="url(#clipPath1)" width="175" rx="4" ry="4" height="30" stroke="none"/>
    </g>
    <g stroke-linecap="butt" fill="white" text-rendering="geometricPrecision" font-family="'DejaVu Sans'" shape-rendering="geometricPrecision" stroke="white" font-weight="bold" stroke-miterlimit="1.45">
      <text x="881.0801" xml:space="preserve" y="139.1543" clip-path="url(#clipPath1)" stroke="none">Artemis</text>
    </g>
    <g fill="rgb(187,68,34)" text-rendering="geometricPrecision" shape-rendering="geometricPrecision" stroke="rgb(187,68,34)">
      <rect x="820" y="160" clip-path="url(#clipPath1)" width="175" rx="4" ry="4" height="30" stroke="none"/>
    </g>
    <g stroke-linecap="butt" fill="white" text-rendering="geometricPrecision" font-family="'DejaVu Sans'" shape-rendering="geometricPrecision" stroke="white" font-weight="bold" stroke-miterlimit="1.45">
      <text x="881.1006" xml:space="preserve" y="179.1543" clip-path="url(#clipPath1)" stroke="none">Bonirob</text>
    </g>
    <g fill="rgb(187,68,34)" text-rendering="geometricPrecision" shape-rendering="geometricPrecision" stroke="rgb(187,68,34)">
      <rect x="820" y="200" clip-path="url(#clipPath1)" width="175" rx="4" ry="4" height="30" stroke="none"/>
    </g>
    <g stroke-linecap="butt" fill="white" text-rendering="geometricPrecision" font-family="'DejaVu Sans'" shape-rendering="geometricPrecision" stroke="white" font-weight="bold" stroke-miterlimit="1.45">
      <text x="883.6582" xml:space="preserve" y="219.1543" clip-path="url(#clipPath1)" stroke="none">NaioOz</text>
    </g>
    <g fill="rgb(187,68,34)" text-rendering="geometricPrecision" shape-rendering="geometricPrecision" stroke="rgb(187,68,34)">
      <rect x="820" y="240" clip-path="url(#clipPath1)" width="175" rx="4" ry="4" height="30" stroke="none"/>
    </g>
    <g stroke-linecap="butt" fill="white" text-rendering="geometricPrecision" font-family="'DejaVu Sans'" shape-rendering="geometricPrecision" stroke="white" font-weight="bold" stroke-miterlimit="1.45">
      <text x="877.7988" xml:space="preserve" y="259.1543" clip-path="url(#clipPath1)" stroke="none">Sherpatt</text>
    </g>
    <g fill="rgb(187,68,34)" text-rendering="geometricPrecision" shape-rendering="geometricPrecision" stroke="rgb(187,68,34)">
      <rect x="820" y="300" clip-path="url(#clipPath1)" width="175" rx="4" ry="4" height="30" stroke="none"/>
    </g>
    <g stroke-linecap="butt" fill="white" text-rendering="geometricPrecision" font-family="'DejaVu Sans'" shape-rendering="geometricPrecision" stroke="white" font-weight="bold" stroke-miterlimit="1.45">
      <text x="846.4951" xml:space="preserve" y="319.1543" clip-path="url(#clipPath1)" stroke="none">FeatureOfInterest</text>
    </g>
    <g fill="rgb(187,68,34)" text-rendering="geometricPrecision" shape-rendering="geometricPrecision" stroke="rgb(187,68,34)">
      <rect x="820" y="360" clip-path="url(#clipPath1)" width="175" rx="4" ry="4" height="30" stroke="none"/>
    </g>
    <g stroke-linecap="butt" fill="white" text-rendering="geometricPrecision" font-family="'DejaVu Sans'" shape-rendering="geometricPrecision" stroke="white" font-weight="bold" stroke-miterlimit="1.45">
      <text x="878.1855" xml:space="preserve" y="379.1543" clip-path="url(#clipPath1)" stroke="none">Platform</text>
    </g>
    <g fill="rgb(187,68,34)" text-rendering="geometricPrecision" shape-rendering="geometricPrecision" stroke="rgb(187,68,34)">
      <rect x="820" y="420" clip-path="url(#clipPath1)" width="175" rx="4" ry="4" height="30" stroke="none"/>
    </g>
    <g stroke-linecap="butt" fill="white" text-rendering="geometricPrecision" font-family="'DejaVu Sans'" shape-rendering="geometricPrecision" stroke="white" font-weight="bold" stroke-miterlimit="1.45">
      <text x="882.5068" xml:space="preserve" y="439.1543" clip-path="url(#clipPath1)" stroke="none">System</text>
    </g>
    <g fill="rgb(34,68,153)" text-rendering="geometricPrecision" shape-rendering="geometricPrecision" stroke="rgb(34,68,153)">
      <rect x="205" y="0" clip-path="url(#clipPath1)" width="175" rx="4" ry="4" height="30" stroke="none"/>
    </g>
    <g stroke-linecap="butt" fill="white" text-rendering="geometricPrecision" font-family="'DejaVu Sans'" shape-rendering="geometricPrecision" stroke="white" font-weight="bold" stroke-miterlimit="1.45">
      <text x="277.3564" xml:space="preserve" y="19.1543" clip-path="url(#clipPath1)" stroke="none">type</text>
    </g>
    <g fill="rgb(34,68,153)" text-rendering="geometricPrecision" shape-rendering="geometricPrecision" stroke="rgb(34,68,153)">
      <rect x="205" y="60" clip-path="url(#clipPath1)" width="175" rx="4" ry="4" height="30" stroke="none"/>
    </g>
    <g stroke-linecap="butt" fill="white" text-rendering="geometricPrecision" font-family="'DejaVu Sans'" shape-rendering="geometricPrecision" stroke="white" font-weight="bold" stroke-miterlimit="1.45">
      <text x="277.3564" xml:space="preserve" y="79.1543" clip-path="url(#clipPath1)" stroke="none">type</text>
    </g>
    <g fill="rgb(34,68,153)" text-rendering="geometricPrecision" shape-rendering="geometricPrecision" stroke="rgb(34,68,153)">
      <rect x="205" y="270" clip-path="url(#clipPath1)" width="175" rx="4" ry="4" height="30" stroke="none"/>
    </g>
    <g stroke-linecap="butt" fill="white" text-rendering="geometricPrecision" font-family="'DejaVu Sans'" shape-rendering="geometricPrecision" stroke="white" font-weight="bold" stroke-miterlimit="1.45">
      <text x="272.8564" xml:space="preserve" y="289.1543" clip-path="url(#clipPath1)" stroke="none">range</text>
    </g>
    <g fill="rgb(34,68,153)" text-rendering="geometricPrecision" shape-rendering="geometricPrecision" stroke="rgb(34,68,153)">
      <rect x="615" y="180" clip-path="url(#clipPath1)" width="175" rx="4" ry="4" height="30" stroke="none"/>
    </g>
    <g stroke-linecap="butt" fill="white" text-rendering="geometricPrecision" font-family="'DejaVu Sans'" shape-rendering="geometricPrecision" stroke="white" font-weight="bold" stroke-miterlimit="1.45">
      <text x="648.9307" xml:space="preserve" y="199.1543" clip-path="url(#clipPath1)" stroke="none">equivalentClass</text>
    </g>
    <g fill="rgb(34,68,153)" text-rendering="geometricPrecision" shape-rendering="geometricPrecision" stroke="rgb(34,68,153)">
      <rect x="615" y="300" clip-path="url(#clipPath1)" width="175" rx="4" ry="4" height="30" stroke="none"/>
    </g>
    <g stroke-linecap="butt" fill="white" text-rendering="geometricPrecision" font-family="'DejaVu Sans'" shape-rendering="geometricPrecision" stroke="white" font-weight="bold" stroke-miterlimit="1.45">
      <text x="665" xml:space="preserve" y="319.1543" clip-path="url(#clipPath1)" stroke="none">subClassOf</text>
    </g>
    <g fill="rgb(34,68,153)" text-rendering="geometricPrecision" shape-rendering="geometricPrecision" stroke="rgb(34,68,153)">
      <rect x="615" y="360" clip-path="url(#clipPath1)" width="175" rx="4" ry="4" height="30" stroke="none"/>
    </g>
    <g stroke-linecap="butt" fill="white" text-rendering="geometricPrecision" font-family="'DejaVu Sans'" shape-rendering="geometricPrecision" stroke="white" font-weight="bold" stroke-miterlimit="1.45">
      <text x="665" xml:space="preserve" y="379.1543" clip-path="url(#clipPath1)" stroke="none">subClassOf</text>
    </g>
    <g fill="rgb(34,68,153)" text-rendering="geometricPrecision" shape-rendering="geometricPrecision" stroke="rgb(34,68,153)">
      <rect x="615" y="420" clip-path="url(#clipPath1)" width="175" rx="4" ry="4" height="30" stroke="none"/>
    </g>
    <g stroke-linecap="butt" fill="white" text-rendering="geometricPrecision" font-family="'DejaVu Sans'" shape-rendering="geometricPrecision" stroke="white" font-weight="bold" stroke-miterlimit="1.45">
      <text x="665" xml:space="preserve" y="439.1543" clip-path="url(#clipPath1)" stroke="none">subClassOf</text>
    </g>
    <g stroke-linecap="butt" fill="rgb(34,68,153)" text-rendering="geometricPrecision" shape-rendering="geometricPrecision" stroke="rgb(34,68,153)" stroke-width="3" stroke-miterlimit="1.45">
      <path fill="none" d="M180.0083 15 L204.9836 15" clip-path="url(#clipPath1)"/>
      <path d="M170.0083 15 C170.0083 12.2386 172.2469 10 175.0083 10 C177.7698 10 180.0083 12.2386 180.0083 15 C180.0083 17.7614 177.7698 20 175.0083 20 C172.2469 20 170.0083 17.7614 170.0083 15 Z" clip-path="url(#clipPath1)" stroke="none"/>
      <path fill="none" d="M380.0104 15 L396.2351 15" clip-path="url(#clipPath1)"/>
      <path d="M409.9851 15 L394.9851 7.5 L394.9851 22.5 Z" clip-path="url(#clipPath1)" stroke="none"/>
      <path fill="none" d="M180.0083 75 L204.9836 75" clip-path="url(#clipPath1)"/>
      <path d="M170.0083 75 C170.0083 72.2386 172.2469 70 175.0083 70 C177.7698 70 180.0083 72.2386 180.0083 75 C180.0083 77.7614 177.7698 80 175.0083 80 C172.2469 80 170.0083 77.7614 170.0083 75 Z" clip-path="url(#clipPath1)" stroke="none"/>
      <path fill="none" d="M380.0104 75 L396.2351 75" clip-path="url(#clipPath1)"/>
      <path d="M409.9851 75 L394.9851 67.5 L394.9851 82.5 Z" clip-path="url(#clipPath1)" stroke="none"/>
      <path fill="none" d="M180.0027 285 L204.9794 285" clip-path="url(#clipPath1)"/>
      <path d="M170.0027 285 C170.0027 282.2386 172.2413 280 175.0027 280 C177.7642 280 180.0027 282.2386 180.0027 285 C180.0027 287.7614 177.7642 290 175.0027 290 C172.2413 290 170.0027 287.7614 170.0027 285 Z" clip-path="url(#clipPath1)" stroke="none"/>
      <path fill="none" d="M380.0104 285 L396.2351 285" clip-path="url(#clipPath1)"/>
      <path d="M409.9851 285 L394.9851 277.5 L394.9851 292.5 Z" clip-path="url(#clipPath1)" stroke="none"/>
      <path fill="none" d="M590.0017 195 L614.9787 195" clip-path="url(#clipPath1)"/>
      <path d="M580.0017 195 C580.0017 192.2386 582.2403 190 585.0017 190 C587.7631 190 590.0017 192.2386 590.0017 195 C590.0017 197.7614 587.7631 200 585.0017 200 C582.2403 200 580.0017 197.7614 580.0017 195 Z" clip-path="url(#clipPath1)" stroke="none"/>
      <path fill="none" d="M790.0104 195 L806.2352 195" clip-path="url(#clipPath1)"/>
      <path d="M819.9852 195 L804.9852 187.5 L804.9852 202.5 Z" clip-path="url(#clipPath1)" stroke="none"/>
      <path fill="none" d="M590.0132 315 L614.9873 315" clip-path="url(#clipPath1)"/>
      <path d="M580.0132 315 C580.0132 312.2386 582.2518 310 585.0132 310 C587.7747 310 590.0132 312.2386 590.0132 315 C590.0132 317.7614 587.7747 320 585.0132 320 C582.2518 320 580.0132 317.7614 580.0132 315 Z" clip-path="url(#clipPath1)" stroke="none"/>
      <path fill="none" d="M790.0104 315 L806.2352 315" clip-path="url(#clipPath1)"/>
      <path d="M819.9852 315 L804.9852 307.5 L804.9852 322.5 Z" clip-path="url(#clipPath1)" stroke="none"/>
      <path fill="none" d="M590.0248 375 L614.9959 375" clip-path="url(#clipPath1)"/>
      <path d="M580.0248 375 C580.0248 372.2386 582.2634 370 585.0248 370 C587.7862 370 590.0248 372.2386 590.0248 375 C590.0248 377.7614 587.7862 380 585.0248 380 C582.2634 380 580.0248 377.7614 580.0248 375 Z" clip-path="url(#clipPath1)" stroke="none"/>
      <path fill="none" d="M790.0104 375 L806.2352 375" clip-path="url(#clipPath1)"/>
      <path d="M819.9852 375 L804.9852 367.5 L804.9852 382.5 Z" clip-path="url(#clipPath1)" stroke="none"/>
      <path fill="none" d="M590.0132 435 L614.9873 435" clip-path="url(#clipPath1)"/>
      <path d="M580.0132 435 C580.0132 432.2386 582.2518 430 585.0132 430 C587.7747 430 590.0132 432.2386 590.0132 435 C590.0132 437.7614 587.7747 440 585.0132 440 C582.2518 440 580.0132 437.7614 580.0132 435 Z" clip-path="url(#clipPath1)" stroke="none"/>
      <path fill="none" d="M790.0104 435 L806.2352 435" clip-path="url(#clipPath1)"/>
      <path d="M819.9852 435 L804.9852 427.5 L804.9852 442.5 Z" clip-path="url(#clipPath1)" stroke="none"/>
    </g>
  </g>
</svg>
