<?xml version="1.0" encoding="UTF-8"?><svg xmlns="http://www.w3.org/2000/svg" xmlns:xlink="http://www.w3.org/1999/xlink" fill-opacity="1" color-rendering="auto" color-interpolation="auto" text-rendering="auto" stroke="black" stroke-linecap="square" width="585" stroke-miterlimit="10" shape-rendering="auto" stroke-opacity="1" fill="black" stroke-dasharray="none" font-weight="normal" stroke-width="1" height="150" font-family="'Dialog'" font-style="normal" stroke-linejoin="miter" font-size="12px" stroke-dashoffset="0" image-rendering="auto">
  <!--Generated by ySVG 2.6-->
  <defs id="genericDefs"/>
  <g>
    <defs id="defs1">
      <clipPath clipPathUnits="userSpaceOnUse" id="clipPath1">
        <path d="M0 0 L585 0 L585 150 L0 150 L0 0 Z"/>
      </clipPath>
    </defs>
    <g fill="white" text-rendering="geometricPrecision" shape-rendering="geometricPrecision" stroke="white">
      <rect x="0" width="585" height="150" y="0" clip-path="url(#clipPath1)" stroke="none"/>
    </g>
    <g fill="rgb(34,68,153)" text-rendering="geometricPrecision" shape-rendering="geometricPrecision" stroke="rgb(34,68,153)">
      <rect x="0" y="0" clip-path="url(#clipPath1)" width="175" rx="4" ry="4" height="150" stroke="none"/>
    </g>
    <g stroke-linecap="butt" fill="white" text-rendering="geometricPrecision" font-family="'DejaVu Sans'" shape-rendering="geometricPrecision" stroke="white" font-weight="bold" stroke-miterlimit="1.45">
      <text x="36.1807" xml:space="preserve" y="79.1543" clip-path="url(#clipPath1)" stroke="none">observedRobot</text>
    </g>
    <g fill="rgb(187,68,34)" text-rendering="geometricPrecision" shape-rendering="geometricPrecision" stroke="rgb(187,68,34)">
      <rect x="410" y="0" clip-path="url(#clipPath1)" width="175" rx="4" ry="4" height="30" stroke="none"/>
    </g>
    <g stroke-linecap="butt" fill="white" text-rendering="geometricPrecision" font-family="'DejaVu Sans'" shape-rendering="geometricPrecision" stroke="white" font-weight="bold" stroke-miterlimit="1.45">
      <text x="423.0186" xml:space="preserve" y="19.1543" clip-path="url(#clipPath1)" stroke="none">ExperimentParameter</text>
    </g>
    <g fill="rgb(187,68,34)" text-rendering="geometricPrecision" shape-rendering="geometricPrecision" stroke="rgb(187,68,34)">
      <rect x="410" y="60" clip-path="url(#clipPath1)" width="175" rx="4" ry="4" height="30" stroke="none"/>
    </g>
    <g stroke-linecap="butt" fill="white" text-rendering="geometricPrecision" font-family="'DejaVu Sans'" shape-rendering="geometricPrecision" stroke="white" font-weight="bold" stroke-miterlimit="1.45">
      <text x="445.9727" xml:space="preserve" y="79.1543" clip-path="url(#clipPath1)" stroke="none">ObjectProperty</text>
    </g>
    <g fill="rgb(187,68,34)" text-rendering="geometricPrecision" shape-rendering="geometricPrecision" stroke="rgb(187,68,34)">
      <rect x="410" y="120" clip-path="url(#clipPath1)" width="175" rx="4" ry="4" height="30" stroke="none"/>
    </g>
    <g stroke-linecap="butt" fill="white" text-rendering="geometricPrecision" font-family="'DejaVu Sans'" shape-rendering="geometricPrecision" stroke="white" font-weight="bold" stroke-miterlimit="1.45">
      <text x="446.2861" xml:space="preserve" y="139.1543" clip-path="url(#clipPath1)" stroke="none">AvailableRobot</text>
    </g>
    <g fill="rgb(34,68,153)" text-rendering="geometricPrecision" shape-rendering="geometricPrecision" stroke="rgb(34,68,153)">
      <rect x="205" y="0" clip-path="url(#clipPath1)" width="175" rx="4" ry="4" height="30" stroke="none"/>
    </g>
    <g stroke-linecap="butt" fill="white" text-rendering="geometricPrecision" font-family="'DejaVu Sans'" shape-rendering="geometricPrecision" stroke="white" font-weight="bold" stroke-miterlimit="1.45">
      <text x="277.3564" xml:space="preserve" y="19.1543" clip-path="url(#clipPath1)" stroke="none">type</text>
    </g>
    <g fill="rgb(34,68,153)" text-rendering="geometricPrecision" shape-rendering="geometricPrecision" stroke="rgb(34,68,153)">
      <rect x="205" y="60" clip-path="url(#clipPath1)" width="175" rx="4" ry="4" height="30" stroke="none"/>
    </g>
    <g stroke-linecap="butt" fill="white" text-rendering="geometricPrecision" font-family="'DejaVu Sans'" shape-rendering="geometricPrecision" stroke="white" font-weight="bold" stroke-miterlimit="1.45">
      <text x="277.3564" xml:space="preserve" y="79.1543" clip-path="url(#clipPath1)" stroke="none">type</text>
    </g>
    <g fill="rgb(34,68,153)" text-rendering="geometricPrecision" shape-rendering="geometricPrecision" stroke="rgb(34,68,153)">
      <rect x="205" y="120" clip-path="url(#clipPath1)" width="175" rx="4" ry="4" height="30" stroke="none"/>
    </g>
    <g stroke-linecap="butt" fill="white" text-rendering="geometricPrecision" font-family="'DejaVu Sans'" shape-rendering="geometricPrecision" stroke="white" font-weight="bold" stroke-miterlimit="1.45">
      <text x="272.8564" xml:space="preserve" y="139.1543" clip-path="url(#clipPath1)" stroke="none">range</text>
    </g>
    <g stroke-linecap="butt" fill="rgb(34,68,153)" text-rendering="geometricPrecision" shape-rendering="geometricPrecision" stroke="rgb(34,68,153)" stroke-width="3" stroke-miterlimit="1.45">
      <path fill="none" d="M180.0226 15 L204.9942 15" clip-path="url(#clipPath1)"/>
      <path d="M170.0226 15 C170.0226 12.2386 172.2611 10 175.0226 10 C177.784 10 180.0226 12.2386 180.0226 15 C180.0226 17.7614 177.784 20 175.0226 20 C172.2611 20 170.0226 17.7614 170.0226 15 Z" clip-path="url(#clipPath1)" stroke="none"/>
      <path fill="none" d="M380.0104 15 L396.2351 15" clip-path="url(#clipPath1)"/>
      <path d="M409.9851 15 L394.9851 7.5 L394.9851 22.5 Z" clip-path="url(#clipPath1)" stroke="none"/>
      <path fill="none" d="M179.9835 75 L205.0225 75" clip-path="url(#clipPath1)"/>
      <path d="M169.9835 75 C169.9835 72.2386 172.2221 70 174.9835 70 C177.745 70 179.9835 72.2386 179.9835 75 C179.9835 77.7614 177.745 80 174.9835 80 C172.2221 80 169.9835 77.7614 169.9835 75 Z" clip-path="url(#clipPath1)" stroke="none"/>
      <path fill="none" d="M380.0104 75 L396.2351 75" clip-path="url(#clipPath1)"/>
      <path d="M409.9851 75 L394.9851 67.5 L394.9851 82.5 Z" clip-path="url(#clipPath1)" stroke="none"/>
      <path fill="none" d="M180.0244 135 L204.9956 135" clip-path="url(#clipPath1)"/>
      <path d="M170.0244 135 C170.0244 132.2386 172.2629 130 175.0244 130 C177.7858 130 180.0244 132.2386 180.0244 135 C180.0244 137.7614 177.7858 140 175.0244 140 C172.2629 140 170.0244 137.7614 170.0244 135 Z" clip-path="url(#clipPath1)" stroke="none"/>
      <path fill="none" d="M380.0104 135 L396.2351 135" clip-path="url(#clipPath1)"/>
      <path d="M409.9851 135 L394.9851 127.5 L394.9851 142.5 Z" clip-path="url(#clipPath1)" stroke="none"/>
    </g>
  </g>
</svg>
