<?xml version="1.0" encoding="UTF-8"?><svg xmlns="http://www.w3.org/2000/svg" xmlns:xlink="http://www.w3.org/1999/xlink" fill-opacity="1" color-rendering="auto" color-interpolation="auto" text-rendering="auto" stroke="black" stroke-linecap="square" width="995" stroke-miterlimit="10" shape-rendering="auto" stroke-opacity="1" fill="black" stroke-dasharray="none" font-weight="normal" stroke-width="1" height="390" font-family="'Dialog'" font-style="normal" stroke-linejoin="miter" font-size="12px" stroke-dashoffset="0" image-rendering="auto">
  <!--Generated by ySVG 2.6-->
  <defs id="genericDefs"/>
  <g>
    <defs id="defs1">
      <clipPath clipPathUnits="userSpaceOnUse" id="clipPath1">
        <path d="M0 0 L995 0 L995 390 L0 390 L0 0 Z"/>
      </clipPath>
    </defs>
    <g fill="white" text-rendering="geometricPrecision" shape-rendering="geometricPrecision" stroke="white">
      <rect x="0" width="995" height="390" y="0" clip-path="url(#clipPath1)" stroke="none"/>
    </g>
    <g fill="rgb(187,68,34)" text-rendering="geometricPrecision" shape-rendering="geometricPrecision" stroke="rgb(187,68,34)">
      <rect x="0" y="0" clip-path="url(#clipPath1)" width="175" rx="4" ry="4" height="390" stroke="none"/>
    </g>
    <g stroke-linecap="butt" fill="white" text-rendering="geometricPrecision" font-family="'DejaVu Sans'" shape-rendering="geometricPrecision" stroke="white" font-weight="bold" stroke-miterlimit="1.45">
      <text x="22.959" xml:space="preserve" y="199.1543" clip-path="url(#clipPath1)" stroke="none">ObstacleAvoidance</text>
    </g>
    <g fill="rgb(187,68,34)" text-rendering="geometricPrecision" shape-rendering="geometricPrecision" stroke="rgb(187,68,34)">
      <rect x="410" y="0" clip-path="url(#clipPath1)" width="175" rx="4" ry="4" height="30" stroke="none"/>
    </g>
    <g stroke-linecap="butt" fill="white" text-rendering="geometricPrecision" font-family="'DejaVu Sans'" shape-rendering="geometricPrecision" stroke="white" font-weight="bold" stroke-miterlimit="1.45">
      <text x="442.3223" xml:space="preserve" y="19.1543" clip-path="url(#clipPath1)" stroke="none">ExperimentType</text>
    </g>
    <g fill="rgb(34,68,153)" text-rendering="geometricPrecision" shape-rendering="geometricPrecision" stroke="rgb(34,68,153)">
      <rect x="205" y="0" clip-path="url(#clipPath1)" width="175" rx="4" ry="4" height="30" stroke="none"/>
    </g>
    <g stroke-linecap="butt" fill="white" text-rendering="geometricPrecision" font-family="'DejaVu Sans'" shape-rendering="geometricPrecision" stroke="white" font-weight="bold" stroke-miterlimit="1.45">
      <text x="277.3564" xml:space="preserve" y="19.1543" clip-path="url(#clipPath1)" stroke="none">type</text>
    </g>
    <g text-rendering="geometricPrecision" stroke-miterlimit="1.45" shape-rendering="geometricPrecision" stroke-linecap="butt">
      <rect x="410" y="60" clip-path="url(#clipPath1)" fill="none" width="175" rx="4" ry="4" height="150"/>
    </g>
    <g fill="rgb(34,68,153)" text-rendering="geometricPrecision" shape-rendering="geometricPrecision" stroke="rgb(34,68,153)">
      <rect x="820" y="60" clip-path="url(#clipPath1)" width="175" rx="4" ry="4" height="30" stroke="none"/>
    </g>
    <g stroke-linecap="butt" fill="white" text-rendering="geometricPrecision" font-family="'DejaVu Sans'" shape-rendering="geometricPrecision" stroke="white" font-weight="bold" stroke-miterlimit="1.45">
      <text x="856.1807" xml:space="preserve" y="79.1543" clip-path="url(#clipPath1)" stroke="none">observedRobot</text>
    </g>
    <g fill="rgb(187,68,34)" text-rendering="geometricPrecision" shape-rendering="geometricPrecision" stroke="rgb(187,68,34)">
      <rect x="820" y="120" clip-path="url(#clipPath1)" width="175" rx="4" ry="4" height="30" stroke="none"/>
    </g>
    <g stroke-linecap="butt" fill="white" text-rendering="geometricPrecision" font-family="'DejaVu Sans'" shape-rendering="geometricPrecision" stroke="white" font-weight="bold" stroke-miterlimit="1.45">
      <text x="836.3145" xml:space="preserve" y="139.1543" clip-path="url(#clipPath1)" stroke="none">IndependentVariable</text>
    </g>
    <g fill="rgb(0,102,34)" text-rendering="geometricPrecision" shape-rendering="geometricPrecision" stroke="rgb(0,102,34)">
      <rect x="820" y="180" clip-path="url(#clipPath1)" width="175" rx="4" ry="4" height="30" stroke="none"/>
    </g>
    <g stroke-linecap="butt" fill="white" text-rendering="geometricPrecision" font-family="'DejaVu Sans'" shape-rendering="geometricPrecision" stroke="white" font-weight="bold" stroke-miterlimit="1.45">
      <text x="893.332" xml:space="preserve" y="199.1543" clip-path="url(#clipPath1)" stroke="none">true</text>
    </g>
    <g fill="rgb(34,68,153)" text-rendering="geometricPrecision" shape-rendering="geometricPrecision" stroke="rgb(34,68,153)">
      <rect x="205" y="120" clip-path="url(#clipPath1)" width="175" rx="4" ry="4" height="30" stroke="none"/>
    </g>
    <g stroke-linecap="butt" fill="white" text-rendering="geometricPrecision" font-family="'DejaVu Sans'" shape-rendering="geometricPrecision" stroke="white" font-weight="bold" stroke-miterlimit="1.45">
      <text x="224.0801" xml:space="preserve" y="139.1543" clip-path="url(#clipPath1)" stroke="none">hasParameterUsage</text>
    </g>
    <g fill="rgb(34,68,153)" text-rendering="geometricPrecision" shape-rendering="geometricPrecision" stroke="rgb(34,68,153)">
      <rect x="615" y="60" clip-path="url(#clipPath1)" width="175" rx="4" ry="4" height="30" stroke="none"/>
    </g>
    <g stroke-linecap="butt" fill="white" text-rendering="geometricPrecision" font-family="'DejaVu Sans'" shape-rendering="geometricPrecision" stroke="white" font-weight="bold" stroke-miterlimit="1.45">
      <text x="651.3447" xml:space="preserve" y="79.1543" clip-path="url(#clipPath1)" stroke="none">usesParameter</text>
    </g>
    <g fill="rgb(34,68,153)" text-rendering="geometricPrecision" shape-rendering="geometricPrecision" stroke="rgb(34,68,153)">
      <rect x="615" y="120" clip-path="url(#clipPath1)" width="175" rx="4" ry="4" height="30" stroke="none"/>
    </g>
    <g stroke-linecap="butt" fill="white" text-rendering="geometricPrecision" font-family="'DejaVu Sans'" shape-rendering="geometricPrecision" stroke="white" font-weight="bold" stroke-miterlimit="1.45">
      <text x="647.5625" xml:space="preserve" y="139.1543" clip-path="url(#clipPath1)" stroke="none">hasVariableRole</text>
    </g>
    <g fill="rgb(34,68,153)" text-rendering="geometricPrecision" shape-rendering="geometricPrecision" stroke="rgb(34,68,153)">
      <rect x="615" y="180" clip-path="url(#clipPath1)" width="175" rx="4" ry="4" height="30" stroke="none"/>
    </g>
    <g stroke-linecap="butt" fill="white" text-rendering="geometricPrecision" font-family="'DejaVu Sans'" shape-rendering="geometricPrecision" stroke="white" font-weight="bold" stroke-miterlimit="1.45">
      <text x="666.2363" xml:space="preserve" y="199.1543" clip-path="url(#clipPath1)" stroke="none">isRequired</text>
    </g>
    <g text-rendering="geometricPrecision" stroke-miterlimit="1.45" shape-rendering="geometricPrecision" stroke-linecap="butt">
      <rect x="410" y="240" clip-path="url(#clipPath1)" fill="none" width="175" rx="4" ry="4" height="150"/>
    </g>
    <g fill="rgb(34,68,153)" text-rendering="geometricPrecision" shape-rendering="geometricPrecision" stroke="rgb(34,68,153)">
      <rect x="820" y="240" clip-path="url(#clipPath1)" width="175" rx="4" ry="4" height="30" stroke="none"/>
    </g>
    <g stroke-linecap="butt" fill="white" text-rendering="geometricPrecision" font-family="'DejaVu Sans'" shape-rendering="geometricPrecision" stroke="white" font-weight="bold" stroke-miterlimit="1.45">
      <text x="871.1162" xml:space="preserve" y="259.1543" clip-path="url(#clipPath1)" stroke="none">travelTime</text>
    </g>
    <g fill="rgb(187,68,34)" text-rendering="geometricPrecision" shape-rendering="geometricPrecision" stroke="rgb(187,68,34)">
      <rect x="820" y="300" clip-path="url(#clipPath1)" width="175" rx="4" ry="4" height="30" stroke="none"/>
    </g>
    <g stroke-linecap="butt" fill="white" text-rendering="geometricPrecision" font-family="'DejaVu Sans'" shape-rendering="geometricPrecision" stroke="white" font-weight="bold" stroke-miterlimit="1.45">
      <text x="842.1328" xml:space="preserve" y="319.1543" clip-path="url(#clipPath1)" stroke="none">DependentVariable</text>
    </g>
    <g fill="rgb(0,102,34)" text-rendering="geometricPrecision" shape-rendering="geometricPrecision" stroke="rgb(0,102,34)">
      <rect x="820" y="360" clip-path="url(#clipPath1)" width="175" rx="4" ry="4" height="30" stroke="none"/>
    </g>
    <g stroke-linecap="butt" fill="white" text-rendering="geometricPrecision" font-family="'DejaVu Sans'" shape-rendering="geometricPrecision" stroke="white" font-weight="bold" stroke-miterlimit="1.45">
      <text x="893.332" xml:space="preserve" y="379.1543" clip-path="url(#clipPath1)" stroke="none">true</text>
    </g>
    <g fill="rgb(34,68,153)" text-rendering="geometricPrecision" shape-rendering="geometricPrecision" stroke="rgb(34,68,153)">
      <rect x="205" y="300" clip-path="url(#clipPath1)" width="175" rx="4" ry="4" height="30" stroke="none"/>
    </g>
    <g stroke-linecap="butt" fill="white" text-rendering="geometricPrecision" font-family="'DejaVu Sans'" shape-rendering="geometricPrecision" stroke="white" font-weight="bold" stroke-miterlimit="1.45">
      <text x="224.0801" xml:space="preserve" y="319.1543" clip-path="url(#clipPath1)" stroke="none">hasParameterUsage</text>
    </g>
    <g fill="rgb(34,68,153)" text-rendering="geometricPrecision" shape-rendering="geometricPrecision" stroke="rgb(34,68,153)">
      <rect x="615" y="240" clip-path="url(#clipPath1)" width="175" rx="4" ry="4" height="30" stroke="none"/>
    </g>
    <g stroke-linecap="butt" fill="white" text-rendering="geometricPrecision" font-family="'DejaVu Sans'" shape-rendering="geometricPrecision" stroke="white" font-weight="bold" stroke-miterlimit="1.45">
      <text x="651.3447" xml:space="preserve" y="259.1543" clip-path="url(#clipPath1)" stroke="none">usesParameter</text>
    </g>
    <g fill="rgb(34,68,153)" text-rendering="geometricPrecision" shape-rendering="geometricPrecision" stroke="rgb(34,68,153)">
      <rect x="615" y="300" clip-path="url(#clipPath1)" width="175" rx="4" ry="4" height="30" stroke="none"/>
    </g>
    <g stroke-linecap="butt" fill="white" text-rendering="geometricPrecision" font-family="'DejaVu Sans'" shape-rendering="geometricPrecision" stroke="white" font-weight="bold" stroke-miterlimit="1.45">
      <text x="647.5625" xml:space="preserve" y="319.1543" clip-path="url(#clipPath1)" stroke="none">hasVariableRole</text>
    </g>
    <g fill="rgb(34,68,153)" text-rendering="geometricPrecision" shape-rendering="geometricPrecision" stroke="rgb(34,68,153)">
      <rect x="615" y="360" clip-path="url(#clipPath1)" width="175" rx="4" ry="4" height="30" stroke="none"/>
    </g>
    <g stroke-linecap="butt" fill="white" text-rendering="geometricPrecision" font-family="'DejaVu Sans'" shape-rendering="geometricPrecision" stroke="white" font-weight="bold" stroke-miterlimit="1.45">
      <text x="666.2363" xml:space="preserve" y="379.1543" clip-path="url(#clipPath1)" stroke="none">isRequired</text>
    </g>
    <g stroke-linecap="butt" fill="rgb(34,68,153)" text-rendering="geometricPrecision" shape-rendering="geometricPrecision" stroke="rgb(34,68,153)" stroke-width="3" stroke-miterlimit="1.45">
      <path fill="none" d="M180.0076 15 L204.9831 15" clip-path="url(#clipPath1)"/>
      <path d="M170.0076 15 C170.0076 12.2386 172.2462 10 175.0076 10 C177.769 10 180.0076 12.2386 180.0076 15 C180.0076 17.7614 177.769 20 175.0076 20 C172.2462 20 170.0076 17.7614 170.0076 15 Z" clip-path="url(#clipPath1)" stroke="none"/>
      <path fill="none" d="M380.0104 15 L396.2351 15" clip-path="url(#clipPath1)"/>
      <path d="M409.9851 15 L394.9851 7.5 L394.9851 22.5 Z" clip-path="url(#clipPath1)" stroke="none"/>
      <path fill="none" d="M180.0121 135 L204.9864 135" clip-path="url(#clipPath1)"/>
      <path d="M170.0121 135 C170.0121 132.2386 172.2507 130 175.0121 130 C177.7735 130 180.0121 132.2386 180.0121 135 C180.0121 137.7614 177.7735 140 175.0121 140 C172.2507 140 170.0121 137.7614 170.0121 135 Z" clip-path="url(#clipPath1)" stroke="none"/>
      <path fill="none" d="M380.0104 135 L396.2351 135" clip-path="url(#clipPath1)"/>
      <path d="M409.9851 135 L394.9851 127.5 L394.9851 142.5 Z" clip-path="url(#clipPath1)" stroke="none"/>
      <path fill="none" d="M590.0181 75 L614.9908 75" clip-path="url(#clipPath1)"/>
      <path d="M580.0181 75 C580.0181 72.2386 582.2567 70 585.0181 70 C587.7795 70 590.0181 72.2386 590.0181 75 C590.0181 77.7614 587.7795 80 585.0181 80 C582.2567 80 580.0181 77.7614 580.0181 75 Z" clip-path="url(#clipPath1)" stroke="none"/>
      <path fill="none" d="M790.0104 75 L806.2352 75" clip-path="url(#clipPath1)"/>
      <path d="M819.9852 75 L804.9852 67.5 L804.9852 82.5 Z" clip-path="url(#clipPath1)" stroke="none"/>
      <path fill="none" d="M589.9835 135 L615.0225 135" clip-path="url(#clipPath1)"/>
      <path d="M579.9835 135 C579.9835 132.2386 582.2221 130 584.9835 130 C587.7449 130 589.9835 132.2386 589.9835 135 C589.9835 137.7614 587.7449 140 584.9835 140 C582.2221 140 579.9835 137.7614 579.9835 135 Z" clip-path="url(#clipPath1)" stroke="none"/>
      <path fill="none" d="M790.0104 135 L806.2352 135" clip-path="url(#clipPath1)"/>
      <path d="M819.9852 135 L804.9852 127.5 L804.9852 142.5 Z" clip-path="url(#clipPath1)" stroke="none"/>
      <path fill="none" d="M590.0309 195 L615.0004 195" clip-path="url(#clipPath1)"/>
      <path d="M580.0309 195 C580.0309 192.2386 582.2695 190 585.0309 190 C587.7924 190 590.0309 192.2386 590.0309 195 C590.0309 197.7614 587.7924 200 585.0309 200 C582.2695 200 580.0309 197.7614 580.0309 195 Z" clip-path="url(#clipPath1)" stroke="none"/>
      <path fill="none" d="M790.0104 195 L806.2352 195" clip-path="url(#clipPath1)"/>
      <path d="M819.9852 195 L804.9852 187.5 L804.9852 202.5 Z" clip-path="url(#clipPath1)" stroke="none"/>
      <path fill="none" d="M180.001 315 L204.9782 315" clip-path="url(#clipPath1)"/>
      <path d="M170.001 315 C170.001 312.2386 172.2396 310 175.001 310 C177.7625 310 180.001 312.2386 180.001 315 C180.001 317.7614 177.7625 320 175.001 320 C172.2396 320 170.001 317.7614 170.001 315 Z" clip-path="url(#clipPath1)" stroke="none"/>
      <path fill="none" d="M380.0104 315 L396.2351 315" clip-path="url(#clipPath1)"/>
      <path d="M409.9851 315 L394.9851 307.5 L394.9851 322.5 Z" clip-path="url(#clipPath1)" stroke="none"/>
      <path fill="none" d="M590.0181 255 L614.9908 255" clip-path="url(#clipPath1)"/>
      <path d="M580.0181 255 C580.0181 252.2386 582.2567 250 585.0181 250 C587.7795 250 590.0181 252.2386 590.0181 255 C590.0181 257.7614 587.7795 260 585.0181 260 C582.2567 260 580.0181 257.7614 580.0181 255 Z" clip-path="url(#clipPath1)" stroke="none"/>
      <path fill="none" d="M790.0104 255 L806.2352 255" clip-path="url(#clipPath1)"/>
      <path d="M819.9852 255 L804.9852 247.5 L804.9852 262.5 Z" clip-path="url(#clipPath1)" stroke="none"/>
      <path fill="none" d="M589.9835 315 L615.0225 315" clip-path="url(#clipPath1)"/>
      <path d="M579.9835 315 C579.9835 312.2386 582.2221 310 584.9835 310 C587.7449 310 589.9835 312.2386 589.9835 315 C589.9835 317.7614 587.7449 320 584.9835 320 C582.2221 320 579.9835 317.7614 579.9835 315 Z" clip-path="url(#clipPath1)" stroke="none"/>
      <path fill="none" d="M790.0104 315 L806.2352 315" clip-path="url(#clipPath1)"/>
      <path d="M819.9852 315 L804.9852 307.5 L804.9852 322.5 Z" clip-path="url(#clipPath1)" stroke="none"/>
      <path fill="none" d="M590.0309 375 L615.0004 375" clip-path="url(#clipPath1)"/>
      <path d="M580.0309 375 C580.0309 372.2386 582.2695 370 585.0309 370 C587.7924 370 590.0309 372.2386 590.0309 375 C590.0309 377.7614 587.7924 380 585.0309 380 C582.2695 380 580.0309 377.7614 580.0309 375 Z" clip-path="url(#clipPath1)" stroke="none"/>
      <path fill="none" d="M790.0104 375 L806.2352 375" clip-path="url(#clipPath1)"/>
      <path d="M819.9852 375 L804.9852 367.5 L804.9852 382.5 Z" clip-path="url(#clipPath1)" stroke="none"/>
    </g>
  </g>
</svg>
