<?xml version="1.0" encoding="UTF-8"?><svg xmlns="http://www.w3.org/2000/svg" xmlns:xlink="http://www.w3.org/1999/xlink" fill-opacity="1" color-rendering="auto" color-interpolation="auto" text-rendering="auto" stroke="black" stroke-linecap="square" width="1405" stroke-miterlimit="10" shape-rendering="auto" stroke-opacity="1" fill="black" stroke-dasharray="none" font-weight="normal" stroke-width="1" height="870" font-family="'Dialog'" font-style="normal" stroke-linejoin="miter" font-size="12px" stroke-dashoffset="0" image-rendering="auto">
  <!--Generated by ySVG 2.6-->
  <defs id="genericDefs"/>
  <g>
    <defs id="defs1">
      <clipPath clipPathUnits="userSpaceOnUse" id="clipPath1">
        <path d="M0 0 L1405 0 L1405 870 L0 870 L0 0 Z"/>
      </clipPath>
    </defs>
    <g fill="white" text-rendering="geometricPrecision" shape-rendering="geometricPrecision" stroke="white">
      <rect x="0" width="1405" height="870" y="0" clip-path="url(#clipPath1)" stroke="none"/>
    </g>
    <g fill="rgb(187,68,34)" text-rendering="geometricPrecision" shape-rendering="geometricPrecision" stroke="rgb(187,68,34)">
      <rect x="0" y="0" clip-path="url(#clipPath1)" width="175" rx="4" ry="4" height="870" stroke="none"/>
    </g>
    <g stroke-linecap="butt" fill="white" text-rendering="geometricPrecision" font-family="'DejaVu Sans'" shape-rendering="geometricPrecision" stroke="white" font-weight="bold" stroke-miterlimit="1.45">
      <text x="22.959" xml:space="preserve" y="439.1543" clip-path="url(#clipPath1)" stroke="none">ObstacleAvoidance</text>
    </g>
    <g fill="rgb(187,68,34)" text-rendering="geometricPrecision" shape-rendering="geometricPrecision" stroke="rgb(187,68,34)">
      <rect x="410" y="0" clip-path="url(#clipPath1)" width="175" rx="4" ry="4" height="30" stroke="none"/>
    </g>
    <g stroke-linecap="butt" fill="white" text-rendering="geometricPrecision" font-family="'DejaVu Sans'" shape-rendering="geometricPrecision" stroke="white" font-weight="bold" stroke-miterlimit="1.45">
      <text x="442.3223" xml:space="preserve" y="19.1543" clip-path="url(#clipPath1)" stroke="none">ExperimentType</text>
    </g>
    <g fill="rgb(34,68,153)" text-rendering="geometricPrecision" shape-rendering="geometricPrecision" stroke="rgb(34,68,153)">
      <rect x="205" y="0" clip-path="url(#clipPath1)" width="175" rx="4" ry="4" height="30" stroke="none"/>
    </g>
    <g stroke-linecap="butt" fill="white" text-rendering="geometricPrecision" font-family="'DejaVu Sans'" shape-rendering="geometricPrecision" stroke="white" font-weight="bold" stroke-miterlimit="1.45">
      <text x="277.3564" xml:space="preserve" y="19.1543" clip-path="url(#clipPath1)" stroke="none">type</text>
    </g>
    <g text-rendering="geometricPrecision" stroke-miterlimit="1.45" shape-rendering="geometricPrecision" stroke-linecap="butt">
      <rect x="410" y="60" clip-path="url(#clipPath1)" fill="none" width="175" rx="4" ry="4" height="150"/>
    </g>
    <g fill="rgb(34,68,153)" text-rendering="geometricPrecision" shape-rendering="geometricPrecision" stroke="rgb(34,68,153)">
      <rect x="820" y="60" clip-path="url(#clipPath1)" width="175" rx="4" ry="4" height="30" stroke="none"/>
    </g>
    <g stroke-linecap="butt" fill="white" text-rendering="geometricPrecision" font-family="'DejaVu Sans'" shape-rendering="geometricPrecision" stroke="white" font-weight="bold" stroke-miterlimit="1.45">
      <text x="856.1807" xml:space="preserve" y="79.1543" clip-path="url(#clipPath1)" stroke="none">observedRobot</text>
    </g>
    <g fill="rgb(187,68,34)" text-rendering="geometricPrecision" shape-rendering="geometricPrecision" stroke="rgb(187,68,34)">
      <rect x="820" y="120" clip-path="url(#clipPath1)" width="175" rx="4" ry="4" height="30" stroke="none"/>
    </g>
    <g stroke-linecap="butt" fill="white" text-rendering="geometricPrecision" font-family="'DejaVu Sans'" shape-rendering="geometricPrecision" stroke="white" font-weight="bold" stroke-miterlimit="1.45">
      <text x="836.3145" xml:space="preserve" y="139.1543" clip-path="url(#clipPath1)" stroke="none">IndependentVariable</text>
    </g>
    <g fill="rgb(0,102,34)" text-rendering="geometricPrecision" shape-rendering="geometricPrecision" stroke="rgb(0,102,34)">
      <rect x="820" y="180" clip-path="url(#clipPath1)" width="175" rx="4" ry="4" height="30" stroke="none"/>
    </g>
    <g stroke-linecap="butt" fill="white" text-rendering="geometricPrecision" font-family="'DejaVu Sans'" shape-rendering="geometricPrecision" stroke="white" font-weight="bold" stroke-miterlimit="1.45">
      <text x="893.332" xml:space="preserve" y="199.1543" clip-path="url(#clipPath1)" stroke="none">true</text>
    </g>
    <g fill="rgb(34,68,153)" text-rendering="geometricPrecision" shape-rendering="geometricPrecision" stroke="rgb(34,68,153)">
      <rect x="205" y="120" clip-path="url(#clipPath1)" width="175" rx="4" ry="4" height="30" stroke="none"/>
    </g>
    <g stroke-linecap="butt" fill="white" text-rendering="geometricPrecision" font-family="'DejaVu Sans'" shape-rendering="geometricPrecision" stroke="white" font-weight="bold" stroke-miterlimit="1.45">
      <text x="224.0801" xml:space="preserve" y="139.1543" clip-path="url(#clipPath1)" stroke="none">hasParameterUsage</text>
    </g>
    <g fill="rgb(34,68,153)" text-rendering="geometricPrecision" shape-rendering="geometricPrecision" stroke="rgb(34,68,153)">
      <rect x="615" y="60" clip-path="url(#clipPath1)" width="175" rx="4" ry="4" height="30" stroke="none"/>
    </g>
    <g stroke-linecap="butt" fill="white" text-rendering="geometricPrecision" font-family="'DejaVu Sans'" shape-rendering="geometricPrecision" stroke="white" font-weight="bold" stroke-miterlimit="1.45">
      <text x="651.3447" xml:space="preserve" y="79.1543" clip-path="url(#clipPath1)" stroke="none">usesParameter</text>
    </g>
    <g fill="rgb(34,68,153)" text-rendering="geometricPrecision" shape-rendering="geometricPrecision" stroke="rgb(34,68,153)">
      <rect x="615" y="120" clip-path="url(#clipPath1)" width="175" rx="4" ry="4" height="30" stroke="none"/>
    </g>
    <g stroke-linecap="butt" fill="white" text-rendering="geometricPrecision" font-family="'DejaVu Sans'" shape-rendering="geometricPrecision" stroke="white" font-weight="bold" stroke-miterlimit="1.45">
      <text x="647.5625" xml:space="preserve" y="139.1543" clip-path="url(#clipPath1)" stroke="none">hasVariableRole</text>
    </g>
    <g fill="rgb(34,68,153)" text-rendering="geometricPrecision" shape-rendering="geometricPrecision" stroke="rgb(34,68,153)">
      <rect x="615" y="180" clip-path="url(#clipPath1)" width="175" rx="4" ry="4" height="30" stroke="none"/>
    </g>
    <g stroke-linecap="butt" fill="white" text-rendering="geometricPrecision" font-family="'DejaVu Sans'" shape-rendering="geometricPrecision" stroke="white" font-weight="bold" stroke-miterlimit="1.45">
      <text x="666.2363" xml:space="preserve" y="199.1543" clip-path="url(#clipPath1)" stroke="none">isRequired</text>
    </g>
    <g text-rendering="geometricPrecision" stroke-miterlimit="1.45" shape-rendering="geometricPrecision" stroke-linecap="butt">
      <rect x="410" y="240" clip-path="url(#clipPath1)" fill="none" width="175" rx="4" ry="4" height="150"/>
    </g>
    <g fill="rgb(34,68,153)" text-rendering="geometricPrecision" shape-rendering="geometricPrecision" stroke="rgb(34,68,153)">
      <rect x="820" y="240" clip-path="url(#clipPath1)" width="175" rx="4" ry="4" height="30" stroke="none"/>
    </g>
    <g stroke-linecap="butt" fill="white" text-rendering="geometricPrecision" font-family="'DejaVu Sans'" shape-rendering="geometricPrecision" stroke="white" font-weight="bold" stroke-miterlimit="1.45">
      <text x="871.1162" xml:space="preserve" y="259.1543" clip-path="url(#clipPath1)" stroke="none">travelTime</text>
    </g>
    <g fill="rgb(187,68,34)" text-rendering="geometricPrecision" shape-rendering="geometricPrecision" stroke="rgb(187,68,34)">
      <rect x="820" y="300" clip-path="url(#clipPath1)" width="175" rx="4" ry="4" height="30" stroke="none"/>
    </g>
    <g stroke-linecap="butt" fill="white" text-rendering="geometricPrecision" font-family="'DejaVu Sans'" shape-rendering="geometricPrecision" stroke="white" font-weight="bold" stroke-miterlimit="1.45">
      <text x="842.1328" xml:space="preserve" y="319.1543" clip-path="url(#clipPath1)" stroke="none">DependentVariable</text>
    </g>
    <g fill="rgb(0,102,34)" text-rendering="geometricPrecision" shape-rendering="geometricPrecision" stroke="rgb(0,102,34)">
      <rect x="820" y="360" clip-path="url(#clipPath1)" width="175" rx="4" ry="4" height="30" stroke="none"/>
    </g>
    <g stroke-linecap="butt" fill="white" text-rendering="geometricPrecision" font-family="'DejaVu Sans'" shape-rendering="geometricPrecision" stroke="white" font-weight="bold" stroke-miterlimit="1.45">
      <text x="893.332" xml:space="preserve" y="379.1543" clip-path="url(#clipPath1)" stroke="none">true</text>
    </g>
    <g fill="rgb(34,68,153)" text-rendering="geometricPrecision" shape-rendering="geometricPrecision" stroke="rgb(34,68,153)">
      <rect x="205" y="300" clip-path="url(#clipPath1)" width="175" rx="4" ry="4" height="30" stroke="none"/>
    </g>
    <g stroke-linecap="butt" fill="white" text-rendering="geometricPrecision" font-family="'DejaVu Sans'" shape-rendering="geometricPrecision" stroke="white" font-weight="bold" stroke-miterlimit="1.45">
      <text x="224.0801" xml:space="preserve" y="319.1543" clip-path="url(#clipPath1)" stroke="none">hasParameterUsage</text>
    </g>
    <g fill="rgb(34,68,153)" text-rendering="geometricPrecision" shape-rendering="geometricPrecision" stroke="rgb(34,68,153)">
      <rect x="615" y="240" clip-path="url(#clipPath1)" width="175" rx="4" ry="4" height="30" stroke="none"/>
    </g>
    <g stroke-linecap="butt" fill="white" text-rendering="geometricPrecision" font-family="'DejaVu Sans'" shape-rendering="geometricPrecision" stroke="white" font-weight="bold" stroke-miterlimit="1.45">
      <text x="651.3447" xml:space="preserve" y="259.1543" clip-path="url(#clipPath1)" stroke="none">usesParameter</text>
    </g>
    <g fill="rgb(34,68,153)" text-rendering="geometricPrecision" shape-rendering="geometricPrecision" stroke="rgb(34,68,153)">
      <rect x="615" y="300" clip-path="url(#clipPath1)" width="175" rx="4" ry="4" height="30" stroke="none"/>
    </g>
    <g stroke-linecap="butt" fill="white" text-rendering="geometricPrecision" font-family="'DejaVu Sans'" shape-rendering="geometricPrecision" stroke="white" font-weight="bold" stroke-miterlimit="1.45">
      <text x="647.5625" xml:space="preserve" y="319.1543" clip-path="url(#clipPath1)" stroke="none">hasVariableRole</text>
    </g>
    <g fill="rgb(34,68,153)" text-rendering="geometricPrecision" shape-rendering="geometricPrecision" stroke="rgb(34,68,153)">
      <rect x="615" y="360" clip-path="url(#clipPath1)" width="175" rx="4" ry="4" height="30" stroke="none"/>
    </g>
    <g stroke-linecap="butt" fill="white" text-rendering="geometricPrecision" font-family="'DejaVu Sans'" shape-rendering="geometricPrecision" stroke="white" font-weight="bold" stroke-miterlimit="1.45">
      <text x="666.2363" xml:space="preserve" y="379.1543" clip-path="url(#clipPath1)" stroke="none">isRequired</text>
    </g>
    <g text-rendering="geometricPrecision" stroke-miterlimit="1.45" shape-rendering="geometricPrecision" stroke-linecap="butt">
      <rect x="410" y="420" clip-path="url(#clipPath1)" fill="none" width="175" rx="4" ry="4" height="450"/>
      <rect x="820" y="420" clip-path="url(#clipPath1)" fill="none" width="175" rx="4" ry="4" height="90"/>
    </g>
    <g fill="rgb(187,68,34)" text-rendering="geometricPrecision" shape-rendering="geometricPrecision" stroke="rgb(187,68,34)">
      <rect x="1230" y="420" clip-path="url(#clipPath1)" width="175" rx="4" ry="4" height="30" stroke="none"/>
    </g>
    <g stroke-linecap="butt" fill="white" text-rendering="geometricPrecision" font-family="'DejaVu Sans'" shape-rendering="geometricPrecision" stroke="white" font-weight="bold" stroke-miterlimit="1.45">
      <text x="1238.1084" xml:space="preserve" y="439.1543" clip-path="url(#clipPath1)" stroke="none">ResearchObjectiveSpec</text>
    </g>
    <g fill="rgb(0,102,34)" text-rendering="geometricPrecision" shape-rendering="geometricPrecision" stroke="rgb(0,102,34)">
      <rect x="1230" y="480" clip-path="url(#clipPath1)" width="175" rx="4" ry="4" height="30" stroke="none"/>
    </g>
    <g stroke-linecap="butt" fill="white" text-rendering="geometricPrecision" font-family="'DejaVu Sans'" shape-rendering="geometricPrecision" stroke="white" font-weight="bold" stroke-miterlimit="1.45">
      <text x="1249.0771" xml:space="preserve" y="499.1543" clip-path="url(#clipPath1)" stroke="none">"The objective is ..."</text>
    </g>
    <g fill="rgb(187,68,34)" text-rendering="geometricPrecision" shape-rendering="geometricPrecision" stroke="rgb(187,68,34)">
      <rect x="1230" y="540" clip-path="url(#clipPath1)" width="175" rx="4" ry="4" height="30" stroke="none"/>
    </g>
    <g stroke-linecap="butt" fill="white" text-rendering="geometricPrecision" font-family="'DejaVu Sans'" shape-rendering="geometricPrecision" stroke="white" font-weight="bold" stroke-miterlimit="1.45">
      <text x="1242.623" xml:space="preserve" y="559.1543" clip-path="url(#clipPath1)" stroke="none">ExperimentSetupSpec</text>
    </g>
    <g text-rendering="geometricPrecision" stroke-miterlimit="1.45" shape-rendering="geometricPrecision" stroke-linecap="butt">
      <rect x="820" y="540" clip-path="url(#clipPath1)" fill="none" width="175" rx="4" ry="4" height="90"/>
    </g>
    <g fill="rgb(0,102,34)" text-rendering="geometricPrecision" shape-rendering="geometricPrecision" stroke="rgb(0,102,34)">
      <rect x="1230" y="600" clip-path="url(#clipPath1)" width="175" rx="4" ry="4" height="30" stroke="none"/>
    </g>
    <g stroke-linecap="butt" fill="white" text-rendering="geometricPrecision" font-family="'DejaVu Sans'" shape-rendering="geometricPrecision" stroke="white" font-weight="bold" stroke-miterlimit="1.45">
      <text x="1261.0068" xml:space="preserve" y="619.1543" clip-path="url(#clipPath1)" stroke="none">"The setup is ..."</text>
    </g>
    <g text-rendering="geometricPrecision" stroke-miterlimit="1.45" shape-rendering="geometricPrecision" stroke-linecap="butt">
      <rect x="820" y="660" clip-path="url(#clipPath1)" fill="none" width="175" rx="4" ry="4" height="90"/>
    </g>
    <g fill="rgb(187,68,34)" text-rendering="geometricPrecision" shape-rendering="geometricPrecision" stroke="rgb(187,68,34)">
      <rect x="1230" y="660" clip-path="url(#clipPath1)" width="175" rx="4" ry="4" height="30" stroke="none"/>
    </g>
    <g stroke-linecap="butt" fill="white" text-rendering="geometricPrecision" font-family="'DejaVu Sans'" shape-rendering="geometricPrecision" stroke="white" font-weight="bold" stroke-miterlimit="1.45">
      <text x="1266.5586" xml:space="preserve" y="679.1543" clip-path="url(#clipPath1)" stroke="none">ProcedureSpec</text>
    </g>
    <g fill="rgb(0,102,34)" text-rendering="geometricPrecision" shape-rendering="geometricPrecision" stroke="rgb(0,102,34)">
      <rect x="1230" y="720" clip-path="url(#clipPath1)" width="175" rx="4" ry="4" height="30" stroke="none"/>
    </g>
    <g stroke-linecap="butt" fill="white" text-rendering="geometricPrecision" font-family="'DejaVu Sans'" shape-rendering="geometricPrecision" stroke="white" font-weight="bold" stroke-miterlimit="1.45">
      <text x="1245.4854" xml:space="preserve" y="739.1543" clip-path="url(#clipPath1)" stroke="none">"The procedure is ..."</text>
    </g>
    <g text-rendering="geometricPrecision" stroke-miterlimit="1.45" shape-rendering="geometricPrecision" stroke-linecap="butt">
      <rect x="820" y="780" clip-path="url(#clipPath1)" fill="none" width="175" rx="4" ry="4" height="90"/>
    </g>
    <g fill="rgb(187,68,34)" text-rendering="geometricPrecision" shape-rendering="geometricPrecision" stroke="rgb(187,68,34)">
      <rect x="1230" y="780" clip-path="url(#clipPath1)" width="175" rx="4" ry="4" height="30" stroke="none"/>
    </g>
    <g stroke-linecap="butt" fill="white" text-rendering="geometricPrecision" font-family="'DejaVu Sans'" shape-rendering="geometricPrecision" stroke="white" font-weight="bold" stroke-miterlimit="1.45">
      <text x="1248.9189" xml:space="preserve" y="799.1543" clip-path="url(#clipPath1)" stroke="none">SuccessCriteriaSpec</text>
    </g>
    <g fill="rgb(0,102,34)" text-rendering="geometricPrecision" shape-rendering="geometricPrecision" stroke="rgb(0,102,34)">
      <rect x="1230" y="840" clip-path="url(#clipPath1)" width="175" rx="4" ry="4" height="30" stroke="none"/>
    </g>
    <g stroke-linecap="butt" fill="white" text-rendering="geometricPrecision" font-family="'DejaVu Sans'" shape-rendering="geometricPrecision" stroke="white" font-weight="bold" stroke-miterlimit="1.45">
      <text x="1267.6865" xml:space="preserve" y="859.1543" clip-path="url(#clipPath1)" stroke="none">"Success is ..."</text>
    </g>
    <g fill="rgb(34,68,153)" text-rendering="geometricPrecision" shape-rendering="geometricPrecision" stroke="rgb(34,68,153)">
      <rect x="615" y="450" clip-path="url(#clipPath1)" width="175" rx="4" ry="4" height="30" stroke="none"/>
    </g>
    <g stroke-linecap="butt" fill="white" text-rendering="geometricPrecision" font-family="'DejaVu Sans'" shape-rendering="geometricPrecision" stroke="white" font-weight="bold" stroke-miterlimit="1.45">
      <text x="676.335" xml:space="preserve" y="469.1543" clip-path="url(#clipPath1)" stroke="none">hasPart</text>
    </g>
    <g fill="rgb(34,68,153)" text-rendering="geometricPrecision" shape-rendering="geometricPrecision" stroke="rgb(34,68,153)">
      <rect x="615" y="570" clip-path="url(#clipPath1)" width="175" rx="4" ry="4" height="30" stroke="none"/>
    </g>
    <g stroke-linecap="butt" fill="white" text-rendering="geometricPrecision" font-family="'DejaVu Sans'" shape-rendering="geometricPrecision" stroke="white" font-weight="bold" stroke-miterlimit="1.45">
      <text x="676.335" xml:space="preserve" y="589.1543" clip-path="url(#clipPath1)" stroke="none">hasPart</text>
    </g>
    <g fill="rgb(34,68,153)" text-rendering="geometricPrecision" shape-rendering="geometricPrecision" stroke="rgb(34,68,153)">
      <rect x="615" y="690" clip-path="url(#clipPath1)" width="175" rx="4" ry="4" height="30" stroke="none"/>
    </g>
    <g stroke-linecap="butt" fill="white" text-rendering="geometricPrecision" font-family="'DejaVu Sans'" shape-rendering="geometricPrecision" stroke="white" font-weight="bold" stroke-miterlimit="1.45">
      <text x="676.335" xml:space="preserve" y="709.1543" clip-path="url(#clipPath1)" stroke="none">hasPart</text>
    </g>
    <g fill="rgb(34,68,153)" text-rendering="geometricPrecision" shape-rendering="geometricPrecision" stroke="rgb(34,68,153)">
      <rect x="615" y="810" clip-path="url(#clipPath1)" width="175" rx="4" ry="4" height="30" stroke="none"/>
    </g>
    <g stroke-linecap="butt" fill="white" text-rendering="geometricPrecision" font-family="'DejaVu Sans'" shape-rendering="geometricPrecision" stroke="white" font-weight="bold" stroke-miterlimit="1.45">
      <text x="676.335" xml:space="preserve" y="829.1543" clip-path="url(#clipPath1)" stroke="none">hasPart</text>
    </g>
    <g fill="rgb(34,68,153)" text-rendering="geometricPrecision" shape-rendering="geometricPrecision" stroke="rgb(34,68,153)">
      <rect x="1025" y="420" clip-path="url(#clipPath1)" width="175" rx="4" ry="4" height="30" stroke="none"/>
    </g>
    <g stroke-linecap="butt" fill="white" text-rendering="geometricPrecision" font-family="'DejaVu Sans'" shape-rendering="geometricPrecision" stroke="white" font-weight="bold" stroke-miterlimit="1.45">
      <text x="1097.3564" xml:space="preserve" y="439.1543" clip-path="url(#clipPath1)" stroke="none">type</text>
    </g>
    <g fill="rgb(34,68,153)" text-rendering="geometricPrecision" shape-rendering="geometricPrecision" stroke="rgb(34,68,153)">
      <rect x="1025" y="480" clip-path="url(#clipPath1)" width="175" rx="4" ry="4" height="30" stroke="none"/>
    </g>
    <g stroke-linecap="butt" fill="white" text-rendering="geometricPrecision" font-family="'DejaVu Sans'" shape-rendering="geometricPrecision" stroke="white" font-weight="bold" stroke-miterlimit="1.45">
      <text x="1074.3789" xml:space="preserve" y="499.1543" clip-path="url(#clipPath1)" stroke="none">description</text>
    </g>
    <g fill="rgb(34,68,153)" text-rendering="geometricPrecision" shape-rendering="geometricPrecision" stroke="rgb(34,68,153)">
      <rect x="1025" y="540" clip-path="url(#clipPath1)" width="175" rx="4" ry="4" height="30" stroke="none"/>
    </g>
    <g stroke-linecap="butt" fill="white" text-rendering="geometricPrecision" font-family="'DejaVu Sans'" shape-rendering="geometricPrecision" stroke="white" font-weight="bold" stroke-miterlimit="1.45">
      <text x="1097.3564" xml:space="preserve" y="559.1543" clip-path="url(#clipPath1)" stroke="none">type</text>
    </g>
    <g fill="rgb(34,68,153)" text-rendering="geometricPrecision" shape-rendering="geometricPrecision" stroke="rgb(34,68,153)">
      <rect x="1025" y="600" clip-path="url(#clipPath1)" width="175" rx="4" ry="4" height="30" stroke="none"/>
    </g>
    <g stroke-linecap="butt" fill="white" text-rendering="geometricPrecision" font-family="'DejaVu Sans'" shape-rendering="geometricPrecision" stroke="white" font-weight="bold" stroke-miterlimit="1.45">
      <text x="1074.3789" xml:space="preserve" y="619.1543" clip-path="url(#clipPath1)" stroke="none">description</text>
    </g>
    <g fill="rgb(34,68,153)" text-rendering="geometricPrecision" shape-rendering="geometricPrecision" stroke="rgb(34,68,153)">
      <rect x="1025" y="660" clip-path="url(#clipPath1)" width="175" rx="4" ry="4" height="30" stroke="none"/>
    </g>
    <g stroke-linecap="butt" fill="white" text-rendering="geometricPrecision" font-family="'DejaVu Sans'" shape-rendering="geometricPrecision" stroke="white" font-weight="bold" stroke-miterlimit="1.45">
      <text x="1097.3564" xml:space="preserve" y="679.1543" clip-path="url(#clipPath1)" stroke="none">type</text>
    </g>
    <g fill="rgb(34,68,153)" text-rendering="geometricPrecision" shape-rendering="geometricPrecision" stroke="rgb(34,68,153)">
      <rect x="1025" y="720" clip-path="url(#clipPath1)" width="175" rx="4" ry="4" height="30" stroke="none"/>
    </g>
    <g stroke-linecap="butt" fill="white" text-rendering="geometricPrecision" font-family="'DejaVu Sans'" shape-rendering="geometricPrecision" stroke="white" font-weight="bold" stroke-miterlimit="1.45">
      <text x="1074.3789" xml:space="preserve" y="739.1543" clip-path="url(#clipPath1)" stroke="none">description</text>
    </g>
    <g fill="rgb(34,68,153)" text-rendering="geometricPrecision" shape-rendering="geometricPrecision" stroke="rgb(34,68,153)">
      <rect x="1025" y="780" clip-path="url(#clipPath1)" width="175" rx="4" ry="4" height="30" stroke="none"/>
    </g>
    <g stroke-linecap="butt" fill="white" text-rendering="geometricPrecision" font-family="'DejaVu Sans'" shape-rendering="geometricPrecision" stroke="white" font-weight="bold" stroke-miterlimit="1.45">
      <text x="1097.3564" xml:space="preserve" y="799.1543" clip-path="url(#clipPath1)" stroke="none">type</text>
    </g>
    <g fill="rgb(34,68,153)" text-rendering="geometricPrecision" shape-rendering="geometricPrecision" stroke="rgb(34,68,153)">
      <rect x="1025" y="840" clip-path="url(#clipPath1)" width="175" rx="4" ry="4" height="30" stroke="none"/>
    </g>
    <g stroke-linecap="butt" fill="white" text-rendering="geometricPrecision" font-family="'DejaVu Sans'" shape-rendering="geometricPrecision" stroke="white" font-weight="bold" stroke-miterlimit="1.45">
      <text x="1074.3789" xml:space="preserve" y="859.1543" clip-path="url(#clipPath1)" stroke="none">description</text>
    </g>
    <g fill="rgb(34,68,153)" text-rendering="geometricPrecision" shape-rendering="geometricPrecision" stroke="rgb(34,68,153)">
      <rect x="205" y="630" clip-path="url(#clipPath1)" width="175" rx="4" ry="4" height="30" stroke="none"/>
    </g>
    <g stroke-linecap="butt" fill="white" text-rendering="geometricPrecision" font-family="'DejaVu Sans'" shape-rendering="geometricPrecision" stroke="white" font-weight="bold" stroke-miterlimit="1.45">
      <text x="220.2627" xml:space="preserve" y="649.1543" clip-path="url(#clipPath1)" stroke="none">hasMethodologySpec</text>
    </g>
    <g stroke-linecap="butt" fill="rgb(34,68,153)" text-rendering="geometricPrecision" shape-rendering="geometricPrecision" stroke="rgb(34,68,153)" stroke-width="3" stroke-miterlimit="1.45">
      <path fill="none" d="M180.0032 15 L204.9798 15" clip-path="url(#clipPath1)"/>
      <path d="M170.0032 15 C170.0032 12.2386 172.2418 10 175.0032 10 C177.7646 10 180.0032 12.2386 180.0032 15 C180.0032 17.7614 177.7646 20 175.0032 20 C172.2418 20 170.0032 17.7614 170.0032 15 Z" clip-path="url(#clipPath1)" stroke="none"/>
      <path fill="none" d="M380.0104 15 L396.2351 15" clip-path="url(#clipPath1)"/>
      <path d="M409.9851 15 L394.9851 7.5 L394.9851 22.5 Z" clip-path="url(#clipPath1)" stroke="none"/>
      <path fill="none" d="M180.0238 135 L204.9951 135" clip-path="url(#clipPath1)"/>
      <path d="M170.0238 135 C170.0238 132.2386 172.2624 130 175.0238 130 C177.7852 130 180.0238 132.2386 180.0238 135 C180.0238 137.7614 177.7852 140 175.0238 140 C172.2624 140 170.0238 137.7614 170.0238 135 Z" clip-path="url(#clipPath1)" stroke="none"/>
      <path fill="none" d="M380.0104 135 L396.2351 135" clip-path="url(#clipPath1)"/>
      <path d="M409.9851 135 L394.9851 127.5 L394.9851 142.5 Z" clip-path="url(#clipPath1)" stroke="none"/>
      <path fill="none" d="M590.0181 75 L614.9908 75" clip-path="url(#clipPath1)"/>
      <path d="M580.0181 75 C580.0181 72.2386 582.2567 70 585.0181 70 C587.7795 70 590.0181 72.2386 590.0181 75 C590.0181 77.7614 587.7795 80 585.0181 80 C582.2567 80 580.0181 77.7614 580.0181 75 Z" clip-path="url(#clipPath1)" stroke="none"/>
      <path fill="none" d="M790.0104 75 L806.2352 75" clip-path="url(#clipPath1)"/>
      <path d="M819.9852 75 L804.9852 67.5 L804.9852 82.5 Z" clip-path="url(#clipPath1)" stroke="none"/>
      <path fill="none" d="M589.9835 135 L615.0225 135" clip-path="url(#clipPath1)"/>
      <path d="M579.9835 135 C579.9835 132.2386 582.2221 130 584.9835 130 C587.7449 130 589.9835 132.2386 589.9835 135 C589.9835 137.7614 587.7449 140 584.9835 140 C582.2221 140 579.9835 137.7614 579.9835 135 Z" clip-path="url(#clipPath1)" stroke="none"/>
      <path fill="none" d="M790.0104 135 L806.2352 135" clip-path="url(#clipPath1)"/>
      <path d="M819.9852 135 L804.9852 127.5 L804.9852 142.5 Z" clip-path="url(#clipPath1)" stroke="none"/>
      <path fill="none" d="M590.0309 195 L615.0004 195" clip-path="url(#clipPath1)"/>
      <path d="M580.0309 195 C580.0309 192.2386 582.2695 190 585.0309 190 C587.7924 190 590.0309 192.2386 590.0309 195 C590.0309 197.7614 587.7924 200 585.0309 200 C582.2695 200 580.0309 197.7614 580.0309 195 Z" clip-path="url(#clipPath1)" stroke="none"/>
      <path fill="none" d="M790.0104 195 L806.2352 195" clip-path="url(#clipPath1)"/>
      <path d="M819.9852 195 L804.9852 187.5 L804.9852 202.5 Z" clip-path="url(#clipPath1)" stroke="none"/>
      <path fill="none" d="M180.0135 315 L204.9875 315" clip-path="url(#clipPath1)"/>
      <path d="M170.0135 315 C170.0135 312.2386 172.2521 310 175.0135 310 C177.7749 310 180.0135 312.2386 180.0135 315 C180.0135 317.7614 177.7749 320 175.0135 320 C172.2521 320 170.0135 317.7614 170.0135 315 Z" clip-path="url(#clipPath1)" stroke="none"/>
      <path fill="none" d="M380.0104 315 L396.2351 315" clip-path="url(#clipPath1)"/>
      <path d="M409.9851 315 L394.9851 307.5 L394.9851 322.5 Z" clip-path="url(#clipPath1)" stroke="none"/>
      <path fill="none" d="M590.0181 255 L614.9908 255" clip-path="url(#clipPath1)"/>
      <path d="M580.0181 255 C580.0181 252.2386 582.2567 250 585.0181 250 C587.7795 250 590.0181 252.2386 590.0181 255 C590.0181 257.7614 587.7795 260 585.0181 260 C582.2567 260 580.0181 257.7614 580.0181 255 Z" clip-path="url(#clipPath1)" stroke="none"/>
      <path fill="none" d="M790.0104 255 L806.2352 255" clip-path="url(#clipPath1)"/>
      <path d="M819.9852 255 L804.9852 247.5 L804.9852 262.5 Z" clip-path="url(#clipPath1)" stroke="none"/>
      <path fill="none" d="M589.9835 315 L615.0225 315" clip-path="url(#clipPath1)"/>
      <path d="M579.9835 315 C579.9835 312.2386 582.2221 310 584.9835 310 C587.7449 310 589.9835 312.2386 589.9835 315 C589.9835 317.7614 587.7449 320 584.9835 320 C582.2221 320 579.9835 317.7614 579.9835 315 Z" clip-path="url(#clipPath1)" stroke="none"/>
      <path fill="none" d="M790.0104 315 L806.2352 315" clip-path="url(#clipPath1)"/>
      <path d="M819.9852 315 L804.9852 307.5 L804.9852 322.5 Z" clip-path="url(#clipPath1)" stroke="none"/>
      <path fill="none" d="M590.0309 375 L615.0004 375" clip-path="url(#clipPath1)"/>
      <path d="M580.0309 375 C580.0309 372.2386 582.2695 370 585.0309 370 C587.7924 370 590.0309 372.2386 590.0309 375 C590.0309 377.7614 587.7924 380 585.0309 380 C582.2695 380 580.0309 377.7614 580.0309 375 Z" clip-path="url(#clipPath1)" stroke="none"/>
      <path fill="none" d="M790.0104 375 L806.2352 375" clip-path="url(#clipPath1)"/>
      <path d="M819.9852 375 L804.9852 367.5 L804.9852 382.5 Z" clip-path="url(#clipPath1)" stroke="none"/>
      <path fill="none" d="M590.0257 465 L614.9966 465" clip-path="url(#clipPath1)"/>
      <path d="M580.0257 465 C580.0257 462.2386 582.2643 460 585.0257 460 C587.7871 460 590.0257 462.2386 590.0257 465 C590.0257 467.7614 587.7871 470 585.0257 470 C582.2643 470 580.0257 467.7614 580.0257 465 Z" clip-path="url(#clipPath1)" stroke="none"/>
      <path fill="none" d="M790.0104 465 L806.2352 465" clip-path="url(#clipPath1)"/>
      <path d="M819.9852 465 L804.9852 457.5 L804.9852 472.5 Z" clip-path="url(#clipPath1)" stroke="none"/>
      <path fill="none" d="M590.0073 585 L614.9828 585" clip-path="url(#clipPath1)"/>
      <path d="M580.0073 585 C580.0073 582.2386 582.2459 580 585.0073 580 C587.7687 580 590.0073 582.2386 590.0073 585 C590.0073 587.7614 587.7687 590 585.0073 590 C582.2459 590 580.0073 587.7614 580.0073 585 Z" clip-path="url(#clipPath1)" stroke="none"/>
      <path fill="none" d="M790.0104 585 L806.2352 585" clip-path="url(#clipPath1)"/>
      <path d="M819.9852 585 L804.9852 577.5 L804.9852 592.5 Z" clip-path="url(#clipPath1)" stroke="none"/>
      <path fill="none" d="M590.0257 705 L614.9966 705" clip-path="url(#clipPath1)"/>
      <path d="M580.0257 705 C580.0257 702.2386 582.2643 700 585.0257 700 C587.7871 700 590.0257 702.2386 590.0257 705 C590.0257 707.7614 587.7871 710 585.0257 710 C582.2643 710 580.0257 707.7614 580.0257 705 Z" clip-path="url(#clipPath1)" stroke="none"/>
      <path fill="none" d="M790.0104 705 L806.2352 705" clip-path="url(#clipPath1)"/>
      <path d="M819.9852 705 L804.9852 697.5 L804.9852 712.5 Z" clip-path="url(#clipPath1)" stroke="none"/>
      <path fill="none" d="M590.0176 825 L614.9905 825" clip-path="url(#clipPath1)"/>
      <path d="M580.0176 825 C580.0176 822.2386 582.2562 820 585.0176 820 C587.7791 820 590.0176 822.2386 590.0176 825 C590.0176 827.7614 587.7791 830 585.0176 830 C582.2562 830 580.0176 827.7614 580.0176 825 Z" clip-path="url(#clipPath1)" stroke="none"/>
      <path fill="none" d="M790.0104 825 L806.2352 825" clip-path="url(#clipPath1)"/>
      <path d="M819.9852 825 L804.9852 817.5 L804.9852 832.5 Z" clip-path="url(#clipPath1)" stroke="none"/>
      <path fill="none" d="M1000.0134 435 L1024.9874 435" clip-path="url(#clipPath1)"/>
      <path d="M990.0134 435 C990.0134 432.2386 992.252 430 995.0134 430 C997.7748 430 1000.0134 432.2386 1000.0134 435 C1000.0134 437.7614 997.7748 440 995.0134 440 C992.252 440 990.0134 437.7614 990.0134 435 Z" clip-path="url(#clipPath1)" stroke="none"/>
      <path fill="none" d="M1200.0104 435 L1216.2351 435" clip-path="url(#clipPath1)"/>
      <path d="M1229.9851 435 L1214.9851 427.5 L1214.9851 442.5 Z" clip-path="url(#clipPath1)" stroke="none"/>
      <path fill="none" d="M1000.0215 495 L1024.9934 495" clip-path="url(#clipPath1)"/>
      <path d="M990.0215 495 C990.0215 492.2386 992.2601 490 995.0215 490 C997.783 490 1000.0215 492.2386 1000.0215 495 C1000.0215 497.7614 997.783 500 995.0215 500 C992.2601 500 990.0215 497.7614 990.0215 495 Z" clip-path="url(#clipPath1)" stroke="none"/>
      <path fill="none" d="M1200.0104 495 L1216.2351 495" clip-path="url(#clipPath1)"/>
      <path d="M1229.9851 495 L1214.9851 487.5 L1214.9851 502.5 Z" clip-path="url(#clipPath1)" stroke="none"/>
      <path fill="none" d="M1000.0112 555 L1024.9858 555" clip-path="url(#clipPath1)"/>
      <path d="M990.0112 555 C990.0112 552.2386 992.2498 550 995.0112 550 C997.7726 550 1000.0112 552.2386 1000.0112 555 C1000.0112 557.7614 997.7726 560 995.0112 560 C992.2498 560 990.0112 557.7614 990.0112 555 Z" clip-path="url(#clipPath1)" stroke="none"/>
      <path fill="none" d="M1200.0104 555 L1216.2351 555" clip-path="url(#clipPath1)"/>
      <path d="M1229.9851 555 L1214.9851 547.5 L1214.9851 562.5 Z" clip-path="url(#clipPath1)" stroke="none"/>
      <path fill="none" d="M1000.0215 615 L1024.9934 615" clip-path="url(#clipPath1)"/>
      <path d="M990.0215 615 C990.0215 612.2386 992.2601 610 995.0215 610 C997.783 610 1000.0215 612.2386 1000.0215 615 C1000.0215 617.7614 997.783 620 995.0215 620 C992.2601 620 990.0215 617.7614 990.0215 615 Z" clip-path="url(#clipPath1)" stroke="none"/>
      <path fill="none" d="M1200.0104 615 L1216.2351 615" clip-path="url(#clipPath1)"/>
      <path d="M1229.9851 615 L1214.9851 607.5 L1214.9851 622.5 Z" clip-path="url(#clipPath1)" stroke="none"/>
      <path fill="none" d="M1000.0134 675 L1024.9874 675" clip-path="url(#clipPath1)"/>
      <path d="M990.0134 675 C990.0134 672.2386 992.252 670 995.0134 670 C997.7748 670 1000.0134 672.2386 1000.0134 675 C1000.0134 677.7614 997.7748 680 995.0134 680 C992.252 680 990.0134 677.7614 990.0134 675 Z" clip-path="url(#clipPath1)" stroke="none"/>
      <path fill="none" d="M1200.0104 675 L1216.2351 675" clip-path="url(#clipPath1)"/>
      <path d="M1229.9851 675 L1214.9851 667.5 L1214.9851 682.5 Z" clip-path="url(#clipPath1)" stroke="none"/>
      <path fill="none" d="M1000.0112 735 L1024.9858 735" clip-path="url(#clipPath1)"/>
      <path d="M990.0112 735 C990.0112 732.2386 992.2498 730 995.0112 730 C997.7726 730 1000.0112 732.2386 1000.0112 735 C1000.0112 737.7614 997.7726 740 995.0112 740 C992.2498 740 990.0112 737.7614 990.0112 735 Z" clip-path="url(#clipPath1)" stroke="none"/>
      <path fill="none" d="M1200.0104 735 L1216.2351 735" clip-path="url(#clipPath1)"/>
      <path d="M1229.9851 735 L1214.9851 727.5 L1214.9851 742.5 Z" clip-path="url(#clipPath1)" stroke="none"/>
      <path fill="none" d="M1000.0237 795 L1024.9951 795" clip-path="url(#clipPath1)"/>
      <path d="M990.0237 795 C990.0237 792.2386 992.2623 790 995.0237 790 C997.7852 790 1000.0237 792.2386 1000.0237 795 C1000.0237 797.7614 997.7852 800 995.0237 800 C992.2623 800 990.0237 797.7614 990.0237 795 Z" clip-path="url(#clipPath1)" stroke="none"/>
      <path fill="none" d="M1200.0104 795 L1216.2351 795" clip-path="url(#clipPath1)"/>
      <path d="M1229.9851 795 L1214.9851 787.5 L1214.9851 802.5 Z" clip-path="url(#clipPath1)" stroke="none"/>
      <path fill="none" d="M1000.0134 855 L1024.9874 855" clip-path="url(#clipPath1)"/>
      <path d="M990.0134 855 C990.0134 852.2386 992.252 850 995.0134 850 C997.7748 850 1000.0134 852.2386 1000.0134 855 C1000.0134 857.7614 997.7748 860 995.0134 860 C992.252 860 990.0134 857.7614 990.0134 855 Z" clip-path="url(#clipPath1)" stroke="none"/>
      <path fill="none" d="M1200.0104 855 L1216.2351 855" clip-path="url(#clipPath1)"/>
      <path d="M1229.9851 855 L1214.9851 847.5 L1214.9851 862.5 Z" clip-path="url(#clipPath1)" stroke="none"/>
      <path fill="none" d="M180.0032 645 L204.9798 645" clip-path="url(#clipPath1)"/>
      <path d="M170.0032 645 C170.0032 642.2386 172.2418 640 175.0032 640 C177.7646 640 180.0032 642.2386 180.0032 645 C180.0032 647.7614 177.7646 650 175.0032 650 C172.2418 650 170.0032 647.7614 170.0032 645 Z" clip-path="url(#clipPath1)" stroke="none"/>
      <path fill="none" d="M380.0104 645 L396.2351 645" clip-path="url(#clipPath1)"/>
      <path d="M409.9851 645 L394.9851 637.5 L394.9851 652.5 Z" clip-path="url(#clipPath1)" stroke="none"/>
    </g>
  </g>
</svg>
