<?xml version="1.0" encoding="UTF-8"?><svg xmlns="http://www.w3.org/2000/svg" xmlns:xlink="http://www.w3.org/1999/xlink" fill-opacity="1" color-rendering="auto" color-interpolation="auto" text-rendering="auto" stroke="black" stroke-linecap="square" width="1405" stroke-miterlimit="10" shape-rendering="auto" stroke-opacity="1" fill="black" stroke-dasharray="none" font-weight="normal" stroke-width="1" height="510" font-family="'Dialog'" font-style="normal" stroke-linejoin="miter" font-size="12px" stroke-dashoffset="0" image-rendering="auto">
  <!--Generated by ySVG 2.6-->
  <defs id="genericDefs"/>
  <g>
    <defs id="defs1">
      <clipPath clipPathUnits="userSpaceOnUse" id="clipPath1">
        <path d="M0 0 L1405 0 L1405 510 L0 510 L0 0 Z"/>
      </clipPath>
    </defs>
    <g fill="white" text-rendering="geometricPrecision" shape-rendering="geometricPrecision" stroke="white">
      <rect x="0" width="1405" height="510" y="0" clip-path="url(#clipPath1)" stroke="none"/>
    </g>
    <g fill="rgb(187,68,34)" text-rendering="geometricPrecision" shape-rendering="geometricPrecision" stroke="rgb(187,68,34)">
      <rect x="0" y="0" clip-path="url(#clipPath1)" width="175" rx="4" ry="4" height="510" stroke="none"/>
    </g>
    <g stroke-linecap="butt" fill="white" text-rendering="geometricPrecision" font-family="'DejaVu Sans'" shape-rendering="geometricPrecision" stroke="white" font-weight="bold" stroke-miterlimit="1.45">
      <text x="22.959" xml:space="preserve" y="259.1543" clip-path="url(#clipPath1)" stroke="none">ObstacleAvoidance</text>
    </g>
    <g fill="rgb(187,68,34)" text-rendering="geometricPrecision" shape-rendering="geometricPrecision" stroke="rgb(187,68,34)">
      <rect x="410" y="0" clip-path="url(#clipPath1)" width="175" rx="4" ry="4" height="30" stroke="none"/>
    </g>
    <g stroke-linecap="butt" fill="white" text-rendering="geometricPrecision" font-family="'DejaVu Sans'" shape-rendering="geometricPrecision" stroke="white" font-weight="bold" stroke-miterlimit="1.45">
      <text x="442.3223" xml:space="preserve" y="19.1543" clip-path="url(#clipPath1)" stroke="none">ExperimentType</text>
    </g>
    <g fill="rgb(34,68,153)" text-rendering="geometricPrecision" shape-rendering="geometricPrecision" stroke="rgb(34,68,153)">
      <rect x="205" y="0" clip-path="url(#clipPath1)" width="175" rx="4" ry="4" height="30" stroke="none"/>
    </g>
    <g stroke-linecap="butt" fill="white" text-rendering="geometricPrecision" font-family="'DejaVu Sans'" shape-rendering="geometricPrecision" stroke="white" font-weight="bold" stroke-miterlimit="1.45">
      <text x="277.3564" xml:space="preserve" y="19.1543" clip-path="url(#clipPath1)" stroke="none">type</text>
    </g>
    <g text-rendering="geometricPrecision" stroke-miterlimit="1.45" shape-rendering="geometricPrecision" stroke-linecap="butt">
      <rect x="410" y="60" clip-path="url(#clipPath1)" fill="none" width="175" rx="4" ry="4" height="450"/>
      <rect x="820" y="60" clip-path="url(#clipPath1)" fill="none" width="175" rx="4" ry="4" height="90"/>
    </g>
    <g fill="rgb(187,68,34)" text-rendering="geometricPrecision" shape-rendering="geometricPrecision" stroke="rgb(187,68,34)">
      <rect x="1230" y="60" clip-path="url(#clipPath1)" width="175" rx="4" ry="4" height="30" stroke="none"/>
    </g>
    <g stroke-linecap="butt" fill="white" text-rendering="geometricPrecision" font-family="'DejaVu Sans'" shape-rendering="geometricPrecision" stroke="white" font-weight="bold" stroke-miterlimit="1.45">
      <text x="1238.1084" xml:space="preserve" y="79.1543" clip-path="url(#clipPath1)" stroke="none">ResearchObjectiveSpec</text>
    </g>
    <g fill="rgb(0,102,34)" text-rendering="geometricPrecision" shape-rendering="geometricPrecision" stroke="rgb(0,102,34)">
      <rect x="1230" y="120" clip-path="url(#clipPath1)" width="175" rx="4" ry="4" height="30" stroke="none"/>
    </g>
    <g stroke-linecap="butt" fill="white" text-rendering="geometricPrecision" font-family="'DejaVu Sans'" shape-rendering="geometricPrecision" stroke="white" font-weight="bold" stroke-miterlimit="1.45">
      <text x="1249.0771" xml:space="preserve" y="139.1543" clip-path="url(#clipPath1)" stroke="none">"The objective is ..."</text>
    </g>
    <g fill="rgb(187,68,34)" text-rendering="geometricPrecision" shape-rendering="geometricPrecision" stroke="rgb(187,68,34)">
      <rect x="1230" y="180" clip-path="url(#clipPath1)" width="175" rx="4" ry="4" height="30" stroke="none"/>
    </g>
    <g stroke-linecap="butt" fill="white" text-rendering="geometricPrecision" font-family="'DejaVu Sans'" shape-rendering="geometricPrecision" stroke="white" font-weight="bold" stroke-miterlimit="1.45">
      <text x="1242.623" xml:space="preserve" y="199.1543" clip-path="url(#clipPath1)" stroke="none">ExperimentSetupSpec</text>
    </g>
    <g text-rendering="geometricPrecision" stroke-miterlimit="1.45" shape-rendering="geometricPrecision" stroke-linecap="butt">
      <rect x="820" y="180" clip-path="url(#clipPath1)" fill="none" width="175" rx="4" ry="4" height="90"/>
    </g>
    <g fill="rgb(0,102,34)" text-rendering="geometricPrecision" shape-rendering="geometricPrecision" stroke="rgb(0,102,34)">
      <rect x="1230" y="240" clip-path="url(#clipPath1)" width="175" rx="4" ry="4" height="30" stroke="none"/>
    </g>
    <g stroke-linecap="butt" fill="white" text-rendering="geometricPrecision" font-family="'DejaVu Sans'" shape-rendering="geometricPrecision" stroke="white" font-weight="bold" stroke-miterlimit="1.45">
      <text x="1261.0068" xml:space="preserve" y="259.1543" clip-path="url(#clipPath1)" stroke="none">"The setup is ..."</text>
    </g>
    <g text-rendering="geometricPrecision" stroke-miterlimit="1.45" shape-rendering="geometricPrecision" stroke-linecap="butt">
      <rect x="820" y="300" clip-path="url(#clipPath1)" fill="none" width="175" rx="4" ry="4" height="90"/>
    </g>
    <g fill="rgb(187,68,34)" text-rendering="geometricPrecision" shape-rendering="geometricPrecision" stroke="rgb(187,68,34)">
      <rect x="1230" y="300" clip-path="url(#clipPath1)" width="175" rx="4" ry="4" height="30" stroke="none"/>
    </g>
    <g stroke-linecap="butt" fill="white" text-rendering="geometricPrecision" font-family="'DejaVu Sans'" shape-rendering="geometricPrecision" stroke="white" font-weight="bold" stroke-miterlimit="1.45">
      <text x="1266.5586" xml:space="preserve" y="319.1543" clip-path="url(#clipPath1)" stroke="none">ProcedureSpec</text>
    </g>
    <g fill="rgb(0,102,34)" text-rendering="geometricPrecision" shape-rendering="geometricPrecision" stroke="rgb(0,102,34)">
      <rect x="1230" y="360" clip-path="url(#clipPath1)" width="175" rx="4" ry="4" height="30" stroke="none"/>
    </g>
    <g stroke-linecap="butt" fill="white" text-rendering="geometricPrecision" font-family="'DejaVu Sans'" shape-rendering="geometricPrecision" stroke="white" font-weight="bold" stroke-miterlimit="1.45">
      <text x="1245.4854" xml:space="preserve" y="379.1543" clip-path="url(#clipPath1)" stroke="none">"The procedure is ..."</text>
    </g>
    <g text-rendering="geometricPrecision" stroke-miterlimit="1.45" shape-rendering="geometricPrecision" stroke-linecap="butt">
      <rect x="820" y="420" clip-path="url(#clipPath1)" fill="none" width="175" rx="4" ry="4" height="90"/>
    </g>
    <g fill="rgb(187,68,34)" text-rendering="geometricPrecision" shape-rendering="geometricPrecision" stroke="rgb(187,68,34)">
      <rect x="1230" y="420" clip-path="url(#clipPath1)" width="175" rx="4" ry="4" height="30" stroke="none"/>
    </g>
    <g stroke-linecap="butt" fill="white" text-rendering="geometricPrecision" font-family="'DejaVu Sans'" shape-rendering="geometricPrecision" stroke="white" font-weight="bold" stroke-miterlimit="1.45">
      <text x="1248.9189" xml:space="preserve" y="439.1543" clip-path="url(#clipPath1)" stroke="none">SuccessCriteriaSpec</text>
    </g>
    <g fill="rgb(0,102,34)" text-rendering="geometricPrecision" shape-rendering="geometricPrecision" stroke="rgb(0,102,34)">
      <rect x="1230" y="480" clip-path="url(#clipPath1)" width="175" rx="4" ry="4" height="30" stroke="none"/>
    </g>
    <g stroke-linecap="butt" fill="white" text-rendering="geometricPrecision" font-family="'DejaVu Sans'" shape-rendering="geometricPrecision" stroke="white" font-weight="bold" stroke-miterlimit="1.45">
      <text x="1267.6865" xml:space="preserve" y="499.1543" clip-path="url(#clipPath1)" stroke="none">"Success is ..."</text>
    </g>
    <g fill="rgb(34,68,153)" text-rendering="geometricPrecision" shape-rendering="geometricPrecision" stroke="rgb(34,68,153)">
      <rect x="615" y="90" clip-path="url(#clipPath1)" width="175" rx="4" ry="4" height="30" stroke="none"/>
    </g>
    <g stroke-linecap="butt" fill="white" text-rendering="geometricPrecision" font-family="'DejaVu Sans'" shape-rendering="geometricPrecision" stroke="white" font-weight="bold" stroke-miterlimit="1.45">
      <text x="676.335" xml:space="preserve" y="109.1543" clip-path="url(#clipPath1)" stroke="none">hasPart</text>
    </g>
    <g fill="rgb(34,68,153)" text-rendering="geometricPrecision" shape-rendering="geometricPrecision" stroke="rgb(34,68,153)">
      <rect x="615" y="210" clip-path="url(#clipPath1)" width="175" rx="4" ry="4" height="30" stroke="none"/>
    </g>
    <g stroke-linecap="butt" fill="white" text-rendering="geometricPrecision" font-family="'DejaVu Sans'" shape-rendering="geometricPrecision" stroke="white" font-weight="bold" stroke-miterlimit="1.45">
      <text x="676.335" xml:space="preserve" y="229.1543" clip-path="url(#clipPath1)" stroke="none">hasPart</text>
    </g>
    <g fill="rgb(34,68,153)" text-rendering="geometricPrecision" shape-rendering="geometricPrecision" stroke="rgb(34,68,153)">
      <rect x="615" y="330" clip-path="url(#clipPath1)" width="175" rx="4" ry="4" height="30" stroke="none"/>
    </g>
    <g stroke-linecap="butt" fill="white" text-rendering="geometricPrecision" font-family="'DejaVu Sans'" shape-rendering="geometricPrecision" stroke="white" font-weight="bold" stroke-miterlimit="1.45">
      <text x="676.335" xml:space="preserve" y="349.1543" clip-path="url(#clipPath1)" stroke="none">hasPart</text>
    </g>
    <g fill="rgb(34,68,153)" text-rendering="geometricPrecision" shape-rendering="geometricPrecision" stroke="rgb(34,68,153)">
      <rect x="615" y="450" clip-path="url(#clipPath1)" width="175" rx="4" ry="4" height="30" stroke="none"/>
    </g>
    <g stroke-linecap="butt" fill="white" text-rendering="geometricPrecision" font-family="'DejaVu Sans'" shape-rendering="geometricPrecision" stroke="white" font-weight="bold" stroke-miterlimit="1.45">
      <text x="676.335" xml:space="preserve" y="469.1543" clip-path="url(#clipPath1)" stroke="none">hasPart</text>
    </g>
    <g fill="rgb(34,68,153)" text-rendering="geometricPrecision" shape-rendering="geometricPrecision" stroke="rgb(34,68,153)">
      <rect x="1025" y="60" clip-path="url(#clipPath1)" width="175" rx="4" ry="4" height="30" stroke="none"/>
    </g>
    <g stroke-linecap="butt" fill="white" text-rendering="geometricPrecision" font-family="'DejaVu Sans'" shape-rendering="geometricPrecision" stroke="white" font-weight="bold" stroke-miterlimit="1.45">
      <text x="1097.3564" xml:space="preserve" y="79.1543" clip-path="url(#clipPath1)" stroke="none">type</text>
    </g>
    <g fill="rgb(34,68,153)" text-rendering="geometricPrecision" shape-rendering="geometricPrecision" stroke="rgb(34,68,153)">
      <rect x="1025" y="120" clip-path="url(#clipPath1)" width="175" rx="4" ry="4" height="30" stroke="none"/>
    </g>
    <g stroke-linecap="butt" fill="white" text-rendering="geometricPrecision" font-family="'DejaVu Sans'" shape-rendering="geometricPrecision" stroke="white" font-weight="bold" stroke-miterlimit="1.45">
      <text x="1074.3789" xml:space="preserve" y="139.1543" clip-path="url(#clipPath1)" stroke="none">description</text>
    </g>
    <g fill="rgb(34,68,153)" text-rendering="geometricPrecision" shape-rendering="geometricPrecision" stroke="rgb(34,68,153)">
      <rect x="1025" y="180" clip-path="url(#clipPath1)" width="175" rx="4" ry="4" height="30" stroke="none"/>
    </g>
    <g stroke-linecap="butt" fill="white" text-rendering="geometricPrecision" font-family="'DejaVu Sans'" shape-rendering="geometricPrecision" stroke="white" font-weight="bold" stroke-miterlimit="1.45">
      <text x="1097.3564" xml:space="preserve" y="199.1543" clip-path="url(#clipPath1)" stroke="none">type</text>
    </g>
    <g fill="rgb(34,68,153)" text-rendering="geometricPrecision" shape-rendering="geometricPrecision" stroke="rgb(34,68,153)">
      <rect x="1025" y="240" clip-path="url(#clipPath1)" width="175" rx="4" ry="4" height="30" stroke="none"/>
    </g>
    <g stroke-linecap="butt" fill="white" text-rendering="geometricPrecision" font-family="'DejaVu Sans'" shape-rendering="geometricPrecision" stroke="white" font-weight="bold" stroke-miterlimit="1.45">
      <text x="1074.3789" xml:space="preserve" y="259.1543" clip-path="url(#clipPath1)" stroke="none">description</text>
    </g>
    <g fill="rgb(34,68,153)" text-rendering="geometricPrecision" shape-rendering="geometricPrecision" stroke="rgb(34,68,153)">
      <rect x="1025" y="300" clip-path="url(#clipPath1)" width="175" rx="4" ry="4" height="30" stroke="none"/>
    </g>
    <g stroke-linecap="butt" fill="white" text-rendering="geometricPrecision" font-family="'DejaVu Sans'" shape-rendering="geometricPrecision" stroke="white" font-weight="bold" stroke-miterlimit="1.45">
      <text x="1097.3564" xml:space="preserve" y="319.1543" clip-path="url(#clipPath1)" stroke="none">type</text>
    </g>
    <g fill="rgb(34,68,153)" text-rendering="geometricPrecision" shape-rendering="geometricPrecision" stroke="rgb(34,68,153)">
      <rect x="1025" y="360" clip-path="url(#clipPath1)" width="175" rx="4" ry="4" height="30" stroke="none"/>
    </g>
    <g stroke-linecap="butt" fill="white" text-rendering="geometricPrecision" font-family="'DejaVu Sans'" shape-rendering="geometricPrecision" stroke="white" font-weight="bold" stroke-miterlimit="1.45">
      <text x="1074.3789" xml:space="preserve" y="379.1543" clip-path="url(#clipPath1)" stroke="none">description</text>
    </g>
    <g fill="rgb(34,68,153)" text-rendering="geometricPrecision" shape-rendering="geometricPrecision" stroke="rgb(34,68,153)">
      <rect x="1025" y="420" clip-path="url(#clipPath1)" width="175" rx="4" ry="4" height="30" stroke="none"/>
    </g>
    <g stroke-linecap="butt" fill="white" text-rendering="geometricPrecision" font-family="'DejaVu Sans'" shape-rendering="geometricPrecision" stroke="white" font-weight="bold" stroke-miterlimit="1.45">
      <text x="1097.3564" xml:space="preserve" y="439.1543" clip-path="url(#clipPath1)" stroke="none">type</text>
    </g>
    <g fill="rgb(34,68,153)" text-rendering="geometricPrecision" shape-rendering="geometricPrecision" stroke="rgb(34,68,153)">
      <rect x="1025" y="480" clip-path="url(#clipPath1)" width="175" rx="4" ry="4" height="30" stroke="none"/>
    </g>
    <g stroke-linecap="butt" fill="white" text-rendering="geometricPrecision" font-family="'DejaVu Sans'" shape-rendering="geometricPrecision" stroke="white" font-weight="bold" stroke-miterlimit="1.45">
      <text x="1074.3789" xml:space="preserve" y="499.1543" clip-path="url(#clipPath1)" stroke="none">description</text>
    </g>
    <g fill="rgb(34,68,153)" text-rendering="geometricPrecision" shape-rendering="geometricPrecision" stroke="rgb(34,68,153)">
      <rect x="205" y="270" clip-path="url(#clipPath1)" width="175" rx="4" ry="4" height="30" stroke="none"/>
    </g>
    <g stroke-linecap="butt" fill="white" text-rendering="geometricPrecision" font-family="'DejaVu Sans'" shape-rendering="geometricPrecision" stroke="white" font-weight="bold" stroke-miterlimit="1.45">
      <text x="220.2627" xml:space="preserve" y="289.1543" clip-path="url(#clipPath1)" stroke="none">hasMethodologySpec</text>
    </g>
    <g stroke-linecap="butt" fill="rgb(34,68,153)" text-rendering="geometricPrecision" shape-rendering="geometricPrecision" stroke="rgb(34,68,153)" stroke-width="3" stroke-miterlimit="1.45">
      <path fill="none" d="M180.0217 15 L204.9936 15" clip-path="url(#clipPath1)"/>
      <path d="M170.0217 15 C170.0217 12.2386 172.2603 10 175.0217 10 C177.7831 10 180.0217 12.2386 180.0217 15 C180.0217 17.7614 177.7831 20 175.0217 20 C172.2603 20 170.0217 17.7614 170.0217 15 Z" clip-path="url(#clipPath1)" stroke="none"/>
      <path fill="none" d="M380.0104 15 L396.2351 15" clip-path="url(#clipPath1)"/>
      <path d="M409.9851 15 L394.9851 7.5 L394.9851 22.5 Z" clip-path="url(#clipPath1)" stroke="none"/>
      <path fill="none" d="M590.0257 105 L614.9966 105" clip-path="url(#clipPath1)"/>
      <path d="M580.0257 105 C580.0257 102.2386 582.2643 100 585.0257 100 C587.7871 100 590.0257 102.2386 590.0257 105 C590.0257 107.7614 587.7871 110 585.0257 110 C582.2643 110 580.0257 107.7614 580.0257 105 Z" clip-path="url(#clipPath1)" stroke="none"/>
      <path fill="none" d="M790.0104 105 L806.2352 105" clip-path="url(#clipPath1)"/>
      <path d="M819.9852 105 L804.9852 97.5 L804.9852 112.5 Z" clip-path="url(#clipPath1)" stroke="none"/>
      <path fill="none" d="M590.0073 225 L614.9828 225" clip-path="url(#clipPath1)"/>
      <path d="M580.0073 225 C580.0073 222.2386 582.2459 220 585.0073 220 C587.7687 220 590.0073 222.2386 590.0073 225 C590.0073 227.7614 587.7687 230 585.0073 230 C582.2459 230 580.0073 227.7614 580.0073 225 Z" clip-path="url(#clipPath1)" stroke="none"/>
      <path fill="none" d="M790.0104 225 L806.2352 225" clip-path="url(#clipPath1)"/>
      <path d="M819.9852 225 L804.9852 217.5 L804.9852 232.5 Z" clip-path="url(#clipPath1)" stroke="none"/>
      <path fill="none" d="M590.0257 345 L614.9966 345" clip-path="url(#clipPath1)"/>
      <path d="M580.0257 345 C580.0257 342.2386 582.2643 340 585.0257 340 C587.7871 340 590.0257 342.2386 590.0257 345 C590.0257 347.7614 587.7871 350 585.0257 350 C582.2643 350 580.0257 347.7614 580.0257 345 Z" clip-path="url(#clipPath1)" stroke="none"/>
      <path fill="none" d="M790.0104 345 L806.2352 345" clip-path="url(#clipPath1)"/>
      <path d="M819.9852 345 L804.9852 337.5 L804.9852 352.5 Z" clip-path="url(#clipPath1)" stroke="none"/>
      <path fill="none" d="M590.0176 465 L614.9905 465" clip-path="url(#clipPath1)"/>
      <path d="M580.0176 465 C580.0176 462.2386 582.2562 460 585.0176 460 C587.7791 460 590.0176 462.2386 590.0176 465 C590.0176 467.7614 587.7791 470 585.0176 470 C582.2562 470 580.0176 467.7614 580.0176 465 Z" clip-path="url(#clipPath1)" stroke="none"/>
      <path fill="none" d="M790.0104 465 L806.2352 465" clip-path="url(#clipPath1)"/>
      <path d="M819.9852 465 L804.9852 457.5 L804.9852 472.5 Z" clip-path="url(#clipPath1)" stroke="none"/>
      <path fill="none" d="M1000.0134 75 L1024.9874 75" clip-path="url(#clipPath1)"/>
      <path d="M990.0134 75 C990.0134 72.2386 992.252 70 995.0134 70 C997.7748 70 1000.0134 72.2386 1000.0134 75 C1000.0134 77.7614 997.7748 80 995.0134 80 C992.252 80 990.0134 77.7614 990.0134 75 Z" clip-path="url(#clipPath1)" stroke="none"/>
      <path fill="none" d="M1200.0104 75 L1216.2351 75" clip-path="url(#clipPath1)"/>
      <path d="M1229.9851 75 L1214.9851 67.5 L1214.9851 82.5 Z" clip-path="url(#clipPath1)" stroke="none"/>
      <path fill="none" d="M1000.0215 135 L1024.9934 135" clip-path="url(#clipPath1)"/>
      <path d="M990.0215 135 C990.0215 132.2386 992.2601 130 995.0215 130 C997.783 130 1000.0215 132.2386 1000.0215 135 C1000.0215 137.7614 997.783 140 995.0215 140 C992.2601 140 990.0215 137.7614 990.0215 135 Z" clip-path="url(#clipPath1)" stroke="none"/>
      <path fill="none" d="M1200.0104 135 L1216.2351 135" clip-path="url(#clipPath1)"/>
      <path d="M1229.9851 135 L1214.9851 127.5 L1214.9851 142.5 Z" clip-path="url(#clipPath1)" stroke="none"/>
      <path fill="none" d="M1000.0112 195 L1024.9858 195" clip-path="url(#clipPath1)"/>
      <path d="M990.0112 195 C990.0112 192.2386 992.2498 190 995.0112 190 C997.7726 190 1000.0112 192.2386 1000.0112 195 C1000.0112 197.7614 997.7726 200 995.0112 200 C992.2498 200 990.0112 197.7614 990.0112 195 Z" clip-path="url(#clipPath1)" stroke="none"/>
      <path fill="none" d="M1200.0104 195 L1216.2351 195" clip-path="url(#clipPath1)"/>
      <path d="M1229.9851 195 L1214.9851 187.5 L1214.9851 202.5 Z" clip-path="url(#clipPath1)" stroke="none"/>
      <path fill="none" d="M1000.0215 255 L1024.9934 255" clip-path="url(#clipPath1)"/>
      <path d="M990.0215 255 C990.0215 252.2386 992.2601 250 995.0215 250 C997.783 250 1000.0215 252.2386 1000.0215 255 C1000.0215 257.7614 997.783 260 995.0215 260 C992.2601 260 990.0215 257.7614 990.0215 255 Z" clip-path="url(#clipPath1)" stroke="none"/>
      <path fill="none" d="M1200.0104 255 L1216.2351 255" clip-path="url(#clipPath1)"/>
      <path d="M1229.9851 255 L1214.9851 247.5 L1214.9851 262.5 Z" clip-path="url(#clipPath1)" stroke="none"/>
      <path fill="none" d="M1000.0134 315 L1024.9874 315" clip-path="url(#clipPath1)"/>
      <path d="M990.0134 315 C990.0134 312.2386 992.252 310 995.0134 310 C997.7748 310 1000.0134 312.2386 1000.0134 315 C1000.0134 317.7614 997.7748 320 995.0134 320 C992.252 320 990.0134 317.7614 990.0134 315 Z" clip-path="url(#clipPath1)" stroke="none"/>
      <path fill="none" d="M1200.0104 315 L1216.2351 315" clip-path="url(#clipPath1)"/>
      <path d="M1229.9851 315 L1214.9851 307.5 L1214.9851 322.5 Z" clip-path="url(#clipPath1)" stroke="none"/>
      <path fill="none" d="M1000.0112 375 L1024.9858 375" clip-path="url(#clipPath1)"/>
      <path d="M990.0112 375 C990.0112 372.2386 992.2498 370 995.0112 370 C997.7726 370 1000.0112 372.2386 1000.0112 375 C1000.0112 377.7614 997.7726 380 995.0112 380 C992.2498 380 990.0112 377.7614 990.0112 375 Z" clip-path="url(#clipPath1)" stroke="none"/>
      <path fill="none" d="M1200.0104 375 L1216.2351 375" clip-path="url(#clipPath1)"/>
      <path d="M1229.9851 375 L1214.9851 367.5 L1214.9851 382.5 Z" clip-path="url(#clipPath1)" stroke="none"/>
      <path fill="none" d="M1000.0237 435 L1024.9951 435" clip-path="url(#clipPath1)"/>
      <path d="M990.0237 435 C990.0237 432.2386 992.2623 430 995.0237 430 C997.7852 430 1000.0237 432.2386 1000.0237 435 C1000.0237 437.7614 997.7852 440 995.0237 440 C992.2623 440 990.0237 437.7614 990.0237 435 Z" clip-path="url(#clipPath1)" stroke="none"/>
      <path fill="none" d="M1200.0104 435 L1216.2351 435" clip-path="url(#clipPath1)"/>
      <path d="M1229.9851 435 L1214.9851 427.5 L1214.9851 442.5 Z" clip-path="url(#clipPath1)" stroke="none"/>
      <path fill="none" d="M1000.0134 495 L1024.9874 495" clip-path="url(#clipPath1)"/>
      <path d="M990.0134 495 C990.0134 492.2386 992.252 490 995.0134 490 C997.7748 490 1000.0134 492.2386 1000.0134 495 C1000.0134 497.7614 997.7748 500 995.0134 500 C992.252 500 990.0134 497.7614 990.0134 495 Z" clip-path="url(#clipPath1)" stroke="none"/>
      <path fill="none" d="M1200.0104 495 L1216.2351 495" clip-path="url(#clipPath1)"/>
      <path d="M1229.9851 495 L1214.9851 487.5 L1214.9851 502.5 Z" clip-path="url(#clipPath1)" stroke="none"/>
      <path fill="none" d="M180.0056 285 L204.9816 285" clip-path="url(#clipPath1)"/>
      <path d="M170.0056 285 C170.0056 282.2386 172.2442 280 175.0056 280 C177.767 280 180.0056 282.2386 180.0056 285 C180.0056 287.7614 177.767 290 175.0056 290 C172.2442 290 170.0056 287.7614 170.0056 285 Z" clip-path="url(#clipPath1)" stroke="none"/>
      <path fill="none" d="M380.0104 285 L396.2351 285" clip-path="url(#clipPath1)"/>
      <path d="M409.9851 285 L394.9851 277.5 L394.9851 292.5 Z" clip-path="url(#clipPath1)" stroke="none"/>
    </g>
  </g>
</svg>
