<?xml version="1.0" encoding="UTF-8"?><svg xmlns="http://www.w3.org/2000/svg" xmlns:xlink="http://www.w3.org/1999/xlink" fill-opacity="1" color-rendering="auto" color-interpolation="auto" text-rendering="auto" stroke="black" stroke-linecap="square" width="585" stroke-miterlimit="10" shape-rendering="auto" stroke-opacity="1" fill="black" stroke-dasharray="none" font-weight="normal" stroke-width="1" height="210" font-family="'Dialog'" font-style="normal" stroke-linejoin="miter" font-size="12px" stroke-dashoffset="0" image-rendering="auto">
  <!--Generated by ySVG 2.6-->
  <defs id="genericDefs"/>
  <g>
    <defs id="defs1">
      <clipPath clipPathUnits="userSpaceOnUse" id="clipPath1">
        <path d="M0 0 L585 0 L585 210 L0 210 L0 0 Z"/>
      </clipPath>
    </defs>
    <g fill="white" text-rendering="geometricPrecision" shape-rendering="geometricPrecision" stroke="white">
      <rect x="0" width="585" height="210" y="0" clip-path="url(#clipPath1)" stroke="none"/>
    </g>
    <g fill="rgb(187,68,34)" text-rendering="geometricPrecision" shape-rendering="geometricPrecision" stroke="rgb(187,68,34)">
      <rect x="0" y="0" clip-path="url(#clipPath1)" width="175" rx="4" ry="4" height="210" stroke="none"/>
    </g>
    <g stroke-linecap="butt" fill="white" text-rendering="geometricPrecision" font-family="'DejaVu Sans'" shape-rendering="geometricPrecision" stroke="white" font-weight="bold" stroke-miterlimit="1.45">
      <text x="65.9873" xml:space="preserve" y="109.1543" clip-path="url(#clipPath1)" stroke="none">Run42</text>
    </g>
    <g fill="rgb(187,68,34)" text-rendering="geometricPrecision" shape-rendering="geometricPrecision" stroke="rgb(187,68,34)">
      <rect x="410" y="0" clip-path="url(#clipPath1)" width="175" rx="4" ry="4" height="30" stroke="none"/>
    </g>
    <g stroke-linecap="butt" fill="white" text-rendering="geometricPrecision" font-family="'DejaVu Sans'" shape-rendering="geometricPrecision" stroke="white" font-weight="bold" stroke-miterlimit="1.45">
      <text x="445.5273" xml:space="preserve" y="19.1543" clip-path="url(#clipPath1)" stroke="none">ExperimentRun</text>
    </g>
    <g fill="rgb(187,68,34)" text-rendering="geometricPrecision" shape-rendering="geometricPrecision" stroke="rgb(187,68,34)">
      <rect x="410" y="120" clip-path="url(#clipPath1)" width="175" rx="4" ry="4" height="30" stroke="none"/>
    </g>
    <g stroke-linecap="butt" fill="white" text-rendering="geometricPrecision" font-family="'DejaVu Sans'" shape-rendering="geometricPrecision" stroke="white" font-weight="bold" stroke-miterlimit="1.45">
      <text x="471.0801" xml:space="preserve" y="139.1543" clip-path="url(#clipPath1)" stroke="none">Artemis</text>
    </g>
    <g fill="rgb(34,68,153)" text-rendering="geometricPrecision" shape-rendering="geometricPrecision" stroke="rgb(34,68,153)">
      <rect x="205" y="0" clip-path="url(#clipPath1)" width="175" rx="4" ry="4" height="30" stroke="none"/>
    </g>
    <g stroke-linecap="butt" fill="white" text-rendering="geometricPrecision" font-family="'DejaVu Sans'" shape-rendering="geometricPrecision" stroke="white" font-weight="bold" stroke-miterlimit="1.45">
      <text x="277.3564" xml:space="preserve" y="19.1543" clip-path="url(#clipPath1)" stroke="none">type</text>
    </g>
    <g fill="rgb(34,68,153)" text-rendering="geometricPrecision" shape-rendering="geometricPrecision" stroke="rgb(34,68,153)">
      <rect x="205" y="120" clip-path="url(#clipPath1)" width="175" rx="4" ry="4" height="30" stroke="none"/>
    </g>
    <g stroke-linecap="butt" fill="white" text-rendering="geometricPrecision" font-family="'DejaVu Sans'" shape-rendering="geometricPrecision" stroke="white" font-weight="bold" stroke-miterlimit="1.45">
      <text x="241.1807" xml:space="preserve" y="139.1543" clip-path="url(#clipPath1)" stroke="none">observedRobot</text>
    </g>
    <g fill="rgb(0,102,34)" text-rendering="geometricPrecision" shape-rendering="geometricPrecision" stroke="rgb(0,102,34)">
      <rect x="410" y="180" clip-path="url(#clipPath1)" width="175" rx="4" ry="4" height="30" stroke="none"/>
    </g>
    <g stroke-linecap="butt" fill="white" text-rendering="geometricPrecision" font-family="'DejaVu Sans'" shape-rendering="geometricPrecision" stroke="white" font-weight="bold" stroke-miterlimit="1.45">
      <text x="482.6963" xml:space="preserve" y="199.1543" clip-path="url(#clipPath1)" stroke="none">38.0</text>
    </g>
    <g fill="rgb(34,68,153)" text-rendering="geometricPrecision" shape-rendering="geometricPrecision" stroke="rgb(34,68,153)">
      <rect x="205" y="180" clip-path="url(#clipPath1)" width="175" rx="4" ry="4" height="30" stroke="none"/>
    </g>
    <g stroke-linecap="butt" fill="white" text-rendering="geometricPrecision" font-family="'DejaVu Sans'" shape-rendering="geometricPrecision" stroke="white" font-weight="bold" stroke-miterlimit="1.45">
      <text x="256.1162" xml:space="preserve" y="199.1543" clip-path="url(#clipPath1)" stroke="none">travelTime</text>
    </g>
    <g fill="rgb(187,68,34)" text-rendering="geometricPrecision" shape-rendering="geometricPrecision" stroke="rgb(187,68,34)">
      <rect x="410" y="60" clip-path="url(#clipPath1)" width="175" rx="4" ry="4" height="30" stroke="none"/>
    </g>
    <g stroke-linecap="butt" fill="white" text-rendering="geometricPrecision" font-family="'DejaVu Sans'" shape-rendering="geometricPrecision" stroke="white" font-weight="bold" stroke-miterlimit="1.45">
      <text x="432.959" xml:space="preserve" y="79.1543" clip-path="url(#clipPath1)" stroke="none">ObstacleAvoidance</text>
    </g>
    <g fill="rgb(34,68,153)" text-rendering="geometricPrecision" shape-rendering="geometricPrecision" stroke="rgb(34,68,153)">
      <rect x="205" y="60" clip-path="url(#clipPath1)" width="175" rx="4" ry="4" height="30" stroke="none"/>
    </g>
    <g stroke-linecap="butt" fill="white" text-rendering="geometricPrecision" font-family="'DejaVu Sans'" shape-rendering="geometricPrecision" stroke="white" font-weight="bold" stroke-miterlimit="1.45">
      <text x="225.4307" xml:space="preserve" y="79.1543" clip-path="url(#clipPath1)" stroke="none">hasExperimentType</text>
    </g>
    <g stroke-linecap="butt" fill="rgb(34,68,153)" text-rendering="geometricPrecision" shape-rendering="geometricPrecision" stroke="rgb(34,68,153)" stroke-width="3" stroke-miterlimit="1.45">
      <path fill="none" d="M180.0143 15 L204.9881 15" clip-path="url(#clipPath1)"/>
      <path d="M170.0143 15 C170.0143 12.2386 172.2529 10 175.0143 10 C177.7757 10 180.0143 12.2386 180.0143 15 C180.0143 17.7614 177.7757 20 175.0143 20 C172.2529 20 170.0143 17.7614 170.0143 15 Z" clip-path="url(#clipPath1)" stroke="none"/>
      <path fill="none" d="M380.0104 15 L396.2351 15" clip-path="url(#clipPath1)"/>
      <path d="M409.9851 15 L394.9851 7.5 L394.9851 22.5 Z" clip-path="url(#clipPath1)" stroke="none"/>
      <path fill="none" d="M180.0166 135 L204.9898 135" clip-path="url(#clipPath1)"/>
      <path d="M170.0166 135 C170.0166 132.2386 172.2551 130 175.0166 130 C177.778 130 180.0166 132.2386 180.0166 135 C180.0166 137.7614 177.778 140 175.0166 140 C172.2551 140 170.0166 137.7614 170.0166 135 Z" clip-path="url(#clipPath1)" stroke="none"/>
      <path fill="none" d="M380.0104 135 L396.2351 135" clip-path="url(#clipPath1)"/>
      <path d="M409.9851 135 L394.9851 127.5 L394.9851 142.5 Z" clip-path="url(#clipPath1)" stroke="none"/>
      <path fill="none" d="M179.9988 195 L204.9765 195" clip-path="url(#clipPath1)"/>
      <path d="M169.9988 195 C169.9988 192.2386 172.2374 190 174.9988 190 C177.7602 190 179.9988 192.2386 179.9988 195 C179.9988 197.7614 177.7602 200 174.9988 200 C172.2374 200 169.9988 197.7614 169.9988 195 Z" clip-path="url(#clipPath1)" stroke="none"/>
      <path fill="none" d="M380.0104 195 L396.2351 195" clip-path="url(#clipPath1)"/>
      <path d="M409.9851 195 L394.9851 187.5 L394.9851 202.5 Z" clip-path="url(#clipPath1)" stroke="none"/>
      <path fill="none" d="M180.0321 75 L205.0013 75" clip-path="url(#clipPath1)"/>
      <path d="M170.0321 75 C170.0321 72.2386 172.2706 70 175.0321 70 C177.7935 70 180.0321 72.2386 180.0321 75 C180.0321 77.7614 177.7935 80 175.0321 80 C172.2706 80 170.0321 77.7614 170.0321 75 Z" clip-path="url(#clipPath1)" stroke="none"/>
      <path fill="none" d="M380.0104 75 L396.2351 75" clip-path="url(#clipPath1)"/>
      <path d="M409.9851 75 L394.9851 67.5 L394.9851 82.5 Z" clip-path="url(#clipPath1)" stroke="none"/>
    </g>
  </g>
</svg>
