<?xml version="1.0" encoding="UTF-8"?><svg xmlns="http://www.w3.org/2000/svg" xmlns:xlink="http://www.w3.org/1999/xlink" fill-opacity="1" color-rendering="auto" color-interpolation="auto" text-rendering="auto" stroke="black" stroke-linecap="square" width="790" stroke-miterlimit="10" shape-rendering="auto" stroke-opacity="1" fill="black" stroke-dasharray="none" font-weight="normal" stroke-width="1" height="3250" font-family="'Dialog'" font-style="normal" stroke-linejoin="miter" font-size="12px" stroke-dashoffset="0" image-rendering="auto">
  <!--Generated by ySVG 2.6-->
  <defs id="genericDefs"/>
  <g>
    <defs id="defs1">
      <clipPath clipPathUnits="userSpaceOnUse" id="clipPath1">
        <path d="M0 0 L790 0 L790 3250 L0 3250 L0 0 Z"/>
      </clipPath>
    </defs>
    <g fill="white" text-rendering="geometricPrecision" shape-rendering="geometricPrecision" stroke="white">
      <rect x="0" width="790" height="3250" y="0" clip-path="url(#clipPath1)" stroke="none"/>
    </g>
    <g fill="rgb(187,68,34)" text-rendering="geometricPrecision" shape-rendering="geometricPrecision" stroke="rgb(187,68,34)">
      <rect x="0" y="0" clip-path="url(#clipPath1)" width="790" rx="4" ry="4" height="30" stroke="none"/>
    </g>
    <g stroke-linecap="butt" fill="white" text-rendering="geometricPrecision" font-family="'DejaVu Sans'" shape-rendering="geometricPrecision" stroke="white" font-weight="bold" stroke-miterlimit="1.45">
      <text x="373.4873" xml:space="preserve" y="19.1543" clip-path="url(#clipPath1)" stroke="none">Run42</text>
    </g>
    <g fill="rgb(34,68,153)" text-rendering="geometricPrecision" shape-rendering="geometricPrecision" stroke="rgb(34,68,153)">
      <rect x="0" y="2220" clip-path="url(#clipPath1)" width="175" rx="4" ry="4" height="30" stroke="none"/>
    </g>
    <g stroke-linecap="butt" fill="white" text-rendering="geometricPrecision" font-family="'DejaVu Sans'" shape-rendering="geometricPrecision" stroke="white" font-weight="bold" stroke-miterlimit="1.45">
      <text x="72.3564" xml:space="preserve" y="2239.1543" clip-path="url(#clipPath1)" stroke="none">type</text>
    </g>
    <g fill="rgb(34,68,153)" text-rendering="geometricPrecision" shape-rendering="geometricPrecision" stroke="rgb(34,68,153)">
      <rect x="205" y="1260" clip-path="url(#clipPath1)" width="175" rx="4" ry="4" height="30" stroke="none"/>
    </g>
    <g stroke-linecap="butt" fill="white" text-rendering="geometricPrecision" font-family="'DejaVu Sans'" shape-rendering="geometricPrecision" stroke="white" font-weight="bold" stroke-miterlimit="1.45">
      <text x="225.4307" xml:space="preserve" y="1279.1543" clip-path="url(#clipPath1)" stroke="none">hasExperimentType</text>
    </g>
    <g fill="rgb(34,68,153)" text-rendering="geometricPrecision" shape-rendering="geometricPrecision" stroke="rgb(34,68,153)">
      <rect x="410" y="480" clip-path="url(#clipPath1)" width="175" rx="4" ry="4" height="570" stroke="none"/>
    </g>
    <g stroke-linecap="butt" fill="white" text-rendering="geometricPrecision" font-family="'DejaVu Sans'" shape-rendering="geometricPrecision" stroke="white" font-weight="bold" stroke-miterlimit="1.45">
      <text x="446.1807" xml:space="preserve" y="769.1543" clip-path="url(#clipPath1)" stroke="none">observedRobot</text>
    </g>
    <g fill="rgb(34,68,153)" text-rendering="geometricPrecision" shape-rendering="geometricPrecision" stroke="rgb(34,68,153)">
      <rect x="615" y="60" clip-path="url(#clipPath1)" width="175" rx="4" ry="4" height="330" stroke="none"/>
    </g>
    <g stroke-linecap="butt" fill="white" text-rendering="geometricPrecision" font-family="'DejaVu Sans'" shape-rendering="geometricPrecision" stroke="white" font-weight="bold" stroke-miterlimit="1.45">
      <text x="666.1162" xml:space="preserve" y="229.1543" clip-path="url(#clipPath1)" stroke="none">travelTime</text>
    </g>
    <g fill="rgb(187,68,34)" text-rendering="geometricPrecision" shape-rendering="geometricPrecision" stroke="rgb(187,68,34)">
      <rect x="205" y="1320" clip-path="url(#clipPath1)" width="175" rx="4" ry="4" height="870" stroke="none"/>
    </g>
    <g stroke-linecap="butt" fill="white" text-rendering="geometricPrecision" font-family="'DejaVu Sans'" shape-rendering="geometricPrecision" stroke="white" font-weight="bold" stroke-miterlimit="1.45">
      <text x="227.959" xml:space="preserve" y="1759.1543" clip-path="url(#clipPath1)" stroke="none">ObstacleAvoidance</text>
    </g>
    <g fill="rgb(0,102,34)" text-rendering="geometricPrecision" shape-rendering="geometricPrecision" stroke="rgb(0,102,34)">
      <rect x="615" y="420" clip-path="url(#clipPath1)" width="175" rx="4" ry="4" height="30" stroke="none"/>
    </g>
    <g stroke-linecap="butt" fill="white" text-rendering="geometricPrecision" font-family="'DejaVu Sans'" shape-rendering="geometricPrecision" stroke="white" font-weight="bold" stroke-miterlimit="1.45">
      <text x="687.6963" xml:space="preserve" y="439.1543" clip-path="url(#clipPath1)" stroke="none">38.0</text>
    </g>
    <g fill="rgb(187,68,34)" text-rendering="geometricPrecision" shape-rendering="geometricPrecision" stroke="rgb(187,68,34)">
      <rect x="410" y="1080" clip-path="url(#clipPath1)" width="175" rx="4" ry="4" height="150" stroke="none"/>
    </g>
    <g stroke-linecap="butt" fill="white" text-rendering="geometricPrecision" font-family="'DejaVu Sans'" shape-rendering="geometricPrecision" stroke="white" font-weight="bold" stroke-miterlimit="1.45">
      <text x="471.0801" xml:space="preserve" y="1159.1543" clip-path="url(#clipPath1)" stroke="none">Artemis</text>
    </g>
    <g fill="rgb(187,68,34)" text-rendering="geometricPrecision" shape-rendering="geometricPrecision" stroke="rgb(187,68,34)">
      <rect x="0" y="2280" clip-path="url(#clipPath1)" width="175" rx="4" ry="4" height="970" stroke="none"/>
    </g>
    <g stroke-linecap="butt" fill="white" text-rendering="geometricPrecision" font-family="'DejaVu Sans'" shape-rendering="geometricPrecision" stroke="white" font-weight="bold" stroke-miterlimit="1.45">
      <text x="35.5273" xml:space="preserve" y="2769.1543" clip-path="url(#clipPath1)" stroke="none">ExperimentRun</text>
    </g>
    <g stroke-linecap="butt" fill="rgb(34,68,153)" text-rendering="geometricPrecision" shape-rendering="geometricPrecision" stroke="rgb(34,68,153)" stroke-width="3" stroke-miterlimit="1.45">
      <path fill="none" d="M89.1774 35.0074 L87.5114 2220.0278" clip-path="url(#clipPath1)"/>
      <path d="M89.185 25.0075 C91.9465 25.0096 94.1833 27.2498 94.1812 30.0113 C94.1791 32.7727 91.9388 35.0096 89.1774 35.0074 C86.416 35.0053 84.1791 32.7651 84.1812 30.0036 C84.1833 27.2422 86.4236 25.0053 89.185 25.0075 Z" clip-path="url(#clipPath1)" stroke="none"/>
      <path fill="none" d="M293.0558 35.0175 L292.5067 1259.9924" clip-path="url(#clipPath1)"/>
      <path d="M293.0602 25.0175 C295.8217 25.0188 298.0592 27.2583 298.058 30.0197 C298.0568 32.7812 295.8172 35.0187 293.0558 35.0175 C290.2944 35.0163 288.0568 32.7767 288.058 30.0153 C288.0592 27.2539 290.2988 25.0163 293.0602 25.0175 Z" clip-path="url(#clipPath1)" stroke="none"/>
      <path fill="none" d="M496.951 34.9792 L497.2857 479.991" clip-path="url(#clipPath1)"/>
      <path d="M496.9435 24.9792 C499.705 24.9771 501.9452 27.214 501.9473 29.9754 C501.9494 32.7368 499.7125 34.9771 496.951 34.9792 C494.1896 34.9812 491.9494 32.7443 491.9473 29.9829 C491.9452 27.2215 494.1821 24.9812 496.9435 24.9792 Z" clip-path="url(#clipPath1)" stroke="none"/>
      <path fill="none" d="M700.8065 35.0278 L700.8065 59.9847" clip-path="url(#clipPath1)"/>
      <path d="M700.8065 25.0278 C703.5679 25.0278 705.8065 27.2663 705.8065 30.0278 C705.8065 32.7892 703.5679 35.0278 700.8065 35.0278 C698.045 35.0278 695.8065 32.7892 695.8065 30.0278 C695.8065 27.2663 698.045 25.0278 700.8065 25.0278 Z" clip-path="url(#clipPath1)" stroke="none"/>
      <path fill="none" d="M292.5 1289.9707 L292.5 1306.2217" clip-path="url(#clipPath1)"/>
      <path d="M292.5 1319.9717 L300 1304.9717 L285 1304.9717 Z" clip-path="url(#clipPath1)" stroke="none"/>
      <path fill="none" d="M702.5 390.0387 L702.5 406.2305" clip-path="url(#clipPath1)"/>
      <path d="M702.5 419.9805 L710 404.9805 L695 404.9805 Z" clip-path="url(#clipPath1)" stroke="none"/>
      <path fill="none" d="M497.5 1050.0256 L497.5 1066.2354" clip-path="url(#clipPath1)"/>
      <path d="M497.5 1079.9854 L505 1064.9854 L490 1064.9854 Z" clip-path="url(#clipPath1)" stroke="none"/>
      <path fill="none" d="M87.5 2249.9775 L87.5 2266.2473" clip-path="url(#clipPath1)"/>
      <path d="M87.5 2279.9973 L95 2264.9973 L80 2264.9973 Z" clip-path="url(#clipPath1)" stroke="none"/>
    </g>
  </g>
</svg>
