<?xml version="1.0" encoding="UTF-8"?><svg xmlns="http://www.w3.org/2000/svg" xmlns:xlink="http://www.w3.org/1999/xlink" fill-opacity="1" color-rendering="auto" color-interpolation="auto" text-rendering="auto" stroke="black" stroke-linecap="square" width="790" stroke-miterlimit="10" shape-rendering="auto" stroke-opacity="1" fill="black" stroke-dasharray="none" font-weight="normal" stroke-width="1" height="510" font-family="'Dialog'" font-style="normal" stroke-linejoin="miter" font-size="12px" stroke-dashoffset="0" image-rendering="auto">
  <!--Generated by ySVG 2.6-->
  <defs id="genericDefs"/>
  <g>
    <defs id="defs1">
      <clipPath clipPathUnits="userSpaceOnUse" id="clipPath1">
        <path d="M0 0 L790 0 L790 510 L0 510 L0 0 Z"/>
      </clipPath>
    </defs>
    <g fill="white" text-rendering="geometricPrecision" shape-rendering="geometricPrecision" stroke="white">
      <rect x="0" width="790" height="510" y="0" clip-path="url(#clipPath1)" stroke="none"/>
    </g>
    <g fill="rgb(187,68,34)" text-rendering="geometricPrecision" shape-rendering="geometricPrecision" stroke="rgb(187,68,34)">
      <rect x="0" y="0" clip-path="url(#clipPath1)" width="790" rx="4" ry="4" height="30" stroke="none"/>
    </g>
    <g stroke-linecap="butt" fill="white" text-rendering="geometricPrecision" font-family="'DejaVu Sans'" shape-rendering="geometricPrecision" stroke="white" font-weight="bold" stroke-miterlimit="1.45">
      <text x="373.4873" xml:space="preserve" y="19.1543" clip-path="url(#clipPath1)" stroke="none">Run42</text>
    </g>
    <g fill="rgb(34,68,153)" text-rendering="geometricPrecision" shape-rendering="geometricPrecision" stroke="rgb(34,68,153)">
      <rect x="0" y="420" clip-path="url(#clipPath1)" width="175" rx="4" ry="4" height="30" stroke="none"/>
    </g>
    <g stroke-linecap="butt" fill="white" text-rendering="geometricPrecision" font-family="'DejaVu Sans'" shape-rendering="geometricPrecision" stroke="white" font-weight="bold" stroke-miterlimit="1.45">
      <text x="72.3564" xml:space="preserve" y="439.1543" clip-path="url(#clipPath1)" stroke="none">type</text>
    </g>
    <g fill="rgb(34,68,153)" text-rendering="geometricPrecision" shape-rendering="geometricPrecision" stroke="rgb(34,68,153)">
      <rect x="205" y="300" clip-path="url(#clipPath1)" width="175" rx="4" ry="4" height="30" stroke="none"/>
    </g>
    <g stroke-linecap="butt" fill="white" text-rendering="geometricPrecision" font-family="'DejaVu Sans'" shape-rendering="geometricPrecision" stroke="white" font-weight="bold" stroke-miterlimit="1.45">
      <text x="225.4307" xml:space="preserve" y="319.1543" clip-path="url(#clipPath1)" stroke="none">hasExperimentType</text>
    </g>
    <g fill="rgb(34,68,153)" text-rendering="geometricPrecision" shape-rendering="geometricPrecision" stroke="rgb(34,68,153)">
      <rect x="410" y="180" clip-path="url(#clipPath1)" width="175" rx="4" ry="4" height="30" stroke="none"/>
    </g>
    <g stroke-linecap="butt" fill="white" text-rendering="geometricPrecision" font-family="'DejaVu Sans'" shape-rendering="geometricPrecision" stroke="white" font-weight="bold" stroke-miterlimit="1.45">
      <text x="446.1807" xml:space="preserve" y="199.1543" clip-path="url(#clipPath1)" stroke="none">observedRobot</text>
    </g>
    <g fill="rgb(34,68,153)" text-rendering="geometricPrecision" shape-rendering="geometricPrecision" stroke="rgb(34,68,153)">
      <rect x="615" y="60" clip-path="url(#clipPath1)" width="175" rx="4" ry="4" height="30" stroke="none"/>
    </g>
    <g stroke-linecap="butt" fill="white" text-rendering="geometricPrecision" font-family="'DejaVu Sans'" shape-rendering="geometricPrecision" stroke="white" font-weight="bold" stroke-miterlimit="1.45">
      <text x="666.1162" xml:space="preserve" y="79.1543" clip-path="url(#clipPath1)" stroke="none">travelTime</text>
    </g>
    <g fill="rgb(187,68,34)" text-rendering="geometricPrecision" shape-rendering="geometricPrecision" stroke="rgb(187,68,34)">
      <rect x="205" y="360" clip-path="url(#clipPath1)" width="175" rx="4" ry="4" height="30" stroke="none"/>
    </g>
    <g stroke-linecap="butt" fill="white" text-rendering="geometricPrecision" font-family="'DejaVu Sans'" shape-rendering="geometricPrecision" stroke="white" font-weight="bold" stroke-miterlimit="1.45">
      <text x="227.959" xml:space="preserve" y="379.1543" clip-path="url(#clipPath1)" stroke="none">ObstacleAvoidance</text>
    </g>
    <g fill="rgb(0,102,34)" text-rendering="geometricPrecision" shape-rendering="geometricPrecision" stroke="rgb(0,102,34)">
      <rect x="615" y="120" clip-path="url(#clipPath1)" width="175" rx="4" ry="4" height="30" stroke="none"/>
    </g>
    <g stroke-linecap="butt" fill="white" text-rendering="geometricPrecision" font-family="'DejaVu Sans'" shape-rendering="geometricPrecision" stroke="white" font-weight="bold" stroke-miterlimit="1.45">
      <text x="687.6963" xml:space="preserve" y="139.1543" clip-path="url(#clipPath1)" stroke="none">38.0</text>
    </g>
    <g fill="rgb(187,68,34)" text-rendering="geometricPrecision" shape-rendering="geometricPrecision" stroke="rgb(187,68,34)">
      <rect x="410" y="240" clip-path="url(#clipPath1)" width="175" rx="4" ry="4" height="30" stroke="none"/>
    </g>
    <g stroke-linecap="butt" fill="white" text-rendering="geometricPrecision" font-family="'DejaVu Sans'" shape-rendering="geometricPrecision" stroke="white" font-weight="bold" stroke-miterlimit="1.45">
      <text x="471.0801" xml:space="preserve" y="259.1543" clip-path="url(#clipPath1)" stroke="none">Artemis</text>
    </g>
    <g fill="rgb(187,68,34)" text-rendering="geometricPrecision" shape-rendering="geometricPrecision" stroke="rgb(187,68,34)">
      <rect x="0" y="480" clip-path="url(#clipPath1)" width="175" rx="4" ry="4" height="30" stroke="none"/>
    </g>
    <g stroke-linecap="butt" fill="white" text-rendering="geometricPrecision" font-family="'DejaVu Sans'" shape-rendering="geometricPrecision" stroke="white" font-weight="bold" stroke-miterlimit="1.45">
      <text x="35.5273" xml:space="preserve" y="499.1543" clip-path="url(#clipPath1)" stroke="none">ExperimentRun</text>
    </g>
    <g stroke-linecap="butt" fill="rgb(34,68,153)" text-rendering="geometricPrecision" shape-rendering="geometricPrecision" stroke="rgb(34,68,153)" stroke-width="3" stroke-miterlimit="1.45">
      <path fill="none" d="M89.1084 35.0096 L87.5602 420.0205" clip-path="url(#clipPath1)"/>
      <path d="M89.1486 25.0097 C91.91 25.0208 94.1396 27.2683 94.1285 30.0297 C94.1174 32.7911 91.8698 35.0207 89.1084 35.0096 C86.347 34.9985 84.1175 32.7509 84.1286 29.9895 C84.1397 27.2281 86.3872 24.9986 89.1486 25.0097 Z" clip-path="url(#clipPath1)" stroke="none"/>
      <path fill="none" d="M293.0279 34.967 L292.5283 300.0038" clip-path="url(#clipPath1)"/>
      <path d="M293.0467 24.967 C295.8081 24.9723 298.0425 27.215 298.0373 29.9765 C298.0321 32.7379 295.7893 34.9722 293.0279 34.967 C290.2664 34.9618 288.0321 32.719 288.0373 29.9576 C288.0425 27.1962 290.2853 24.9618 293.0467 24.967 Z" clip-path="url(#clipPath1)" stroke="none"/>
      <path fill="none" d="M497.0003 35.0152 L497.4531 179.9758" clip-path="url(#clipPath1)"/>
      <path d="M496.9691 25.0152 C499.7305 25.0066 501.976 27.2382 501.9846 29.9996 C501.9933 32.761 499.7617 35.0065 497.0003 35.0152 C494.2389 35.0238 491.9933 32.7922 491.9847 30.0308 C491.9761 27.2694 494.2076 25.0238 496.9691 25.0152 Z" clip-path="url(#clipPath1)" stroke="none"/>
      <path fill="none" d="M700.8065 35.0232 L700.8065 59.972" clip-path="url(#clipPath1)"/>
      <path d="M700.8065 25.0232 C703.5679 25.0232 705.8065 27.2618 705.8065 30.0232 C705.8065 32.7847 703.5679 35.0232 700.8065 35.0232 C698.045 35.0232 695.8065 32.7847 695.8065 30.0232 C695.8065 27.2618 698.045 25.0232 700.8065 25.0232 Z" clip-path="url(#clipPath1)" stroke="none"/>
      <path fill="none" d="M292.5 329.9707 L292.5 346.2549" clip-path="url(#clipPath1)"/>
      <path d="M292.5 360.0049 L300 345.0049 L285 345.0049 Z" clip-path="url(#clipPath1)" stroke="none"/>
      <path fill="none" d="M702.5 90.0035 L702.5 106.2305" clip-path="url(#clipPath1)"/>
      <path d="M702.5 119.9805 L710 104.9805 L695 104.9805 Z" clip-path="url(#clipPath1)" stroke="none"/>
      <path fill="none" d="M497.5 209.9707 L497.5 226.2549" clip-path="url(#clipPath1)"/>
      <path d="M497.5 240.0049 L505 225.0049 L490 225.0049 Z" clip-path="url(#clipPath1)" stroke="none"/>
      <path fill="none" d="M87.5 449.9707 L87.5 466.2549" clip-path="url(#clipPath1)"/>
      <path d="M87.5 480.0049 L95 465.0049 L80 465.0049 Z" clip-path="url(#clipPath1)" stroke="none"/>
    </g>
  </g>
</svg>
