<?xml version="1.0" encoding="UTF-8"?><svg xmlns="http://www.w3.org/2000/svg" xmlns:xlink="http://www.w3.org/1999/xlink" fill-opacity="1" color-rendering="auto" color-interpolation="auto" text-rendering="auto" stroke="black" stroke-linecap="square" width="1405" stroke-miterlimit="10" shape-rendering="auto" stroke-opacity="1" fill="black" stroke-dasharray="none" font-weight="normal" stroke-width="1" height="330" font-family="'Dialog'" font-style="normal" stroke-linejoin="miter" font-size="12px" stroke-dashoffset="0" image-rendering="auto">
  <!--Generated by ySVG 2.6-->
  <defs id="genericDefs"/>
  <g>
    <defs id="defs1">
      <clipPath clipPathUnits="userSpaceOnUse" id="clipPath1">
        <path d="M0 0 L1405 0 L1405 330 L0 330 L0 0 Z"/>
      </clipPath>
    </defs>
    <g fill="white" text-rendering="geometricPrecision" shape-rendering="geometricPrecision" stroke="white">
      <rect x="0" width="1405" height="330" y="0" clip-path="url(#clipPath1)" stroke="none"/>
    </g>
    <g fill="rgb(34,68,153)" text-rendering="geometricPrecision" shape-rendering="geometricPrecision" stroke="rgb(34,68,153)">
      <rect x="0" y="0" clip-path="url(#clipPath1)" width="175" rx="4" ry="4" height="330" stroke="none"/>
    </g>
    <g stroke-linecap="butt" fill="white" text-rendering="geometricPrecision" font-family="'DejaVu Sans'" shape-rendering="geometricPrecision" stroke="white" font-weight="bold" stroke-miterlimit="1.45">
      <text x="51.1162" xml:space="preserve" y="169.1543" clip-path="url(#clipPath1)" stroke="none">travelTime</text>
    </g>
    <g fill="rgb(34,68,153)" text-rendering="geometricPrecision" shape-rendering="geometricPrecision" stroke="rgb(34,68,153)">
      <rect x="205" y="0" clip-path="url(#clipPath1)" width="175" rx="4" ry="4" height="30" stroke="none"/>
    </g>
    <g stroke-linecap="butt" fill="white" text-rendering="geometricPrecision" font-family="'DejaVu Sans'" shape-rendering="geometricPrecision" stroke="white" font-weight="bold" stroke-miterlimit="1.45">
      <text x="277.3564" xml:space="preserve" y="19.1543" clip-path="url(#clipPath1)" stroke="none">type</text>
    </g>
    <g fill="rgb(187,68,34)" text-rendering="geometricPrecision" shape-rendering="geometricPrecision" stroke="rgb(187,68,34)">
      <rect x="410" y="0" clip-path="url(#clipPath1)" width="175" rx="4" ry="4" height="30" stroke="none"/>
    </g>
    <g stroke-linecap="butt" fill="white" text-rendering="geometricPrecision" font-family="'DejaVu Sans'" shape-rendering="geometricPrecision" stroke="white" font-weight="bold" stroke-miterlimit="1.45">
      <text x="423.0186" xml:space="preserve" y="19.1543" clip-path="url(#clipPath1)" stroke="none">ExperimentParameter</text>
    </g>
    <g text-rendering="geometricPrecision" stroke-miterlimit="1.45" shape-rendering="geometricPrecision" stroke-linecap="butt">
      <rect x="410" y="120" clip-path="url(#clipPath1)" fill="none" width="175" rx="4" ry="4" height="150"/>
    </g>
    <g fill="rgb(187,68,34)" text-rendering="geometricPrecision" shape-rendering="geometricPrecision" stroke="rgb(187,68,34)">
      <rect x="410" y="60" clip-path="url(#clipPath1)" width="175" rx="4" ry="4" height="30" stroke="none"/>
    </g>
    <g stroke-linecap="butt" fill="white" text-rendering="geometricPrecision" font-family="'DejaVu Sans'" shape-rendering="geometricPrecision" stroke="white" font-weight="bold" stroke-miterlimit="1.45">
      <text x="436.8291" xml:space="preserve" y="79.1543" clip-path="url(#clipPath1)" stroke="none">DatatypeProperty</text>
    </g>
    <g fill="rgb(187,68,34)" text-rendering="geometricPrecision" shape-rendering="geometricPrecision" stroke="rgb(187,68,34)">
      <rect x="820" y="120" clip-path="url(#clipPath1)" width="175" rx="4" ry="4" height="30" stroke="none"/>
    </g>
    <g stroke-linecap="butt" fill="white" text-rendering="geometricPrecision" font-family="'DejaVu Sans'" shape-rendering="geometricPrecision" stroke="white" font-weight="bold" stroke-miterlimit="1.45">
      <text x="876.4102" xml:space="preserve" y="139.1543" clip-path="url(#clipPath1)" stroke="none">Datatype</text>
    </g>
    <g fill="rgb(187,68,34)" text-rendering="geometricPrecision" shape-rendering="geometricPrecision" stroke="rgb(187,68,34)">
      <rect x="820" y="180" clip-path="url(#clipPath1)" width="175" rx="4" ry="4" height="30" stroke="none"/>
    </g>
    <g stroke-linecap="butt" fill="white" text-rendering="geometricPrecision" font-family="'DejaVu Sans'" shape-rendering="geometricPrecision" stroke="white" font-weight="bold" stroke-miterlimit="1.45">
      <text x="891.7939" xml:space="preserve" y="199.1543" clip-path="url(#clipPath1)" stroke="none">float</text>
    </g>
    <g text-rendering="geometricPrecision" stroke-miterlimit="1.45" shape-rendering="geometricPrecision" stroke-linecap="butt">
      <rect x="820" y="240" clip-path="url(#clipPath1)" fill="none" width="175" rx="4" ry="4" height="30"/>
    </g>
    <g fill="rgb(0,102,34)" text-rendering="geometricPrecision" shape-rendering="geometricPrecision" stroke="rgb(0,102,34)">
      <rect x="1230" y="240" clip-path="url(#clipPath1)" width="175" rx="4" ry="4" height="30" stroke="none"/>
    </g>
    <g stroke-linecap="butt" fill="white" text-rendering="geometricPrecision" font-family="'DejaVu Sans'" shape-rendering="geometricPrecision" stroke="white" font-weight="bold" stroke-miterlimit="1.45">
      <text x="1306.8711" xml:space="preserve" y="259.1543" clip-path="url(#clipPath1)" stroke="none">0.0</text>
    </g>
    <g fill="rgb(187,68,34)" text-rendering="geometricPrecision" shape-rendering="geometricPrecision" stroke="rgb(187,68,34)">
      <rect x="410" y="300" clip-path="url(#clipPath1)" width="175" rx="4" ry="4" height="30" stroke="none"/>
    </g>
    <g stroke-linecap="butt" fill="white" text-rendering="geometricPrecision" font-family="'DejaVu Sans'" shape-rendering="geometricPrecision" stroke="white" font-weight="bold" stroke-miterlimit="1.45">
      <text x="484.6768" xml:space="preserve" y="319.1543" clip-path="url(#clipPath1)" stroke="none">SEC</text>
    </g>
    <g fill="rgb(34,68,153)" text-rendering="geometricPrecision" shape-rendering="geometricPrecision" stroke="rgb(34,68,153)">
      <rect x="205" y="60" clip-path="url(#clipPath1)" width="175" rx="4" ry="4" height="30" stroke="none"/>
    </g>
    <g stroke-linecap="butt" fill="white" text-rendering="geometricPrecision" font-family="'DejaVu Sans'" shape-rendering="geometricPrecision" stroke="white" font-weight="bold" stroke-miterlimit="1.45">
      <text x="277.3564" xml:space="preserve" y="79.1543" clip-path="url(#clipPath1)" stroke="none">type</text>
    </g>
    <g fill="rgb(34,68,153)" text-rendering="geometricPrecision" shape-rendering="geometricPrecision" stroke="rgb(34,68,153)">
      <rect x="205" y="180" clip-path="url(#clipPath1)" width="175" rx="4" ry="4" height="30" stroke="none"/>
    </g>
    <g stroke-linecap="butt" fill="white" text-rendering="geometricPrecision" font-family="'DejaVu Sans'" shape-rendering="geometricPrecision" stroke="white" font-weight="bold" stroke-miterlimit="1.45">
      <text x="272.8564" xml:space="preserve" y="199.1543" clip-path="url(#clipPath1)" stroke="none">range</text>
    </g>
    <g fill="rgb(34,68,153)" text-rendering="geometricPrecision" shape-rendering="geometricPrecision" stroke="rgb(34,68,153)">
      <rect x="205" y="300" clip-path="url(#clipPath1)" width="175" rx="4" ry="4" height="30" stroke="none"/>
    </g>
    <g stroke-linecap="butt" fill="white" text-rendering="geometricPrecision" font-family="'DejaVu Sans'" shape-rendering="geometricPrecision" stroke="white" font-weight="bold" stroke-miterlimit="1.45">
      <text x="279.0322" xml:space="preserve" y="319.1543" clip-path="url(#clipPath1)" stroke="none">unit</text>
    </g>
    <g fill="rgb(34,68,153)" text-rendering="geometricPrecision" shape-rendering="geometricPrecision" stroke="rgb(34,68,153)">
      <rect x="615" y="120" clip-path="url(#clipPath1)" width="175" rx="4" ry="4" height="30" stroke="none"/>
    </g>
    <g stroke-linecap="butt" fill="white" text-rendering="geometricPrecision" font-family="'DejaVu Sans'" shape-rendering="geometricPrecision" stroke="white" font-weight="bold" stroke-miterlimit="1.45">
      <text x="687.3564" xml:space="preserve" y="139.1543" clip-path="url(#clipPath1)" stroke="none">type</text>
    </g>
    <g fill="rgb(34,68,153)" text-rendering="geometricPrecision" shape-rendering="geometricPrecision" stroke="rgb(34,68,153)">
      <rect x="615" y="180" clip-path="url(#clipPath1)" width="175" rx="4" ry="4" height="30" stroke="none"/>
    </g>
    <g stroke-linecap="butt" fill="white" text-rendering="geometricPrecision" font-family="'DejaVu Sans'" shape-rendering="geometricPrecision" stroke="white" font-weight="bold" stroke-miterlimit="1.45">
      <text x="663.0166" xml:space="preserve" y="199.1543" clip-path="url(#clipPath1)" stroke="none">onDatatype</text>
    </g>
    <g fill="rgb(34,68,153)" text-rendering="geometricPrecision" shape-rendering="geometricPrecision" stroke="rgb(34,68,153)">
      <rect x="615" y="240" clip-path="url(#clipPath1)" width="175" rx="4" ry="4" height="30" stroke="none"/>
    </g>
    <g stroke-linecap="butt" fill="white" text-rendering="geometricPrecision" font-family="'DejaVu Sans'" shape-rendering="geometricPrecision" stroke="white" font-weight="bold" stroke-miterlimit="1.45">
      <text x="647.1699" xml:space="preserve" y="259.1543" clip-path="url(#clipPath1)" stroke="none">withRestrictions</text>
    </g>
    <g fill="rgb(34,68,153)" text-rendering="geometricPrecision" shape-rendering="geometricPrecision" stroke="rgb(34,68,153)">
      <rect x="1025" y="240" clip-path="url(#clipPath1)" width="175" rx="4" ry="4" height="30" stroke="none"/>
    </g>
    <g stroke-linecap="butt" fill="white" text-rendering="geometricPrecision" font-family="'DejaVu Sans'" shape-rendering="geometricPrecision" stroke="white" font-weight="bold" stroke-miterlimit="1.45">
      <text x="1069.9229" xml:space="preserve" y="259.1543" clip-path="url(#clipPath1)" stroke="none">minInclusive</text>
    </g>
    <g stroke-linecap="butt" fill="rgb(34,68,153)" text-rendering="geometricPrecision" shape-rendering="geometricPrecision" stroke="rgb(34,68,153)" stroke-width="3" stroke-miterlimit="1.45">
      <path fill="none" d="M180.0046 15 L204.9809 15" clip-path="url(#clipPath1)"/>
      <path d="M170.0046 15 C170.0046 12.2386 172.2432 10 175.0046 10 C177.7661 10 180.0046 12.2386 180.0046 15 C180.0046 17.7614 177.7661 20 175.0046 20 C172.2432 20 170.0046 17.7614 170.0046 15 Z" clip-path="url(#clipPath1)" stroke="none"/>
      <path fill="none" d="M380.0104 15 L396.2351 15" clip-path="url(#clipPath1)"/>
      <path d="M409.9851 15 L394.9851 7.5 L394.9851 22.5 Z" clip-path="url(#clipPath1)" stroke="none"/>
      <path fill="none" d="M180.0137 75 L204.9876 75" clip-path="url(#clipPath1)"/>
      <path d="M170.0137 75 C170.0137 72.2386 172.2523 70 175.0137 70 C177.7751 70 180.0137 72.2386 180.0137 75 C180.0137 77.7614 177.7751 80 175.0137 80 C172.2523 80 170.0137 77.7614 170.0137 75 Z" clip-path="url(#clipPath1)" stroke="none"/>
      <path fill="none" d="M380.0104 75 L396.2351 75" clip-path="url(#clipPath1)"/>
      <path d="M409.9851 75 L394.9851 67.5 L394.9851 82.5 Z" clip-path="url(#clipPath1)" stroke="none"/>
      <path fill="none" d="M180.0204 195 L204.9926 195" clip-path="url(#clipPath1)"/>
      <path d="M170.0204 195 C170.0204 192.2386 172.259 190 175.0204 190 C177.7818 190 180.0204 192.2386 180.0204 195 C180.0204 197.7614 177.7818 200 175.0204 200 C172.259 200 170.0204 197.7614 170.0204 195 Z" clip-path="url(#clipPath1)" stroke="none"/>
      <path fill="none" d="M379.9988 195 L396.2658 195" clip-path="url(#clipPath1)"/>
      <path d="M410.0158 195 L395.0158 187.5 L395.0158 202.5 Z" clip-path="url(#clipPath1)" stroke="none"/>
      <path fill="none" d="M180.0204 315 L204.9926 315" clip-path="url(#clipPath1)"/>
      <path d="M170.0204 315 C170.0204 312.2386 172.259 310 175.0204 310 C177.7818 310 180.0204 312.2386 180.0204 315 C180.0204 317.7614 177.7818 320 175.0204 320 C172.259 320 170.0204 317.7614 170.0204 315 Z" clip-path="url(#clipPath1)" stroke="none"/>
      <path fill="none" d="M379.9842 315 L396.2658 315" clip-path="url(#clipPath1)"/>
      <path d="M410.0158 315 L395.0158 307.5 L395.0158 322.5 Z" clip-path="url(#clipPath1)" stroke="none"/>
      <path fill="none" d="M590.0008 135 L614.978 135" clip-path="url(#clipPath1)"/>
      <path d="M580.0008 135 C580.0008 132.2386 582.2394 130 585.0008 130 C587.7622 130 590.0008 132.2386 590.0008 135 C590.0008 137.7614 587.7622 140 585.0008 140 C582.2394 140 580.0008 137.7614 580.0008 135 Z" clip-path="url(#clipPath1)" stroke="none"/>
      <path fill="none" d="M790.0104 135 L806.2352 135" clip-path="url(#clipPath1)"/>
      <path d="M819.9852 135 L804.9852 127.5 L804.9852 142.5 Z" clip-path="url(#clipPath1)" stroke="none"/>
      <path fill="none" d="M589.9835 195 L615.0225 195" clip-path="url(#clipPath1)"/>
      <path d="M579.9835 195 C579.9835 192.2386 582.2221 190 584.9835 190 C587.7449 190 589.9835 192.2386 589.9835 195 C589.9835 197.7614 587.7449 200 584.9835 200 C582.2221 200 579.9835 197.7614 579.9835 195 Z" clip-path="url(#clipPath1)" stroke="none"/>
      <path fill="none" d="M790.0104 195 L806.2352 195" clip-path="url(#clipPath1)"/>
      <path d="M819.9852 195 L804.9852 187.5 L804.9852 202.5 Z" clip-path="url(#clipPath1)" stroke="none"/>
      <path fill="none" d="M590.026 255 L614.9968 255" clip-path="url(#clipPath1)"/>
      <path d="M580.026 255 C580.026 252.2386 582.2646 250 585.026 250 C587.7874 250 590.026 252.2386 590.026 255 C590.026 257.7614 587.7874 260 585.026 260 C582.2646 260 580.026 257.7614 580.026 255 Z" clip-path="url(#clipPath1)" stroke="none"/>
      <path fill="none" d="M790.0104 255 L806.2352 255" clip-path="url(#clipPath1)"/>
      <path d="M819.9852 255 L804.9852 247.5 L804.9852 262.5 Z" clip-path="url(#clipPath1)" stroke="none"/>
      <path fill="none" d="M1000.0104 255 L1024.9851 255" clip-path="url(#clipPath1)"/>
      <path d="M990.0104 255 C990.0104 252.2386 992.249 250 995.0104 250 C997.7718 250 1000.0104 252.2386 1000.0104 255 C1000.0104 257.7614 997.7718 260 995.0104 260 C992.249 260 990.0104 257.7614 990.0104 255 Z" clip-path="url(#clipPath1)" stroke="none"/>
      <path fill="none" d="M1200.0104 255 L1216.2351 255" clip-path="url(#clipPath1)"/>
      <path d="M1229.9851 255 L1214.9851 247.5 L1214.9851 262.5 Z" clip-path="url(#clipPath1)" stroke="none"/>
    </g>
  </g>
</svg>
